{"glyphs":{"0":{"ha":753,"x_min":0,"x_max":0,"o":"m 44 447 b 371 -11 44 238 139 -11 b 701 447 613 -11 701 228 b 371 914 701 665 624 914 b 44 447 118 914 44 656 z m 149 447 b 371 835 149 625 193 835 b 594 447 557 835 594 632 b 371 67 594 260 538 67 b 149 447 203 67 149 260 z "},"1":{"ha":436,"x_min":0,"x_max":0,"o":"m 378 42 b 290 131 313 42 290 96 l 290 776 b 364 861 290 828 326 861 l 392 861 l 392 903 l 271 903 b -12 775 150 893 93 775 b 39 733 -12 746 1 733 b 185 789 90 733 153 789 b 189 749 189 789 189 772 l 189 131 b 103 42 189 106 167 42 l 43 42 l 43 0 l 438 0 l 438 42 z "},"2":{"ha":713,"x_min":0,"x_max":0,"o":"m 615 692 b 353 919 615 842 519 919 b 72 717 144 919 72 790 b 156 593 72 647 111 593 b 353 849 156 708 207 849 b 503 692 454 849 503 769 b 60 19 503 432 60 261 b 69 -24 60 4 63 -11 b 281 0 69 -24 144 0 b 519 -18 364 0 442 -18 b 675 118 643 -18 675 78 b 589 207 675 167 643 207 b 426 60 589 100 528 60 b 176 75 333 60 265 74 b 376 321 218 174 300 253 b 615 692 478 411 615 535 z "},"3":{"ha":665,"x_min":0,"x_max":0,"o":"m 581 690 b 321 907 581 794 532 907 b 51 708 138 907 51 794 b 133 603 51 632 94 603 b 321 838 133 785 219 838 b 481 690 414 838 481 778 b 219 489 481 557 364 489 b 206 447 208 468 206 460 b 250 408 206 422 229 408 b 329 414 281 411 306 414 b 524 244 435 414 524 376 b 339 43 524 122 442 43 b 138 199 236 43 138 108 b 58 117 138 199 58 196 b 329 -17 58 51 150 -17 b 626 244 531 -17 626 133 b 426 467 626 388 524 454 b 581 690 524 514 581 606 z "},"4":{"ha":703,"x_min":0,"x_max":0,"o":"m 613 267 b 710 353 710 267 710 353 b 594 326 710 353 651 326 l 499 326 l 499 567 b 535 679 499 679 535 679 b 494 711 535 679 535 711 b 407 557 460 711 407 692 l 407 326 l 214 326 b 125 357 147 326 125 339 b 186 454 125 381 161 417 b 369 815 261 567 369 736 b 292 919 369 903 324 919 b 244 908 269 919 246 908 b 268 832 249 904 268 886 b 14 353 268 761 183 539 b -8 315 4 342 -8 328 b 108 267 -8 289 17 267 l 407 267 l 407 126 b 306 42 407 83 385 42 l 268 42 l 268 0 l 608 0 l 608 42 l 563 42 b 499 108 514 42 499 83 l 499 267 z "},"5":{"ha":629,"x_min":0,"x_max":0,"o":"m 307 567 b 169 539 244 567 204 553 b 229 813 183 604 210 656 l 450 813 b 560 933 558 813 560 933 b 432 900 560 933 510 900 l 121 900 b 129 807 129 871 129 839 b 71 482 129 664 71 504 b 122 433 71 450 101 433 b 293 497 174 479 238 497 b 497 285 418 497 497 408 b 285 44 497 156 408 44 b 106 199 174 44 106 115 b 22 122 106 199 22 185 b 285 -17 22 60 85 -17 b 606 293 501 -17 606 153 b 307 567 606 431 538 567 z "},"6":{"ha":703,"x_min":0,"x_max":0,"o":"m 396 558 b 221 465 268 558 221 497 b 235 415 221 436 229 421 b 399 500 267 456 329 500 b 568 286 501 500 568 429 b 363 36 568 125 465 36 b 136 406 249 36 136 161 b 408 829 136 649 250 829 b 565 725 551 829 565 725 b 603 797 594 749 603 775 b 408 899 603 843 556 899 b 36 406 189 899 36 657 b 353 -24 36 136 171 -24 b 660 286 544 -24 660 126 b 396 558 660 438 579 558 z "},"7":{"ha":646,"x_min":0,"x_max":0,"o":"m 628 883 b 456 863 628 883 597 863 b 247 871 381 863 321 871 b 11 721 121 871 11 844 b 97 631 11 674 49 631 b 94 672 94 643 94 661 b 315 808 94 785 211 808 b 469 785 446 808 469 797 b 282 340 469 679 331 444 b 192 56 229 228 192 136 b 292 -36 192 -32 261 -36 b 332 -31 304 -36 332 -31 b 306 39 332 -31 306 1 b 628 883 306 332 628 778 z "},"8":{"ha":694,"x_min":0,"x_max":0,"o":"m 447 489 b 617 700 536 536 617 596 b 346 908 617 824 519 908 b 67 690 163 908 67 785 b 253 450 67 600 110 517 b 39 204 188 417 39 335 b 346 -24 39 71 164 -24 b 653 232 528 -24 653 99 b 419 471 653 349 556 417 z m 167 681 b 346 847 167 778 251 847 b 515 690 422 847 515 796 b 356 496 515 597 388 514 b 167 681 253 532 167 576 z m 346 36 b 139 213 225 36 139 97 b 328 425 139 322 303 411 b 553 222 532 354 553 267 b 346 36 553 178 526 36 z "},"9":{"ha":714,"x_min":0,"x_max":0,"o":"m 347 899 b 40 599 156 899 40 738 b 325 307 40 447 144 307 b 492 386 408 307 492 322 b 471 426 492 407 479 419 b 326 367 438 386 386 367 b 140 599 229 367 140 456 b 347 839 140 731 219 839 b 564 451 483 839 564 714 b 315 36 564 181 461 36 b 158 186 221 36 158 103 b 86 114 158 186 86 175 b 329 -24 86 46 154 -24 b 664 465 501 -24 664 142 b 347 899 664 782 539 899 z "},"\"":{"ha":461,"x_min":0,"x_max":0,"o":"m 199 918 b 132 985 199 957 174 985 b 58 919 81 985 58 954 b 94 635 58 829 89 725 b 128 604 94 615 111 604 b 164 635 146 604 164 617 b 189 839 167 692 181 779 b 199 918 194 874 199 908 z m 400 918 b 333 985 400 957 375 985 b 260 919 282 985 260 954 b 296 635 260 822 290 729 b 329 604 296 615 313 604 b 365 635 347 604 364 617 b 390 839 368 692 382 779 b 400 918 396 874 400 908 z "},"#":{"ha":804,"x_min":0,"x_max":0,"o":"m 107 -25 l 194 -25 l 257 253 l 457 253 l 394 -25 l 482 -25 l 544 253 l 714 253 b 810 368 810 253 810 368 b 694 333 810 368 751 333 l 563 333 l 615 557 l 722 557 b 818 671 818 557 818 671 b 703 636 818 671 760 636 l 633 636 l 707 960 l 619 960 l 544 636 l 344 636 l 421 960 l 333 960 l 257 636 l 106 636 b 19 617 83 636 42 636 b -8 538 -3 593 -8 538 b 106 557 -8 538 46 557 l 240 557 l 188 333 l 106 333 b 19 313 83 333 42 333 b -8 235 -3 289 -8 235 b 106 253 -8 235 46 253 l 169 253 z m 328 557 l 528 557 l 475 333 l 275 333 z "},"$":{"ha":564,"x_min":0,"x_max":0,"o":"m 238 -147 l 329 -147 l 329 -1 b 553 208 467 -1 553 110 b 124 667 553 489 124 463 b 282 807 124 747 199 807 b 447 608 369 807 447 763 b 536 710 481 608 536 642 b 329 869 536 800 436 869 l 329 992 l 238 992 l 238 869 b 26 667 142 869 26 778 b 467 206 26 369 467 404 b 286 67 467 144 413 67 b 67 263 100 67 67 263 b -1 175 67 263 -1 254 b 236 0 -1 88 114 0 b 238 -147 236 -37 236 -58 z "},"%":{"ha":1094,"x_min":0,"x_max":0,"o":"m 714 254 b 842 447 714 342 738 447 b 968 254 947 447 968 346 b 842 64 968 160 936 64 b 714 254 744 64 714 160 z m 626 254 b 842 0 626 138 689 0 b 1057 254 999 0 1057 132 b 842 513 1057 375 1006 513 b 626 254 675 513 626 369 z m 117 622 b 243 815 117 710 139 815 b 369 622 349 815 369 714 b 243 432 369 528 338 432 b 117 622 146 432 117 528 z m 29 622 b 243 367 29 504 90 367 b 458 622 400 367 458 499 b 243 879 458 742 408 879 b 29 622 76 879 29 736 z m 721 889 l 272 0 l 363 0 l 810 889 z "},"&":{"ha":1149,"x_min":0,"x_max":0,"o":"m 885 340 b 963 518 885 451 889 518 b 1044 517 1000 518 1015 517 b 1150 615 1119 517 1150 575 b 1094 679 1150 635 1138 679 b 951 581 1076 599 1019 581 l 740 581 b 515 425 556 581 515 483 b 639 275 515 338 568 275 b 706 340 700 275 706 340 b 606 421 676 340 606 361 b 740 514 606 482 656 514 b 792 465 778 514 792 507 b 789 299 792 353 792 335 b 467 56 789 167 676 56 b 165 299 357 56 165 122 b 346 476 165 400 247 476 b 435 440 404 476 425 453 b 458 501 456 465 458 488 b 218 739 458 597 218 572 b 381 883 218 825 296 883 b 550 689 457 883 550 844 b 633 778 583 689 633 722 b 381 950 633 869 565 950 b 111 739 168 950 111 825 b 265 536 111 651 149 589 b 57 300 171 524 57 451 b 467 -10 57 104 253 -10 b 885 340 714 -10 885 108 z "},"'":{"ha":167,"x_min":0,"x_max":0,"o":"m 151 918 b 85 985 151 957 126 985 b 10 919 33 985 10 954 b 19 844 10 910 14 882 b 47 635 29 783 43 696 b 81 604 47 615 64 604 b 117 635 97 604 115 617 b 142 839 119 692 133 779 b 151 918 147 874 151 908 z "},"(":{"ha":406,"x_min":0,"x_max":0,"o":"m 333 -200 b 106 386 183 -50 106 168 b 335 979 106 636 193 807 b 388 1058 363 1015 388 1050 b 369 1069 388 1065 382 1069 b 282 1018 354 1069 322 1051 l 283 1018 b -8 386 89 857 -8 617 b 283 -242 -8 144 104 -94 b 382 -290 318 -265 360 -290 b 408 -274 388 -290 408 -278 b 388 -250 408 -265 401 -261 b 333 -200 376 -242 358 -226 z "},")":{"ha":406,"x_min":0,"x_max":0,"o":"m 69 -200 b 15 -250 44 -226 26 -242 b -6 -274 1 -262 -6 -268 b 21 -290 -6 -278 15 -290 b 119 -242 43 -290 85 -265 b 411 386 299 -94 411 144 b 119 1018 411 617 314 857 l 121 1018 b 33 1069 81 1051 49 1069 b 15 1058 21 1069 15 1065 b 68 979 15 1047 35 1021 b 297 386 210 807 297 636 b 69 -200 297 168 219 -50 z "},"*":{"ha":474,"x_min":0,"x_max":0,"o":"m 436 674 b 290 729 417 682 347 710 b 450 793 390 764 435 785 b 476 831 468 804 476 818 b 417 883 476 858 453 883 b 268 783 406 883 381 875 b 292 933 275 835 292 918 b 238 978 292 957 269 978 b 182 933 200 978 182 957 b 206 783 182 919 196 839 b 47 883 106 860 63 883 b -8 831 18 883 -8 858 b 185 729 -8 794 89 761 b 6 633 121 711 6 671 b 61 581 6 596 32 581 b 206 678 85 581 107 601 b 182 532 196 622 182 539 b 236 479 182 499 214 479 b 292 532 271 479 292 499 b 276 629 292 536 285 583 l 268 678 b 414 579 354 608 400 579 b 471 632 449 579 471 603 b 436 674 471 651 453 667 z "},"+":{"ha":657,"x_min":0,"x_max":0,"o":"m 381 646 b 399 763 381 711 399 763 b 307 738 399 763 319 750 b 275 646 275 703 275 665 l 275 464 l 103 464 b 8 438 78 464 29 460 b -28 356 -21 410 -28 356 b 103 378 -28 356 43 378 l 275 378 l 275 192 b 243 93 275 126 243 93 b 381 186 243 93 381 92 l 381 378 l 563 378 b 669 494 671 378 669 494 b 557 464 669 494 608 464 l 381 464 z "},",":{"ha":253,"x_min":0,"x_max":0,"o":"m 132 150 b 50 83 75 150 50 115 b 92 18 50 46 72 31 b 114 -18 104 11 114 4 b 40 -99 114 -65 61 -99 b 79 -131 40 -99 50 -131 b 215 60 172 -131 215 -10 b 132 150 215 104 193 150 z "},"-":{"ha":494,"x_min":0,"x_max":0,"o":"m 372 294 b 465 394 465 294 465 394 b 353 372 465 394 404 372 l 163 372 b 68 350 138 372 90 372 b 40 271 40 324 40 271 b 149 294 40 271 92 294 z "},".":{"ha":247,"x_min":0,"x_max":0,"o":"m 204 61 b 122 135 204 107 172 135 b 43 61 81 135 43 107 b 122 -7 43 18 82 -7 b 204 61 168 -7 204 17 z "},"/":{"ha":481,"x_min":0,"x_max":0,"o":"m 490 1076 b 454 1082 490 1076 471 1082 b 389 1044 433 1082 401 1074 l -14 -103 l 18 -103 b 94 -47 49 -103 76 -97 z "},":":{"ha":286,"x_min":0,"x_max":0,"o":"m 225 532 b 144 603 225 576 194 603 b 65 532 103 603 65 576 b 144 463 65 488 104 463 b 225 532 190 463 225 486 z m 225 63 b 144 135 225 108 194 135 b 65 63 103 135 65 108 b 144 -6 65 19 104 -6 b 225 63 190 -6 225 18 z "},";":{"ha":219,"x_min":0,"x_max":0,"o":"m 192 532 b 111 603 192 576 160 603 b 31 532 68 603 31 576 b 111 463 31 488 69 463 b 192 532 156 463 192 486 z m 114 136 b 40 76 63 136 40 104 b 78 17 40 42 60 28 b 97 -15 89 11 97 4 b 31 -87 97 -58 50 -87 b 65 -117 31 -87 40 -117 b 189 54 150 -117 189 -8 b 114 136 189 94 168 136 z "},"<":{"ha":696,"x_min":0,"x_max":0,"o":"m 581 64 b 613 117 600 83 613 101 b 133 401 613 138 590 183 l 551 628 b 603 692 590 649 603 672 b 582 740 603 706 596 722 l 42 440 b -12 397 1 424 -12 408 b 92 329 -12 378 79 336 z "},"=":{"ha":749,"x_min":0,"x_max":0,"o":"m 601 469 b 697 592 697 469 697 592 b 582 549 697 592 639 549 l 133 549 b 47 529 113 549 69 549 b 21 450 26 506 21 450 b 133 469 21 450 74 469 z m 601 206 b 697 328 697 206 697 328 b 582 285 697 328 639 285 l 133 285 b 47 264 113 285 69 285 b 21 186 26 242 21 186 b 133 206 21 186 74 206 z "},">":{"ha":697,"x_min":0,"x_max":0,"o":"m 600 329 b 704 397 613 336 704 378 b 650 440 704 408 690 424 l 110 740 b 89 692 96 722 89 706 b 140 628 89 672 101 649 l 558 401 b 79 117 101 183 79 138 b 111 64 79 101 92 83 z "},"?":{"ha":494,"x_min":0,"x_max":0,"o":"m 246 258 b 239 310 242 276 239 293 b 503 746 239 494 503 560 b 256 958 503 889 399 958 b -6 769 108 958 -6 875 b 74 671 -6 696 43 671 b 260 893 74 718 83 893 b 393 739 351 893 393 821 b 293 556 393 678 365 619 b 146 353 193 468 146 426 b 246 258 146 293 181 258 z m 314 61 b 232 133 314 107 282 133 b 153 61 190 133 153 107 b 232 -7 153 18 192 -7 b 314 61 278 -7 314 17 z "},"@":{"ha":1210,"x_min":0,"x_max":0,"o":"m 718 917 b 39 275 343 917 39 618 b 529 -169 39 1 239 -169 b 989 -1 676 -169 989 -151 b 979 38 989 6 989 13 b 546 -107 900 -25 749 -107 b 133 279 269 -107 133 35 b 728 856 133 615 408 856 b 1071 547 985 856 1071 710 b 1028 342 1071 482 1058 408 b 817 146 989 256 910 146 b 775 211 788 146 775 171 b 843 479 775 304 815 411 b 949 697 875 557 913 636 l 922 697 b 828 646 896 697 844 690 b 758 483 807 594 783 536 b 440 154 694 346 533 154 b 378 231 394 154 378 186 b 476 476 378 310 425 417 b 660 600 558 571 619 600 b 740 550 724 600 740 550 b 772 628 740 550 772 603 b 697 678 772 651 757 678 b 422 529 603 678 518 632 b 275 204 356 458 275 307 b 404 86 275 136 310 86 b 693 264 538 86 635 185 b 675 183 683 239 675 210 b 779 86 675 129 703 86 b 1160 554 903 86 1160 229 b 718 917 1160 729 1057 917 z "},"A":{"ha":829,"x_min":0,"x_max":0,"o":"m 840 42 b 750 122 817 42 771 65 b 501 808 750 122 521 753 b 350 960 474 886 438 960 b 274 918 299 960 274 932 b 325 849 285 917 325 910 b 78 274 325 772 208 532 b 1 67 42 203 1 125 b 74 -24 1 42 8 -24 b 154 10 131 -24 154 3 b 119 93 133 11 119 43 b 194 311 119 143 163 244 l 574 311 b 644 110 585 282 626 161 b 650 79 649 99 650 89 b 608 42 650 60 635 43 l 575 42 l 575 0 l 875 0 l 875 42 z m 231 390 b 406 785 339 606 382 729 b 547 390 453 656 499 519 z "},"B":{"ha":879,"x_min":0,"x_max":0,"o":"m 782 704 b 451 960 782 826 710 960 b 301 950 394 960 346 956 b 167 940 260 946 213 940 l 33 940 l 33 899 l 83 899 b 144 836 115 899 144 878 l 144 107 b 69 42 144 76 122 42 l 33 42 l 33 0 l 497 0 b 829 274 728 0 829 122 b 651 506 829 411 735 485 b 782 704 728 543 782 600 z m 478 65 b 244 100 282 65 249 96 l 244 858 b 425 894 289 883 372 894 b 674 696 635 894 674 783 b 488 524 674 599 599 524 b 397 531 456 524 397 531 b 376 493 397 531 376 513 b 442 440 376 457 400 440 b 543 449 471 440 517 449 b 721 264 688 449 721 335 b 478 65 721 185 658 65 z "},"C":{"ha":908,"x_min":0,"x_max":0,"o":"m 754 674 b 765 672 757 672 761 672 b 839 786 793 672 839 706 b 517 957 839 903 713 957 b 38 464 321 957 38 836 b 492 -24 38 101 306 -24 b 824 133 658 -24 824 29 b 761 201 824 172 800 201 b 485 49 700 88 617 49 b 149 468 342 49 149 183 b 514 885 149 758 368 885 b 754 674 654 885 754 843 z "},"D":{"ha":956,"x_min":0,"x_max":0,"o":"m 901 479 b 453 960 901 618 858 960 b 168 940 353 960 261 940 l 35 940 l 35 900 l 79 900 b 144 824 129 900 144 867 l 144 131 b 65 42 144 89 117 42 l 35 42 l 35 0 l 117 0 b 246 165 232 0 246 108 l 246 860 b 439 890 310 890 410 890 b 790 479 725 890 790 624 b 508 60 790 281 710 60 b 374 126 393 60 374 126 b 311 74 374 126 311 126 b 494 -10 311 24 376 -10 b 901 479 810 -10 901 296 z "},"E":{"ha":886,"x_min":0,"x_max":0,"o":"m 597 949 b 261 940 526 949 329 940 l 64 940 l 64 900 l 107 900 b 174 835 164 900 174 860 l 174 113 b 107 50 174 68 136 50 l 61 50 l 61 0 l 536 0 b 810 143 671 0 810 24 b 735 224 810 185 775 224 b 506 63 735 200 688 63 b 274 114 408 63 274 64 l 274 457 l 414 457 b 503 394 476 457 503 432 b 592 475 542 394 592 435 b 511 528 592 496 581 528 l 274 528 l 274 819 b 489 888 274 879 399 888 b 690 708 646 888 690 833 b 772 817 736 708 772 765 b 597 949 771 913 742 949 z "},"F":{"ha":724,"x_min":0,"x_max":0,"o":"m 250 821 b 461 890 250 881 371 890 b 663 708 618 890 663 833 b 746 817 719 708 746 765 b 556 956 744 913 708 956 b 236 940 485 956 304 940 l 39 940 l 39 900 l 82 900 b 149 835 139 900 149 860 l 149 103 b 76 42 149 78 128 42 l 38 42 l 38 0 l 389 0 l 389 42 l 344 42 b 250 118 276 42 250 85 l 250 450 l 415 450 b 515 371 471 450 515 408 b 599 468 553 371 599 428 b 515 521 599 507 554 521 l 250 521 z "},"G":{"ha":1017,"x_min":0,"x_max":0,"o":"m 546 -22 b 857 0 697 -22 710 0 l 940 0 l 940 42 l 918 42 b 867 147 867 42 867 115 l 867 314 b 917 381 867 358 892 381 l 979 381 l 979 425 l 624 425 l 624 381 l 685 381 b 767 307 757 381 767 340 l 767 153 b 576 47 767 76 697 47 b 183 463 417 47 183 158 b 590 893 183 694 331 893 b 792 667 761 893 792 803 b 883 789 819 667 883 685 b 556 960 883 939 728 960 b 69 463 354 960 69 835 b 546 -22 69 190 261 -22 z "},"H":{"ha":1044,"x_min":0,"x_max":0,"o":"m 936 900 l 988 900 l 988 940 l 657 940 l 657 900 l 707 900 b 767 829 742 900 767 875 l 767 561 b 744 538 767 554 764 538 l 281 538 b 263 563 263 538 263 563 l 263 833 b 322 900 263 861 275 900 l 372 900 l 372 940 l 51 940 l 51 900 l 97 900 b 161 829 142 900 161 871 l 161 121 b 93 42 161 78 143 42 l 51 42 l 51 0 l 372 0 l 372 42 l 329 42 b 263 121 278 42 263 83 l 263 436 b 281 460 263 436 263 460 l 744 460 b 767 435 764 457 767 446 l 767 121 b 693 42 767 106 761 42 l 657 42 l 657 0 l 988 0 l 988 42 l 940 42 b 868 121 885 42 868 85 l 868 833 b 936 900 868 874 897 900 z "},"I":{"ha":435,"x_min":0,"x_max":0,"o":"m 268 840 b 328 900 268 872 293 900 l 374 900 l 374 940 l 58 940 l 58 900 l 99 900 b 167 840 136 900 167 879 l 167 118 b 99 42 167 75 143 42 l 60 42 l 60 0 l 374 0 l 374 42 l 335 42 b 268 118 306 42 268 68 z "},"J":{"ha":436,"x_min":0,"x_max":0,"o":"m 281 840 b 340 900 281 872 306 900 l 386 900 l 386 940 l 57 940 l 57 900 l 111 900 b 179 840 149 900 179 879 l 179 101 b 69 -136 179 -24 171 -136 b -28 -43 -14 -136 -28 -43 b -90 -108 -28 -43 -90 -42 b 65 -206 -90 -175 -32 -206 b 281 167 215 -206 281 -103 z "},"K":{"ha":931,"x_min":0,"x_max":0,"o":"m 692 282 b 469 494 636 403 532 482 b 739 814 560 499 699 751 b 846 900 764 854 797 900 b 867 900 846 900 847 900 l 867 940 l 601 940 l 601 900 l 622 900 b 657 874 649 899 657 889 b 646 835 657 863 654 853 b 518 629 643 828 563 690 b 318 521 485 582 421 521 l 243 521 l 243 836 b 297 890 243 863 256 890 l 335 890 l 335 940 l 32 940 l 32 890 l 81 890 b 143 836 118 890 143 871 l 143 110 b 72 42 143 71 106 42 l 32 42 l 32 0 l 344 0 l 344 42 l 299 42 b 243 110 257 42 243 85 l 243 410 b 335 449 243 439 285 449 b 650 143 499 449 592 261 b 800 -10 696 53 728 -10 b 882 47 853 -10 882 8 l 882 56 b 692 282 828 56 765 131 z "},"L":{"ha":733,"x_min":0,"x_max":0,"o":"m 246 838 b 314 900 246 878 281 900 l 369 900 l 369 940 l 36 940 l 36 900 l 72 900 b 144 832 139 900 144 851 l 144 113 b 74 50 144 88 125 50 l 33 50 l 33 0 l 457 0 b 724 158 593 0 724 31 b 654 233 724 203 690 233 b 617 228 639 233 621 231 b 622 190 617 228 622 219 b 419 61 622 101 503 61 b 246 121 264 61 246 81 z "},"M":{"ha":1397,"x_min":0,"x_max":0,"o":"m 1344 42 l 1313 42 b 1214 142 1264 42 1221 79 b 1146 840 1154 722 1147 817 b 1222 900 1146 881 1176 900 l 1269 900 l 1269 940 l 1114 940 b 949 794 1010 940 963 829 b 694 163 867 597 797 401 b 418 822 600 406 511 594 b 265 940 381 915 347 940 l 110 940 l 110 900 l 160 900 b 231 835 214 900 229 869 l 174 136 b 68 42 171 101 142 42 l 43 42 l 43 0 l 329 0 l 329 42 l 314 42 b 264 121 276 42 264 72 b 319 789 264 149 311 789 b 413 578 324 789 346 736 b 617 68 467 450 617 133 b 608 19 617 42 613 28 b 647 0 608 13 625 0 b 742 64 685 0 718 13 b 939 532 822 239 889 408 b 1047 786 1000 685 1042 786 b 1049 746 1049 786 1049 761 b 1088 328 1054 678 1074 478 b 1108 104 1099 214 1108 113 b 1060 42 1108 78 1100 42 l 1044 42 l 1044 0 l 1344 0 z "},"N":{"ha":1033,"x_min":0,"x_max":0,"o":"m 156 121 b 81 42 156 81 131 42 l 46 42 l 46 0 l 374 0 l 374 42 l 331 42 b 247 131 263 42 247 96 l 247 778 b 764 33 247 778 728 81 b 842 -10 786 3 818 -10 b 929 18 867 -10 906 -10 b 871 126 917 18 871 53 l 871 831 b 939 900 871 860 886 900 l 978 900 l 978 940 l 668 940 l 668 900 l 717 900 b 781 818 760 900 781 867 l 781 179 l 343 826 b 158 940 297 893 264 940 l 40 940 l 40 900 l 65 900 b 156 818 140 900 156 854 z "},"O":{"ha":1021,"x_min":0,"x_max":0,"o":"m 507 -24 b 968 467 801 -24 968 204 b 503 960 968 739 811 960 b 44 467 214 960 44 750 b 507 -24 44 196 244 -24 z m 157 467 b 500 894 160 679 261 894 b 856 467 731 894 856 704 b 510 46 856 232 726 46 b 157 467 285 47 157 244 z "},"P":{"ha":788,"x_min":0,"x_max":0,"o":"m 439 963 b 144 940 331 963 276 942 l 28 940 l 28 899 l 64 899 b 147 824 114 899 147 872 l 147 107 b 71 42 147 71 114 42 l 28 42 l 28 0 l 385 0 l 385 42 l 346 42 b 249 126 306 42 249 54 l 249 851 b 418 899 281 881 358 899 b 675 646 617 899 675 761 b 474 407 675 528 607 407 b 374 476 394 407 374 458 b 317 425 342 475 317 450 b 465 342 317 365 393 342 b 779 651 642 342 779 478 b 439 963 779 810 697 963 z "},"Q":{"ha":1033,"x_min":0,"x_max":0,"o":"m 972 457 b 508 960 972 774 781 960 b 38 453 242 960 38 749 b 297 35 38 246 165 35 b 340 74 339 35 340 74 b 149 453 217 111 149 292 b 507 889 149 711 290 889 b 860 457 719 889 860 729 b 489 47 860 168 669 47 b 363 -33 381 47 363 0 b 381 -90 363 -64 381 -90 b 515 -31 381 -90 432 -31 b 886 -165 636 -31 768 -165 b 979 -58 979 -165 979 -76 b 899 -71 978 -58 958 -71 b 658 13 828 -71 721 -12 b 972 457 826 56 972 244 z "},"R":{"ha":931,"x_min":0,"x_max":0,"o":"m 742 225 b 563 426 700 300 638 408 b 771 686 643 438 771 539 b 424 961 771 836 664 961 b 158 940 319 961 267 940 l 25 940 l 25 900 l 65 900 b 144 838 114 900 144 876 l 144 126 b 65 42 144 71 118 42 l 25 42 l 25 0 l 375 0 l 375 42 l 324 42 b 246 126 276 42 246 75 l 246 860 b 415 899 289 885 364 899 b 661 674 606 899 661 781 b 444 467 661 593 597 467 b 364 489 399 467 364 489 b 349 439 354 475 349 454 b 417 392 349 404 394 392 b 671 140 539 392 617 242 b 821 -19 721 46 754 -19 b 903 38 864 -19 903 -1 l 903 46 b 742 225 849 46 826 71 z "},"S":{"ha":750,"x_min":0,"x_max":0,"o":"m 363 425 b 593 214 588 331 593 261 b 375 49 593 169 561 49 b 125 269 144 49 125 269 b 50 169 125 269 50 257 b 360 -22 50 92 144 -22 b 694 225 571 -22 694 97 b 186 729 694 526 186 489 b 378 896 186 822 271 896 b 571 665 493 896 571 838 b 663 774 608 665 663 688 b 378 960 663 868 571 960 b 85 724 188 960 85 831 b 363 425 85 626 113 531 z "},"T":{"ha":757,"x_min":0,"x_max":0,"o":"m 747 882 b 669 950 747 911 733 950 b 378 943 629 950 407 943 b 178 947 279 943 228 947 b 49 932 133 947 79 947 b 8 857 8 911 8 875 b 53 768 8 817 35 768 b 271 883 64 800 89 883 b 326 818 318 883 326 854 l 326 122 b 240 42 326 72 282 42 l 193 42 l 193 0 l 564 0 l 564 42 l 513 42 b 428 122 461 42 428 79 l 428 824 b 481 882 428 853 439 882 b 693 743 565 882 693 882 b 747 882 742 743 747 843 z "},"U":{"ha":1006,"x_min":0,"x_max":0,"o":"m 910 900 l 961 900 l 961 940 l 631 940 l 631 900 l 667 900 b 740 824 725 900 740 865 l 740 303 b 450 65 740 235 626 65 b 236 354 303 65 236 176 l 236 843 b 296 900 236 888 276 900 l 346 900 l 346 940 l 25 940 l 25 900 l 61 900 b 135 828 121 900 135 865 l 135 338 b 451 -10 135 140 222 -10 b 740 150 594 -10 693 89 l 740 121 b 860 0 740 43 788 0 l 961 0 l 961 43 l 915 43 b 842 140 864 43 842 79 l 842 843 b 910 900 842 883 883 900 z "},"V":{"ha":829,"x_min":0,"x_max":0,"o":"m 824 863 b 742 961 824 919 797 961 b 679 946 732 961 693 957 b 708 857 700 917 708 888 b 692 772 708 829 701 801 b 433 135 661 676 535 354 b 192 811 422 156 354 360 b 188 835 189 819 188 828 b 258 900 188 871 206 900 l 294 900 l 294 940 l -68 940 l -68 900 l -36 900 b 96 774 46 900 76 825 l 339 115 b 347 67 344 99 347 82 b 324 8 347 46 342 26 b 385 -17 324 0 357 -17 b 493 67 418 -17 463 0 b 749 639 565 224 703 532 b 824 863 781 714 824 815 z "},"W":{"ha":1522,"x_min":0,"x_max":0,"o":"m 1125 58 b 1340 711 1194 229 1292 546 l 1365 793 b 1490 900 1389 869 1424 899 l 1490 940 l 1132 940 l 1132 900 l 1174 900 b 1272 821 1251 900 1272 864 b 1265 776 1271 804 1271 796 b 1065 140 1232 657 1114 256 b 833 881 1032 228 871 792 b 754 940 817 918 799 940 b 672 904 700 940 678 911 b 729 826 714 888 729 860 b 717 768 729 808 724 788 b 464 146 688 672 565 369 b 286 810 424 272 307 715 b 282 835 283 818 282 826 b 353 900 282 871 308 900 l 381 900 l 381 940 l 25 940 l 25 900 l 57 900 b 189 775 146 900 178 826 b 374 117 249 558 314 333 b 385 61 376 104 385 76 b 360 8 385 38 382 29 b 411 -17 360 0 383 -17 b 518 54 460 -17 497 13 b 788 707 572 181 710 514 b 964 153 846 517 906 343 b 989 57 971 128 989 69 b 965 8 989 38 985 28 b 1025 -17 965 0 999 -17 b 1125 58 1075 -17 1107 14 z "},"X":{"ha":903,"x_min":0,"x_max":0,"o":"m 689 194 b 504 489 651 253 590 350 b 710 808 588 611 663 732 b 842 900 746 867 794 900 l 874 900 l 874 940 l 535 940 l 535 900 l 561 900 b 624 860 597 900 624 888 b 460 564 624 833 556 721 b 282 860 351 742 282 829 b 340 900 282 889 311 900 l 376 900 l 376 940 l 17 940 l 17 900 l 50 900 b 185 810 113 900 154 854 b 400 475 185 810 328 588 b 22 42 254 254 128 42 l -18 42 l -18 0 l 379 0 l 379 42 l 314 42 b 254 86 281 42 254 58 b 446 403 254 124 263 124 b 653 71 569 203 607 138 b 800 -25 701 0 751 -25 b 890 38 875 -25 890 38 b 863 38 890 38 879 38 b 689 194 829 38 765 79 z "},"Y":{"ha":817,"x_min":0,"x_max":0,"o":"m 510 940 l 510 899 l 536 899 b 599 853 576 899 599 881 b 589 817 599 842 596 829 b 407 490 576 789 447 563 b 193 857 310 664 261 747 b 47 960 133 950 106 960 b -42 894 -8 960 -42 894 b -3 903 -33 899 -19 903 b 143 767 56 903 117 810 b 346 393 192 689 346 438 l 346 118 b 260 42 346 83 317 42 l 210 42 l 210 0 l 594 0 l 594 42 l 536 42 b 447 118 485 42 447 75 l 447 411 b 685 808 469 453 579 642 b 817 899 721 865 763 899 l 838 899 l 838 940 z "},"Z":{"ha":864,"x_min":0,"x_max":0,"o":"m 804 900 l 832 900 l 832 940 l 550 940 b 68 876 147 940 108 936 b 46 775 53 851 46 810 b 115 668 46 721 76 668 b 450 889 115 840 290 889 b 601 865 493 889 601 889 b 586 819 601 854 601 840 l 122 103 b 22 42 107 79 65 42 l 3 42 l 3 0 l 178 0 b 604 -22 329 0 469 -22 b 813 117 785 -22 813 58 b 750 193 813 153 790 193 b 718 183 740 193 728 193 b 526 44 718 100 636 44 b 244 103 410 44 244 49 b 269 161 244 125 260 146 b 692 810 351 289 574 639 b 804 900 724 857 758 900 z "},"[":{"ha":371,"x_min":0,"x_max":0,"o":"m 378 -232 l 378 -162 l 231 -162 b 206 -133 206 -162 206 -149 l 206 917 b 235 946 206 917 204 946 l 381 946 l 381 1017 l 158 1017 b 100 964 121 1017 101 985 l 100 35 b 99 -186 100 -74 100 -128 b 147 -232 99 -204 107 -232 z "},"\\":{"ha":488,"x_min":0,"x_max":0,"o":"m 382 -47 b 460 -103 400 -97 429 -103 l 490 -103 l 88 1044 b 24 1082 75 1074 44 1082 b -14 1076 6 1082 -14 1076 z "},"]":{"ha":363,"x_min":0,"x_max":0,"o":"m 221 -232 b 269 -186 261 -232 269 -204 b 268 35 268 -128 268 -74 l 268 964 b 210 1017 267 985 247 1017 l -12 1017 l -12 946 l 133 946 b 163 917 164 946 163 917 l 163 -133 b 138 -162 163 -149 163 -162 l -10 -162 l -10 -232 z "},"^":{"ha":567,"x_min":0,"x_max":0,"o":"m 315 953 b 286 976 308 967 303 976 b 242 935 268 976 258 964 l -6 506 b 44 490 8 494 29 490 b 108 529 64 490 93 501 l 283 846 l 449 531 b 513 482 465 499 488 482 b 567 506 529 482 553 493 z "},"_":{"ha":963,"x_min":0,"x_max":0,"o":"m 179 -67 b 79 -93 154 -67 100 -71 b 49 -168 50 -121 49 -168 b 179 -153 49 -168 119 -153 l 831 -153 b 926 -44 926 -153 926 -44 b 814 -67 926 -44 865 -67 z "},"`":{"ha":301,"x_min":0,"x_max":0,"o":"m 56 992 b 246 792 56 949 190 792 b 260 806 254 792 260 799 b 229 838 260 808 233 835 b 146 1031 183 893 165 969 b 125 1049 140 1043 135 1049 b 56 992 111 1049 78 1028 z "},"a":{"ha":711,"x_min":0,"x_max":0,"o":"m 667 36 b 596 140 614 36 596 75 l 596 453 b 346 690 596 632 499 690 b 103 544 207 690 103 629 b 171 471 103 472 171 471 b 346 631 171 538 210 631 b 503 453 500 631 503 515 l 503 388 l 414 388 b 47 178 211 388 47 349 b 271 -10 47 38 185 -10 b 436 71 422 -10 436 42 b 407 110 436 92 413 110 b 275 47 407 110 368 47 b 144 176 215 47 144 86 b 413 328 144 289 242 328 l 503 328 l 503 115 b 617 0 503 76 506 0 l 688 0 l 688 36 z "},"b":{"ha":857,"x_min":0,"x_max":0,"o":"m 457 671 b 229 546 350 671 269 611 l 229 869 b 149 976 229 924 229 976 l 26 976 l 26 940 l 53 940 b 136 856 117 940 136 910 l 136 125 b 54 36 136 85 128 36 l 26 36 l 26 0 l 131 0 b 229 108 215 0 229 68 l 229 342 b 457 608 229 476 322 608 b 671 326 604 608 671 478 b 460 44 671 172 593 44 b 347 100 379 44 347 100 b 306 58 325 100 306 81 b 460 -15 306 28 342 -15 b 771 326 675 -15 771 192 b 457 671 771 504 685 671 z "},"c":{"ha":668,"x_min":0,"x_max":0,"o":"m 379 625 b 539 456 515 625 539 578 b 619 544 579 456 619 478 b 376 689 619 658 536 689 b 40 331 144 689 40 500 b 360 -17 40 161 153 -17 b 614 113 550 -17 614 60 b 569 169 614 136 600 153 b 371 46 547 132 497 46 b 140 331 239 46 140 172 b 379 625 140 492 240 625 z "},"d":{"ha":871,"x_min":0,"x_max":0,"o":"m 704 865 b 606 976 704 939 681 976 l 500 976 l 500 940 l 536 940 b 608 856 606 940 608 890 l 608 576 b 397 671 575 633 489 671 b 69 322 154 671 69 482 b 374 -15 69 136 197 -15 b 536 53 415 -15 536 -11 b 515 97 536 74 515 97 b 383 43 508 89 463 43 b 168 319 253 43 168 172 b 397 611 168 467 247 611 b 608 372 538 611 608 511 l 608 111 b 714 0 608 33 665 0 l 817 0 l 817 36 l 775 36 b 704 126 728 36 704 78 z "},"e":{"ha":765,"x_min":0,"x_max":0,"o":"m 567 304 b 685 406 650 304 685 304 b 400 690 685 574 565 690 b 63 324 176 690 63 529 b 386 -17 63 168 157 -17 b 647 114 568 -17 647 53 b 604 167 647 131 626 158 b 386 44 575 119 522 44 b 158 324 247 44 158 185 b 396 629 158 476 233 629 b 593 404 532 629 593 521 b 550 367 593 375 579 367 l 381 367 b 258 324 322 367 258 367 b 275 276 258 315 264 288 b 567 304 319 304 350 304 z "},"f":{"ha":542,"x_min":0,"x_max":0,"o":"m 372 1001 b 150 726 283 1001 150 963 b 68 656 150 726 150 656 l 42 656 l 42 600 l 150 600 l 150 117 b 75 36 150 81 136 36 l 42 36 l 42 0 l 351 0 l 351 36 l 322 36 b 242 117 260 36 242 76 l 242 600 l 292 600 b 429 543 378 600 429 583 b 478 611 429 543 478 567 b 415 656 478 644 451 656 l 242 656 l 242 740 b 372 943 242 867 281 943 b 482 824 475 943 482 863 b 547 894 501 824 547 824 b 372 1001 547 975 461 1001 z "},"g":{"ha":806,"x_min":0,"x_max":0,"o":"m 682 656 b 585 576 625 656 585 636 l 585 560 b 371 661 553 617 474 661 b 43 326 153 661 43 504 b 354 6 43 139 183 6 b 506 72 463 6 506 35 b 478 113 506 104 478 113 b 351 69 435 72 388 69 b 142 324 254 69 142 163 b 369 599 142 465 211 599 b 585 356 511 599 585 493 l 585 21 b 376 -228 585 -121 513 -228 b 197 -85 256 -228 197 -149 b 124 -160 197 -85 124 -89 b 376 -290 124 -208 189 -290 b 675 29 579 -290 675 -142 l 675 517 b 754 619 675 596 697 619 l 786 619 l 786 656 z "},"h":{"ha":822,"x_min":0,"x_max":0,"o":"m 774 36 b 701 113 722 36 701 79 l 701 449 b 460 676 701 600 614 676 b 228 558 350 676 267 622 l 228 883 b 132 976 228 940 197 976 l 35 976 l 35 940 l 72 940 b 133 869 115 940 133 903 l 133 97 b 65 36 133 74 121 36 l 35 36 l 35 0 l 310 0 l 310 36 l 286 36 b 228 106 260 36 228 60 l 228 344 b 446 608 228 478 304 608 b 607 417 543 608 607 550 l 607 111 b 703 0 607 64 629 0 l 801 0 l 801 36 z "},"i":{"ha":388,"x_min":0,"x_max":0,"o":"m 264 883 b 196 942 264 921 236 942 b 129 883 160 942 129 921 b 196 828 129 849 161 828 b 264 883 233 828 264 847 z m 321 35 b 246 111 289 35 246 60 l 246 546 b 146 654 246 614 225 654 l 50 654 l 50 618 l 83 618 b 154 546 132 618 154 592 l 154 111 b 79 35 154 56 111 35 l 46 35 l 46 -1 l 354 -1 l 354 35 z "},"j":{"ha":440,"x_min":0,"x_max":0,"o":"m 307 -49 l 307 543 b 211 656 307 578 304 656 l 107 656 l 107 619 l 143 619 b 215 518 210 619 215 565 l 215 -44 b 128 -233 215 -137 199 -233 b 51 -136 63 -233 51 -164 b -8 -194 24 -136 -8 -154 b 133 -293 -8 -253 43 -293 b 307 -49 224 -293 307 -228 z m 325 885 b 257 943 325 922 299 943 b 190 885 222 943 190 922 b 257 829 190 850 224 829 b 325 885 296 829 325 849 z "},"k":{"ha":739,"x_min":0,"x_max":0,"o":"m 742 35 b 569 199 690 35 647 58 b 406 365 504 317 433 360 b 556 519 475 403 517 464 b 682 621 590 569 628 621 l 706 621 l 706 656 l 418 656 l 418 621 l 446 621 b 494 579 472 619 494 603 b 479 533 494 564 486 543 b 276 388 422 449 368 388 l 217 388 l 217 857 b 103 976 217 913 204 976 l 24 976 l 24 940 l 61 940 b 124 857 113 940 124 901 l 124 113 b 56 36 124 54 82 36 l 22 36 l 22 0 l 307 0 l 307 36 l 272 36 b 217 111 233 36 217 68 l 217 326 l 276 326 b 519 115 396 326 469 210 b 667 -25 569 21 617 -25 b 742 35 711 -25 742 -1 z "},"l":{"ha":407,"x_min":0,"x_max":0,"o":"m 283 49 b 194 196 221 49 194 111 l 194 882 b 104 974 194 932 165 974 l -6 974 l -6 940 l 31 940 b 103 863 67 940 103 924 l 103 206 b 279 -14 103 28 192 -14 b 425 86 368 -14 425 26 b 375 133 425 126 375 133 b 283 49 369 96 342 50 z "},"m":{"ha":1246,"x_min":0,"x_max":0,"o":"m 1161 36 b 1093 117 1117 36 1093 83 l 1093 456 b 858 683 1093 569 1033 683 b 654 544 754 683 686 613 b 454 683 631 614 576 683 b 250 556 360 683 281 621 b 165 656 250 614 233 656 l 51 656 l 51 622 l 90 622 b 161 550 143 622 161 582 l 161 111 b 90 36 161 83 147 36 l 51 36 l 51 0 l 342 0 l 342 36 l 321 36 b 253 106 268 36 253 72 l 253 331 b 446 617 253 485 308 617 b 581 394 546 617 581 544 l 581 106 b 524 36 581 72 567 36 l 499 36 l 499 0 l 763 0 l 763 36 l 742 36 b 672 106 689 36 672 72 l 672 368 b 858 617 672 496 739 617 b 1000 401 965 617 1000 551 l 1000 125 b 1111 0 1000 65 1022 0 l 1183 0 l 1183 36 z "},"n":{"ha":825,"x_min":0,"x_max":0,"o":"m 775 36 b 693 125 710 36 693 92 l 693 449 b 451 681 693 581 618 681 b 219 554 338 681 254 614 b 124 656 219 608 204 656 l 32 656 l 32 622 l 64 622 b 132 547 122 622 132 579 l 132 97 b 68 36 132 58 94 36 l 32 36 l 32 0 l 306 0 l 306 36 l 278 36 b 224 106 239 36 224 72 l 224 333 b 438 614 224 508 318 614 b 600 417 539 614 600 558 l 600 124 b 706 0 600 58 631 0 l 794 0 l 794 36 z "},"o":{"ha":781,"x_min":0,"x_max":0,"o":"m 143 328 b 390 625 143 463 200 625 b 629 328 579 625 629 471 b 390 40 629 185 564 40 b 143 328 208 40 143 185 z m 49 328 b 390 -24 49 163 144 -24 b 722 328 638 -24 722 163 b 390 689 722 496 647 689 b 49 328 124 689 49 496 z "},"p":{"ha":824,"x_min":0,"x_max":0,"o":"m 467 664 b 228 526 361 664 274 601 l 228 569 b 135 656 228 621 188 656 l 25 656 l 25 621 l 64 621 b 136 539 122 621 136 581 l 136 -186 b 76 -256 136 -208 124 -256 l 44 -256 l 44 -293 l 354 -293 l 354 -256 l 313 -256 b 228 -171 253 -256 228 -212 l 228 335 b 467 601 228 469 338 601 b 658 314 601 601 658 474 b 463 35 658 153 574 35 b 335 93 367 35 335 93 b 308 44 335 93 308 76 b 457 -25 308 11 346 -25 b 751 318 633 -25 751 153 b 467 664 751 474 703 664 z "},"q":{"ha":826,"x_min":0,"x_max":0,"o":"m 594 -200 b 683 -293 594 -250 621 -293 l 794 -293 l 794 -260 l 757 -260 b 685 -181 697 -260 685 -214 l 685 538 b 763 619 685 581 701 619 l 796 619 l 796 656 l 686 656 b 599 589 649 656 599 639 l 599 554 b 383 665 560 614 485 665 b 60 322 164 665 60 500 b 368 3 60 164 179 3 b 535 76 529 3 535 54 b 515 117 535 96 515 117 b 372 64 514 114 472 64 b 160 324 257 64 160 174 b 381 606 160 490 249 606 b 594 356 511 606 594 501 z "},"r":{"ha":522,"x_min":0,"x_max":0,"o":"m 378 676 b 207 563 307 676 235 625 b 114 656 203 622 174 656 l 15 656 l 15 619 l 47 619 b 115 535 83 619 115 600 l 115 111 b 53 36 115 83 104 36 l 15 36 l 15 0 l 289 0 l 289 36 l 268 36 b 207 119 218 36 207 81 l 207 347 b 372 619 207 490 271 619 b 454 539 431 619 454 581 b 438 488 454 521 443 492 b 475 469 438 488 446 469 b 535 546 515 469 535 511 b 378 676 535 618 492 676 z "},"s":{"ha":638,"x_min":0,"x_max":0,"o":"m 492 143 b 325 39 492 99 439 39 b 125 168 164 39 125 168 b 56 106 125 168 56 167 b 318 -25 56 36 178 -25 b 585 168 471 -25 585 44 b 158 518 585 388 158 331 b 326 624 158 586 236 624 b 486 463 415 624 486 588 b 560 544 500 463 560 471 b 326 685 560 618 499 685 b 67 506 156 685 67 596 b 492 143 67 261 492 338 z "},"t":{"ha":475,"x_min":0,"x_max":0,"o":"m 392 140 b 297 47 392 140 374 47 b 210 201 225 47 210 124 l 210 604 l 344 604 b 436 661 404 604 436 628 b 394 703 436 686 418 699 b 210 656 394 688 372 656 l 210 783 l 154 783 b 18 656 151 675 94 656 l 18 604 l 118 604 l 118 201 b 288 -15 118 42 199 -15 b 440 86 381 -15 440 36 b 392 140 440 138 392 140 z "},"u":{"ha":822,"x_min":0,"x_max":0,"o":"m 768 36 b 685 115 703 36 685 76 l 685 576 b 603 656 685 599 675 656 l 508 656 l 508 619 b 593 528 593 619 593 571 l 593 326 b 371 40 593 181 497 40 b 221 244 271 40 221 103 l 221 558 b 128 656 221 625 176 656 l 19 656 l 19 619 l 42 619 b 129 526 117 619 129 569 l 129 199 b 357 -18 129 76 190 -18 b 593 125 468 -18 553 46 l 593 82 b 690 0 593 25 633 0 l 793 0 l 793 36 z "},"v":{"ha":649,"x_min":0,"x_max":0,"o":"m 551 685 b 500 665 521 685 500 665 b 526 586 525 644 526 614 b 347 119 526 474 388 196 b 197 526 317 189 200 515 b 186 572 192 539 186 558 b 236 619 186 600 199 619 l 261 619 l 261 656 l -15 656 l -15 619 l 3 619 b 90 553 44 619 72 593 b 275 79 181 350 267 104 b 278 60 276 72 278 65 b 249 1 278 22 249 1 b 303 -25 257 -12 275 -25 b 388 60 344 -25 371 24 b 619 611 469 233 619 514 b 551 685 619 656 607 685 z "},"w":{"ha":1101,"x_min":0,"x_max":0,"o":"m 713 56 b 688 0 713 10 688 0 b 747 -24 688 0 697 -24 b 885 131 822 -24 863 71 b 1044 606 960 331 1044 526 b 967 703 1044 664 1021 703 b 904 682 933 703 904 682 b 946 611 935 669 946 625 b 921 475 946 588 946 564 b 792 113 876 325 828 188 b 628 601 757 213 628 601 b 553 667 615 636 599 667 b 503 640 525 667 503 640 b 522 589 521 625 522 613 b 338 115 522 522 396 238 b 211 567 315 196 211 540 b 267 619 211 593 229 619 l 293 619 l 293 656 l 10 656 l 10 619 l 26 619 b 113 553 64 619 96 596 b 239 147 154 444 219 213 b 260 50 246 121 260 82 b 235 0 260 29 251 6 b 293 -25 257 -24 268 -25 b 379 36 342 -25 367 14 b 579 475 453 165 517 328 b 713 56 650 281 713 99 z "},"x":{"ha":728,"x_min":0,"x_max":0,"o":"m 557 133 b 410 342 532 168 467 256 b 564 567 458 414 514 494 b 663 619 590 600 615 619 l 686 619 l 686 656 l 403 656 l 403 619 l 432 619 b 482 583 465 619 482 608 b 372 400 482 560 422 469 l 256 583 b 131 671 221 631 189 671 b 31 611 57 671 31 611 b 193 518 122 611 142 586 b 321 335 232 467 286 389 l 278 274 b 47 36 207 172 124 36 l 19 36 l 19 0 l 311 0 l 311 36 l 279 36 b 229 64 243 38 229 47 b 240 96 229 72 231 82 b 361 276 263 131 317 214 l 506 57 b 618 -17 544 0 583 -17 b 699 24 681 -17 701 24 b 557 133 685 24 629 31 z "},"y":{"ha":726,"x_min":0,"x_max":0,"o":"m 449 656 l 449 619 b 557 571 538 619 557 601 b 393 57 557 515 451 214 b 332 122 376 61 353 72 b 176 575 304 188 204 501 b 69 664 156 629 132 664 b -4 619 31 664 -4 646 b 100 515 60 619 83 560 b 256 96 146 393 207 204 b 372 0 282 38 325 0 b 210 -235 346 -68 304 -235 b 122 -99 132 -235 122 -153 b 46 -176 122 -99 46 -108 b 200 -293 46 -228 89 -293 b 456 -7 332 -293 401 -161 b 642 529 543 239 615 446 b 736 619 664 600 699 619 l 736 656 z "},"z":{"ha":751,"x_min":0,"x_max":0,"o":"m 321 53 b 260 75 286 53 260 56 b 269 104 260 83 263 93 b 568 558 278 122 468 418 b 665 619 600 603 635 619 l 689 619 l 689 661 b 567 657 689 661 629 657 b 289 663 468 657 385 663 b 67 540 161 663 67 626 b 144 449 67 490 107 449 b 142 475 142 460 142 465 b 332 611 142 575 253 611 b 449 610 357 611 425 610 b 478 594 468 610 478 608 b 322 325 478 557 383 414 b 65 36 194 139 117 36 l 46 36 l 46 0 b 78 0 46 0 57 0 b 524 -7 425 0 446 -7 b 689 115 628 -7 689 54 b 640 178 689 165 640 178 b 438 53 625 108 572 53 z "},"{":{"ha":489,"x_min":0,"x_max":0,"o":"m 49 346 b 161 186 140 346 161 301 b 157 36 161 129 157 83 b 363 -265 157 -125 189 -265 b 489 -203 422 -265 489 -247 b 471 -164 489 -187 488 -181 b 378 -201 454 -185 408 -201 b 272 53 311 -201 272 -144 b 165 382 272 269 271 344 b 274 689 272 428 274 531 b 383 943 274 886 317 943 b 472 901 414 943 456 922 b 490 944 489 918 490 929 b 382 1007 490 989 428 1007 b 164 658 167 1007 164 828 b -12 408 164 465 132 417 b 49 346 -12 383 -12 346 z "},"|":{"ha":286,"x_min":0,"x_max":0,"o":"m 196 1003 l 103 1003 l 103 -247 l 196 -247 z "},"}":{"ha":489,"x_min":0,"x_max":0,"o":"m 429 346 b 490 408 490 346 490 383 b 314 658 346 417 314 465 b 96 1007 314 828 311 1007 b -12 944 50 1007 -12 989 b 6 901 -12 929 -11 918 b 94 943 22 922 64 943 b 204 689 161 943 204 886 b 313 382 204 531 206 428 b 206 53 207 344 206 269 b 100 -201 206 -144 167 -201 b 7 -164 69 -201 24 -185 b -11 -203 -10 -181 -11 -187 b 115 -265 -11 -247 56 -265 b 321 36 289 -265 321 -125 b 317 186 321 83 317 129 b 429 346 317 301 338 346 z "},"~":{"ha":817,"x_min":0,"x_max":0,"o":"m 263 408 b 585 308 369 408 454 308 b 717 407 675 308 717 353 b 651 469 717 438 696 469 b 565 376 647 407 608 376 b 253 475 465 376 393 475 b 104 369 157 475 104 431 b 160 306 104 310 160 306 b 263 408 160 306 174 408 z "}," ":{"ha":444,"x_min":0,"x_max":0,"o":""},"А":{"ha":829,"x_min":0,"x_max":0,"o":"m 840 42 b 750 122 817 42 771 65 b 501 808 750 122 521 753 b 350 960 474 886 438 960 b 274 918 299 960 274 932 b 325 849 285 917 325 910 b 78 274 325 772 208 532 b 1 67 42 203 1 125 b 74 -24 1 42 8 -24 b 154 10 131 -24 154 3 b 119 93 133 11 119 43 b 194 311 119 143 163 244 l 574 311 b 644 110 585 282 626 161 b 650 79 649 99 650 89 b 608 42 650 60 635 43 l 575 42 l 575 0 l 875 0 l 875 42 z m 231 390 b 406 785 339 606 382 729 b 547 390 453 656 499 519 z "},"Б":{"ha":851,"x_min":0,"x_max":0,"o":"m 397 900 b 649 708 617 900 649 833 b 733 817 678 708 733 726 b 483 958 733 933 646 958 b 178 940 388 958 279 940 l 26 940 l 26 900 l 72 900 b 146 826 131 900 146 863 l 146 133 b 57 43 146 89 115 43 l 26 43 l 26 0 l 158 0 b 438 -12 260 0 329 -12 b 796 300 664 -12 796 142 b 490 579 796 481 676 579 b 328 500 438 579 328 561 b 379 449 328 481 340 449 b 499 514 379 468 421 514 b 692 301 611 514 692 450 b 413 51 692 185 593 51 b 247 121 322 51 247 69 l 247 828 b 397 900 247 881 311 900 z "},"В":{"ha":886,"x_min":0,"x_max":0,"o":"m 782 704 b 451 960 782 826 710 960 b 301 950 394 960 346 956 b 167 940 260 946 213 940 l 33 940 l 33 899 l 83 899 b 144 836 115 899 144 878 l 144 107 b 69 42 144 76 122 42 l 33 42 l 33 0 l 497 0 b 829 274 728 0 829 122 b 651 506 829 411 735 485 b 782 704 728 543 782 600 z m 478 65 b 244 100 282 65 249 96 l 244 858 b 425 894 289 883 372 894 b 674 696 635 894 674 783 b 488 524 674 599 599 524 b 397 531 456 524 397 531 b 376 493 397 531 376 513 b 442 440 376 457 400 440 b 543 449 471 440 517 449 b 721 264 688 449 721 335 b 478 65 721 185 658 65 z "},"Г":{"ha":661,"x_min":0,"x_max":0,"o":"m 425 960 b 167 940 343 960 246 940 l 25 940 l 25 900 l 54 900 b 133 824 100 900 133 883 l 133 121 b 54 42 133 89 108 42 l 22 42 l 22 0 l 381 0 l 381 42 l 335 42 b 235 136 268 42 235 78 l 235 833 b 408 890 235 885 319 890 b 585 654 585 890 585 785 b 672 803 638 654 672 689 b 425 960 672 936 558 960 z "},"Д":{"ha":928,"x_min":0,"x_max":0,"o":"m -18 -43 b 19 -143 -18 -79 -14 -143 b 247 0 31 -143 26 0 l 703 0 b 924 -140 914 0 910 -140 b 957 -53 938 -140 957 -101 b 844 71 957 15 957 71 b 585 775 826 71 660 560 b 424 964 551 872 510 964 b 351 922 376 964 351 942 b 399 857 351 922 399 911 b 94 106 399 683 94 231 b 99 74 94 94 94 83 b -18 -43 24 56 -18 25 z m 208 138 b 332 453 208 213 286 360 b 478 799 411 611 454 719 b 718 96 624 399 718 124 b 675 75 718 85 717 75 l 300 75 b 208 138 247 75 208 88 z "},"Е":{"ha":864,"x_min":0,"x_max":0,"o":"m 597 949 b 261 940 526 949 329 940 l 64 940 l 64 900 l 107 900 b 174 835 164 900 174 860 l 174 113 b 107 50 174 68 136 50 l 61 50 l 61 0 l 536 0 b 810 143 671 0 810 24 b 735 224 810 185 775 224 b 506 63 735 200 688 63 b 274 114 408 63 274 64 l 274 457 l 414 457 b 503 394 476 457 503 432 b 592 475 542 394 592 435 b 511 528 592 496 581 528 l 274 528 l 274 819 b 489 888 274 879 399 888 b 690 708 646 888 690 833 b 772 817 736 708 772 765 b 597 949 771 913 742 949 z "},"Ж":{"ha":1319,"x_min":0,"x_max":0,"o":"m 497 42 l 497 0 l 814 0 l 814 42 l 779 42 b 708 117 735 42 708 81 l 708 449 b 738 453 708 453 711 453 b 1207 -10 1011 450 1008 -10 b 1276 50 1254 -10 1276 17 b 1271 72 1276 57 1275 65 b 1247 68 1263 69 1254 68 b 890 494 1125 68 1093 431 b 1249 900 1058 567 1118 900 l 1264 900 l 1264 940 l 999 940 l 999 900 l 1019 900 b 1053 868 1036 899 1053 889 b 1050 851 1053 864 1053 857 b 749 521 1026 789 910 521 l 708 521 l 708 832 b 775 900 708 863 726 900 l 807 900 l 807 940 l 503 940 l 503 900 l 533 900 b 608 832 588 900 608 867 l 608 521 l 574 521 b 150 958 326 521 357 958 b 63 894 113 958 63 943 b 93 899 83 899 93 899 b 439 482 233 899 285 503 b 40 53 300 478 179 53 b 113 -10 40 17 67 -10 b 579 453 279 -10 338 453 b 608 447 586 453 608 453 l 608 117 b 536 42 608 79 586 42 z "},"З":{"ha":756,"x_min":0,"x_max":0,"o":"m 357 64 b 115 219 161 64 119 219 b 47 151 85 219 47 185 b 356 -4 47 51 196 -4 b 697 272 554 -4 697 90 b 501 513 697 404 597 489 b 653 717 574 546 653 624 b 339 960 653 824 596 960 b 53 803 249 960 53 932 b 115 717 53 742 110 717 b 340 894 115 740 161 894 b 549 710 504 894 549 792 b 321 536 549 617 458 536 b 194 474 235 536 194 524 b 224 418 194 453 213 418 b 367 464 269 453 318 464 b 589 261 560 464 589 332 b 357 64 589 167 524 64 z "},"И":{"ha":1053,"x_min":0,"x_max":0,"o":"m 954 42 b 871 126 915 42 871 75 l 871 824 b 947 900 871 876 904 900 l 982 900 l 982 940 l 878 940 b 650 758 785 940 738 893 b 276 193 561 618 382 354 l 276 833 b 338 900 276 881 313 900 l 368 900 l 368 940 l 56 940 l 56 900 l 93 900 b 175 824 133 900 175 883 l 175 135 b 115 29 175 64 115 29 b 174 -19 119 -4 149 -19 b 265 39 213 -19 235 1 b 771 789 296 78 668 633 l 771 107 b 708 42 771 76 746 42 l 679 42 l 679 0 l 999 0 l 999 42 z "},"Й":{"ha":1053,"x_min":0,"x_max":0,"o":"m 954 42 b 871 126 915 42 871 75 l 871 824 b 947 900 871 876 904 900 l 982 900 l 982 940 l 878 940 b 650 758 785 940 738 893 b 276 193 561 618 382 354 l 276 833 b 338 900 276 881 313 900 l 368 900 l 368 940 l 56 940 l 56 900 l 93 900 b 175 824 133 900 175 883 l 175 135 b 115 29 175 64 115 29 b 174 -19 119 -4 149 -19 b 265 39 213 -19 235 1 b 771 789 296 78 668 633 l 771 107 b 708 42 771 76 746 42 l 679 42 l 679 0 l 999 0 l 999 42 z m 347 1081 b 547 979 347 1021 433 979 b 765 1086 664 979 765 1022 b 692 1169 765 1154 692 1169 b 546 1040 692 1169 657 1040 b 415 1139 447 1040 415 1114 b 407 1147 415 1146 411 1147 b 347 1081 386 1147 347 1119 z "},"К":{"ha":936,"x_min":0,"x_max":0,"o":"m 715 282 b 493 494 660 403 556 482 b 763 814 583 499 722 751 b 869 900 788 854 821 900 b 890 900 869 900 871 900 l 890 940 l 625 940 l 625 900 l 646 900 b 681 874 672 899 681 889 b 669 835 681 863 678 853 b 542 629 667 828 586 690 b 342 521 508 582 444 521 l 267 521 l 267 836 b 321 890 267 863 279 890 l 358 890 l 358 940 l 56 940 l 56 890 l 104 890 b 167 836 142 890 167 871 l 167 110 b 96 42 167 71 129 42 l 56 42 l 56 0 l 368 0 l 368 42 l 322 42 b 267 110 281 42 267 85 l 267 410 b 358 449 267 439 308 449 b 674 143 522 449 615 261 b 824 -10 719 53 751 -10 b 906 47 876 -10 906 8 l 906 56 b 715 282 851 56 789 131 z "},"Л":{"ha":850,"x_min":0,"x_max":0,"o":"m 651 110 b 657 79 656 99 657 89 b 615 42 657 60 642 43 l 582 42 l 582 0 l 882 0 l 882 42 l 847 42 b 764 122 824 42 785 65 b 515 808 764 122 535 753 b 364 960 488 886 451 960 b 288 918 313 960 288 932 b 339 849 299 917 339 910 b 86 274 339 772 217 532 b 14 67 50 203 14 125 b 86 -24 14 42 21 -24 b 167 10 143 -24 167 3 b 132 93 146 11 132 43 b 208 311 132 143 175 244 b 418 786 319 536 399 726 b 581 311 465 657 536 440 z "},"М":{"ha":1403,"x_min":0,"x_max":0,"o":"m 1356 42 l 1324 42 b 1224 142 1275 42 1231 79 b 1154 840 1164 722 1156 817 b 1231 900 1154 881 1185 900 l 1278 900 l 1278 940 l 1122 940 b 956 794 1018 940 971 829 b 703 163 868 593 806 401 b 426 822 611 393 525 599 b 274 940 386 914 356 940 l 118 940 l 118 900 l 154 900 b 239 819 208 900 239 867 l 176 136 b 74 42 174 101 147 42 l 49 42 l 49 0 l 338 0 l 338 42 l 322 42 b 272 121 285 42 272 72 b 328 789 272 149 319 789 b 421 578 332 789 354 736 b 625 68 475 450 625 133 b 617 19 625 42 621 28 b 656 0 617 13 633 0 b 750 64 693 0 726 13 b 947 532 831 239 897 408 b 1056 786 1008 685 1050 786 b 1057 746 1057 786 1057 761 b 1096 328 1063 678 1082 478 b 1117 104 1107 214 1117 113 b 1068 42 1117 78 1108 42 l 1053 42 l 1053 0 l 1356 0 z "},"Н":{"ha":1053,"x_min":0,"x_max":0,"o":"m 947 900 l 999 900 l 999 940 l 668 940 l 668 900 l 718 900 b 778 829 753 900 778 875 l 778 561 b 756 538 778 554 775 538 l 292 538 b 274 563 274 538 274 563 l 274 833 b 333 900 274 861 286 900 l 383 900 l 383 940 l 63 940 l 63 900 l 108 900 b 172 829 153 900 172 871 l 172 121 b 104 42 172 78 154 42 l 63 42 l 63 0 l 383 0 l 383 42 l 340 42 b 274 121 289 42 274 83 l 274 436 b 292 460 274 436 274 460 l 756 460 b 778 435 775 457 778 446 l 778 121 b 704 42 778 106 772 42 l 668 42 l 668 0 l 999 0 l 999 42 l 951 42 b 879 121 896 42 879 85 l 879 833 b 947 900 879 874 908 900 z "},"О":{"ha":1047,"x_min":0,"x_max":0,"o":"m 518 -24 b 979 467 813 -24 979 204 b 514 960 979 739 822 960 b 56 467 225 960 56 750 b 518 -24 56 196 256 -24 z m 168 467 b 511 894 171 679 272 894 b 867 467 742 894 867 704 b 521 46 867 232 738 46 b 168 467 296 47 168 244 z "},"П":{"ha":1050,"x_min":0,"x_max":0,"o":"m 725 872 b 767 821 761 872 767 858 l 767 114 b 693 42 767 83 753 42 l 657 42 l 657 0 l 988 0 l 988 42 l 933 42 b 868 114 881 42 868 99 l 868 826 b 929 900 868 842 869 900 l 976 900 l 976 940 l 65 940 l 65 900 l 103 900 b 175 822 175 900 175 839 l 175 114 b 99 42 175 99 167 42 l 65 42 l 65 0 l 386 0 l 386 42 l 351 42 b 276 114 292 42 276 78 l 276 825 b 314 872 276 865 288 872 z "},"Р":{"ha":839,"x_min":0,"x_max":0,"o":"m 465 963 b 171 940 357 963 303 942 l 54 940 l 54 899 l 90 899 b 174 824 140 899 174 872 l 174 107 b 97 42 174 71 140 42 l 54 42 l 54 0 l 411 0 l 411 42 l 372 42 b 275 126 332 42 275 54 l 275 851 b 444 899 307 881 385 899 b 701 646 643 899 701 761 b 500 407 701 528 633 407 b 400 476 421 407 400 458 b 343 425 368 475 343 450 b 492 342 343 365 419 342 b 806 651 668 342 806 478 b 465 963 806 810 724 963 z "},"С":{"ha":897,"x_min":0,"x_max":0,"o":"m 776 674 b 788 672 779 672 783 672 b 861 786 815 672 861 706 b 539 957 861 903 735 957 b 60 464 343 957 60 836 b 514 -24 60 101 328 -24 b 846 133 681 -24 846 29 b 783 201 846 172 822 201 b 507 49 722 88 639 49 b 171 468 364 49 171 183 b 536 885 171 758 390 885 b 776 674 676 885 776 843 z "},"Т":{"ha":757,"x_min":0,"x_max":0,"o":"m 747 882 b 669 950 747 911 733 950 b 378 943 629 950 407 943 b 178 947 279 943 228 947 b 49 932 133 947 79 947 b 8 857 8 911 8 875 b 53 768 8 817 35 768 b 271 883 64 800 89 883 b 326 818 318 883 326 854 l 326 122 b 240 42 326 72 282 42 l 193 42 l 193 0 l 564 0 l 564 42 l 513 42 b 428 122 461 42 428 79 l 428 824 b 481 882 428 853 439 882 b 693 743 565 882 693 882 b 747 882 742 743 747 843 z "},"У":{"ha":842,"x_min":0,"x_max":0,"o":"m 543 940 l 543 900 l 572 900 b 653 833 614 900 653 876 b 467 319 653 789 533 475 b 63 958 225 826 201 958 b -29 890 3 958 -29 926 b 163 719 67 890 101 829 b 419 207 238 586 422 213 b 278 43 407 181 358 43 b 217 144 251 43 217 82 b 149 64 215 144 149 126 b 278 -24 149 4 208 -24 b 750 803 483 -24 522 263 b 864 900 775 864 811 900 l 882 900 l 882 940 z "},"Ф":{"ha":1128,"x_min":0,"x_max":0,"o":"m 613 878 b 953 460 833 869 953 679 b 613 57 953 240 825 64 z m 511 60 b 167 460 313 64 167 254 b 511 878 167 657 296 868 z m 511 939 b 57 460 239 932 57 726 b 511 0 57 174 289 7 b 422 -82 508 -42 489 -82 l 422 -124 b 613 0 572 -124 611 -61 b 1063 460 835 7 1063 172 b 613 938 1063 718 914 932 l 613 960 b 678 1006 613 989 643 1006 l 718 1006 l 718 1046 l 401 1046 l 401 1006 l 442 1006 b 511 953 479 1006 511 994 z "},"Х":{"ha":911,"x_min":0,"x_max":0,"o":"m 693 194 b 508 489 656 253 594 350 b 714 808 592 611 667 732 b 846 900 750 867 799 900 l 878 900 l 878 940 l 539 940 l 539 900 l 565 900 b 628 860 601 900 628 888 b 464 564 628 833 560 721 b 286 860 356 742 286 829 b 344 900 286 889 315 900 l 381 900 l 381 940 l 21 940 l 21 900 l 54 900 b 189 810 117 900 158 854 b 404 475 189 810 332 588 b 26 42 258 254 132 42 l -14 42 l -14 0 l 383 0 l 383 42 l 318 42 b 258 86 285 42 258 58 b 450 403 258 124 267 124 b 657 71 574 203 611 138 b 804 -25 706 0 756 -25 b 894 38 879 -25 894 38 b 867 38 894 38 883 38 b 693 194 833 38 769 79 z "},"Ц":{"ha":1042,"x_min":0,"x_max":0,"o":"m 751 0 b 958 -189 989 0 947 -189 b 1014 -54 976 -189 1014 -156 b 906 58 1014 -6 1010 58 b 861 128 878 58 861 100 l 861 826 b 928 900 861 842 869 900 l 981 900 l 981 940 l 650 940 l 650 900 l 688 900 b 760 826 758 900 760 842 l 760 142 b 704 68 760 103 756 68 l 322 68 b 269 138 281 68 269 96 l 269 826 b 331 900 269 842 275 900 l 379 900 l 379 940 l 58 940 l 58 900 l 93 900 b 168 826 164 900 168 842 l 168 118 b 97 42 168 101 164 42 l 58 42 l 58 0 z "},"Ч":{"ha":850,"x_min":0,"x_max":0,"o":"m 346 346 b 567 419 435 346 517 378 l 567 138 b 463 42 567 75 528 42 l 429 42 l 429 0 l 778 0 l 778 42 l 729 42 b 667 124 686 42 667 75 l 667 828 b 742 900 667 872 696 900 l 778 900 l 778 940 l 479 940 l 479 900 l 506 900 b 567 842 535 900 567 886 l 567 535 b 360 414 567 472 447 414 b 149 668 222 414 150 481 l 149 819 b 225 900 149 872 172 900 l 250 900 l 250 940 l -39 940 l -39 900 l -22 900 b 50 815 31 900 50 881 l 50 669 b 346 346 51 444 142 346 z "},"Ш":{"ha":1336,"x_min":0,"x_max":0,"o":"m 1151 833 b 1217 900 1151 849 1167 900 l 1269 900 l 1269 940 l 940 940 l 940 900 l 976 900 b 1050 833 1025 900 1050 869 l 1050 135 b 994 68 1050 96 1039 68 l 775 68 b 715 136 733 68 715 94 l 715 833 b 775 900 715 869 747 900 l 825 900 l 825 940 l 504 940 l 504 900 l 539 900 b 614 833 592 900 614 872 l 614 139 b 550 68 614 122 606 68 l 331 68 b 278 131 292 68 278 89 l 278 833 b 336 900 278 849 286 900 l 386 900 l 386 940 l 67 940 l 67 900 l 100 900 b 176 833 169 900 176 849 l 176 117 b 99 42 176 94 161 42 l 67 42 l 67 0 l 1260 0 l 1260 42 l 1231 42 b 1151 119 1178 42 1151 86 z "},"Щ":{"ha":1339,"x_min":0,"x_max":0,"o":"m 1189 58 b 1151 107 1163 58 1151 79 l 1151 833 b 1217 900 1151 849 1167 900 l 1269 900 l 1269 940 l 940 940 l 940 900 l 976 900 b 1050 833 1025 900 1050 869 l 1050 135 b 994 68 1050 96 1039 68 l 775 68 b 715 136 733 68 715 94 l 715 833 b 775 900 715 869 747 900 l 825 900 l 825 940 l 504 940 l 504 900 l 539 900 b 614 833 592 900 614 872 l 614 139 b 550 68 614 122 606 68 l 331 68 b 278 131 292 68 278 89 l 278 833 b 336 900 278 849 286 900 l 386 900 l 386 940 l 67 940 l 67 900 l 100 900 b 176 833 169 900 176 849 l 176 117 b 99 42 176 94 161 42 l 67 42 l 67 0 l 1042 0 b 1246 -189 1279 0 1233 -189 b 1301 -54 1264 -189 1301 -156 b 1189 58 1301 -6 1293 58 z "},"Ъ":{"ha":878,"x_min":0,"x_max":0,"o":"m 194 940 b -17 813 71 940 -17 907 b 31 733 -17 768 7 733 b 167 878 31 801 97 878 b 206 839 199 878 206 864 l 206 115 b 129 42 206 90 188 42 l 86 42 l 86 0 l 219 0 b 468 -14 299 0 376 -14 b 832 300 726 -14 832 142 b 554 589 832 479 706 589 b 392 504 501 589 392 583 b 422 457 392 486 404 461 b 551 524 422 464 465 524 b 729 301 669 524 729 425 b 454 49 729 185 656 49 b 307 92 407 49 338 60 l 307 822 b 411 900 307 893 381 900 l 444 900 l 444 940 z "},"Ы":{"ha":1186,"x_min":0,"x_max":0,"o":"m 440 -14 b 803 300 686 -14 803 142 b 525 593 803 479 676 593 b 358 511 472 593 358 579 b 399 467 358 482 385 468 b 522 528 399 471 436 528 b 700 301 642 528 700 425 b 426 49 700 185 628 49 b 278 92 378 49 315 63 l 278 814 b 369 900 278 889 340 900 l 411 900 l 411 940 l 58 940 l 58 900 l 108 900 b 176 833 136 900 176 883 l 176 115 b 101 42 176 90 158 42 l 58 42 l 58 0 l 190 0 b 440 -14 294 0 333 -14 z m 1014 840 b 1074 900 1014 872 1039 900 l 1119 900 l 1119 940 l 804 940 l 804 900 l 844 900 b 913 840 882 900 913 879 l 913 118 b 844 42 913 75 889 42 l 806 42 l 806 0 l 1119 0 l 1119 42 l 1081 42 b 1014 118 1051 42 1014 68 z "},"Ь":{"ha":847,"x_min":0,"x_max":0,"o":"m 438 -14 b 800 300 683 -14 800 142 b 522 593 800 479 674 593 b 356 511 469 593 356 579 b 396 467 356 482 382 468 b 519 528 396 471 433 528 b 697 301 639 528 697 425 b 424 49 697 185 625 49 b 275 92 375 49 313 63 l 275 814 b 367 900 275 889 338 900 l 408 900 l 408 940 l 56 940 l 56 900 l 106 900 b 174 833 133 900 174 883 l 174 115 b 99 42 174 90 156 42 l 56 42 l 56 0 l 188 0 b 438 -14 292 0 331 -14 z "},"Э":{"ha":915,"x_min":0,"x_max":0,"o":"m 411 -25 b 857 464 565 -25 857 69 b 422 957 857 836 628 957 b 64 749 250 957 64 879 b 156 667 64 703 107 667 b 429 885 156 819 289 885 b 738 514 571 885 733 789 l 444 514 b 261 444 372 514 261 514 b 311 375 261 408 294 375 b 497 438 339 438 439 438 l 740 438 b 414 49 736 144 540 49 b 161 221 282 49 197 114 b 97 149 133 221 97 188 b 411 -25 97 25 254 -25 z "},"Ю":{"ha":1356,"x_min":0,"x_max":0,"o":"m 372 460 b 831 -24 376 193 571 -24 b 1286 467 1125 -24 1286 204 b 826 960 1286 739 1135 960 b 376 538 563 960 403 785 l 308 538 b 278 576 281 538 278 576 l 278 847 b 329 900 278 889 306 900 l 360 900 l 360 940 l 67 940 l 67 900 l 104 900 b 176 843 169 900 176 858 l 176 107 b 100 42 176 92 167 42 l 67 42 l 67 0 l 360 0 l 360 42 l 336 42 b 278 107 310 42 278 61 l 278 422 b 308 460 278 422 279 460 z m 482 467 b 824 894 485 679 583 894 b 1176 467 1054 894 1176 704 b 833 46 1176 232 1050 46 b 482 467 607 47 482 244 z "},"Я":{"ha":942,"x_min":0,"x_max":0,"o":"m 149 219 b -17 38 96 121 44 38 b 54 -25 -17 0 11 -25 b 239 172 133 -25 179 72 b 538 471 450 529 479 315 b 251 685 357 488 261 558 b 485 899 244 774 315 899 b 654 854 535 899 621 888 l 654 113 b 576 42 654 71 625 42 l 526 42 l 526 0 l 875 0 l 875 42 l 828 42 b 756 113 786 42 756 71 l 756 838 b 829 900 756 878 788 900 l 875 900 l 875 940 l 743 940 b 476 961 633 940 582 961 b 138 690 254 961 138 840 b 363 431 138 542 268 449 b 149 219 304 419 219 353 z "},"†":{"ha":668,"x_min":0,"x_max":0,"o":"m 533 601 b 603 592 565 596 592 592 b 675 660 639 592 675 614 b 601 719 675 697 644 719 b 526 710 589 719 561 715 b 368 688 482 703 422 693 b 393 864 372 743 385 813 b 403 933 399 893 403 924 b 335 1001 403 974 378 1001 b 261 935 285 1001 261 971 b 271 867 261 924 265 900 b 297 686 281 815 293 744 b 131 710 240 690 178 701 b 63 719 99 715 75 719 b -11 660 19 719 -11 697 b 61 592 -11 614 24 592 b 129 601 72 592 99 596 b 294 626 176 608 238 621 b 243 383 294 506 243 383 b 288 -31 272 283 281 110 b 299 -208 290 -96 293 -160 b 331 -239 300 -226 315 -239 b 364 -207 351 -239 363 -226 b 375 -35 368 -161 371 -101 b 421 382 383 110 393 281 b 368 626 421 382 371 524 b 533 601 422 619 488 608 z "},"°":{"ha":486,"x_min":0,"x_max":0,"o":"m 47 808 b 244 622 47 722 94 622 b 435 808 389 622 435 722 b 244 994 435 894 382 994 b 47 808 104 994 47 894 z m 150 808 b 244 924 150 860 172 924 b 335 808 313 924 335 860 b 244 694 335 751 310 694 b 150 808 175 694 150 751 z "},"Ґ":{"ha":643,"x_min":0,"x_max":0,"o":""},"£":{"ha":760,"x_min":0,"x_max":0,"o":"m 428 0 b 701 169 594 0 701 47 b 644 236 701 199 681 236 b 594 213 618 236 594 218 b 601 172 601 197 601 186 b 386 64 601 108 539 64 l 210 64 b 299 385 296 132 299 240 l 299 411 l 456 411 b 571 471 503 411 571 421 b 547 506 571 485 554 506 b 436 475 547 506 507 475 l 301 475 l 301 638 b 443 819 301 789 381 819 b 574 692 519 819 574 771 b 646 781 613 692 646 726 b 474 890 646 846 596 890 b 204 610 303 890 204 767 l 204 475 l 106 475 b 25 431 39 475 25 454 l 25 422 b 26 399 25 418 26 403 b 92 411 26 399 58 411 l 204 411 b 147 100 204 208 185 140 b -10 42 115 64 78 42 l -10 0 z "},"§":{"ha":619,"x_min":0,"x_max":0,"o":"m 585 299 b 218 794 585 564 218 639 b 351 907 218 858 278 907 b 483 778 431 907 483 847 b 558 854 531 778 558 818 b 374 978 558 932 486 978 b 115 776 226 978 115 896 b 178 632 115 729 136 679 b 19 394 83 603 19 508 b 201 129 19 317 50 243 b 406 -83 286 65 406 -4 b 271 -207 406 -146 363 -207 b 125 -75 147 -207 125 -101 b 50 -147 78 -75 50 -115 b 268 -276 50 -225 154 -276 b 518 -78 418 -276 518 -186 b 428 94 518 -37 510 24 b 585 299 533 138 585 225 z m 478 286 b 374 142 478 201 414 146 b 271 215 367 140 296 193 b 125 414 165 304 125 349 b 242 583 125 503 193 583 b 335 511 251 583 322 522 b 478 286 435 428 474 381 z "},"•":{"ha":429,"x_min":0,"x_max":0,"o":"m 213 226 b 389 396 318 226 389 290 b 217 565 389 501 318 565 b 39 399 118 565 39 501 b 213 226 39 283 115 226 z "},"¶":{"ha":856,"x_min":0,"x_max":0,"o":"m 603 335 b 486 417 539 335 486 336 l 486 771 b 551 879 486 826 503 879 b 603 847 585 879 603 861 z m 603 -294 b 693 -187 674 -294 693 -256 l 693 267 b 832 239 735 267 799 267 b 771 326 832 308 821 325 b 693 361 719 328 693 328 l 693 847 b 840 900 693 886 758 900 l 840 944 b 751 940 815 940 799 940 b 401 949 668 940 469 949 b 58 597 219 949 58 863 b 393 260 58 411 207 260 l 393 22 b 257 -232 393 -87 368 -232 b 124 -124 149 -232 124 -124 b 63 -194 88 -124 63 -161 b 236 -306 63 -274 167 -306 b 486 97 463 -306 486 -92 l 486 268 l 603 268 z "},"І":{"ha":422,"x_min":0,"x_max":0,"o":"m 268 840 b 328 900 268 872 293 900 l 374 900 l 374 940 l 58 940 l 58 900 l 99 900 b 167 840 136 900 167 879 l 167 118 b 99 42 167 75 143 42 l 60 42 l 60 0 l 374 0 l 374 42 l 335 42 b 268 118 306 42 268 68 z "},"®":{"ha":944,"x_min":0,"x_max":0,"o":"m 733 318 b 564 469 639 324 640 411 b 665 599 610 486 665 535 b 469 739 665 686 600 739 b 322 729 414 739 376 729 l 235 729 l 235 685 l 251 685 b 294 640 283 685 294 667 l 294 363 b 256 315 294 350 289 315 l 235 315 l 235 269 l 447 269 l 447 315 l 422 315 b 382 363 386 315 382 350 l 382 660 b 465 683 396 675 426 683 b 574 594 536 683 574 644 b 481 504 574 536 529 504 b 439 513 467 504 453 507 b 424 478 424 494 424 489 b 565 343 424 421 476 496 b 667 258 593 289 633 258 b 733 318 722 258 733 299 z m 44 489 b 469 74 44 253 225 74 b 894 489 714 74 894 251 b 468 907 894 728 713 907 b 44 489 226 907 44 726 z m 114 489 b 468 851 114 694 267 851 b 825 489 672 851 825 694 b 469 128 825 285 674 128 b 114 489 265 128 114 285 z "},"©":{"ha":944,"x_min":0,"x_max":0,"o":"m 586 549 b 657 626 628 549 657 576 b 475 732 657 679 618 732 b 229 489 367 732 229 674 b 469 254 229 311 372 254 b 649 350 558 254 649 297 b 593 397 649 363 646 397 b 469 321 574 351 524 321 b 332 492 413 321 332 365 b 474 668 332 626 406 668 b 586 549 543 668 586 640 z m 44 489 b 469 74 44 253 225 74 b 894 489 714 74 894 251 b 468 907 894 728 713 907 b 44 489 226 907 44 726 z m 114 489 b 468 851 114 694 267 851 b 825 489 672 851 825 694 b 469 128 825 285 674 128 b 114 489 265 128 114 285 z "},"™":{"ha":1197,"x_min":0,"x_max":0,"o":"m 458 886 b 414 938 458 900 456 938 b 267 936 360 936 304 936 b 139 938 211 936 200 938 b 64 874 90 938 64 910 b 110 818 64 828 110 818 b 201 885 110 863 157 885 b 218 849 217 885 218 876 l 218 549 b 179 503 218 529 204 503 l 151 503 l 151 456 l 375 456 l 375 503 l 346 503 b 310 549 326 503 310 526 l 310 851 b 326 885 310 872 314 885 b 407 811 383 885 407 871 b 458 886 450 811 458 865 z m 1118 503 l 1094 503 b 1053 550 1067 503 1054 531 b 1019 857 1026 813 1021 846 b 1056 888 1019 871 1028 888 l 1081 888 l 1081 933 l 985 933 b 883 860 919 933 893 882 b 776 590 849 775 814 678 l 660 869 b 564 933 639 921 618 933 l 478 933 l 478 888 l 503 888 b 528 864 521 888 526 876 l 493 535 b 460 503 492 521 472 503 l 433 503 l 433 456 l 614 456 l 614 503 l 599 503 b 578 529 588 503 578 515 b 601 799 581 619 592 711 b 725 488 700 557 725 522 b 718 469 725 482 721 472 b 757 453 718 460 736 453 b 819 492 779 453 810 467 l 936 782 l 965 529 b 944 503 965 518 957 503 l 928 503 l 928 456 l 1118 456 z "},"Ђ":{"ha":933,"x_min":0,"x_max":0,"o":"m 282 108 b 221 42 282 92 267 42 l 181 42 l 181 0 l 465 0 l 465 42 l 439 42 b 383 110 399 42 383 76 l 383 346 b 599 613 383 479 467 613 b 758 419 708 613 758 561 l 758 44 b 664 -129 758 -14 754 -129 b 732 -183 664 -146 674 -183 b 860 49 810 -183 860 -112 l 860 465 b 599 681 860 599 782 681 b 383 578 503 681 429 639 l 383 893 b 508 889 383 893 438 893 b 639 790 629 881 631 790 b 679 889 651 790 679 849 b 542 960 679 949 642 960 b 338 956 469 960 388 956 b 107 961 268 956 167 961 b -11 889 47 961 -11 946 b 38 803 -11 840 33 803 b 222 894 40 819 68 894 b 282 893 244 894 263 893 z "},"ђ":{"ha":817,"x_min":0,"x_max":0,"o":"m 736 449 b 494 676 736 600 649 676 b 263 558 385 676 301 622 l 263 781 l 393 781 b 449 844 438 781 443 814 l 263 844 l 263 883 b 167 976 263 940 232 976 l 69 976 l 69 940 l 107 940 b 168 869 150 940 168 903 l 168 844 l 50 844 b -3 800 17 844 -3 819 b 3 768 -3 789 3 768 b 64 781 1 768 49 781 l 168 781 l 168 97 b 100 36 168 74 156 36 l 69 36 l 69 0 l 344 0 l 344 36 l 321 36 b 263 106 294 36 263 60 l 263 344 b 481 608 263 478 339 608 b 642 417 578 608 642 550 l 642 100 b 560 -144 642 -42 633 -144 b 617 -186 560 -157 569 -186 b 736 113 693 -186 736 -119 z "},"≠":{"ha":657,"x_min":0,"x_max":0,"o":"m 568 238 b 664 344 664 238 664 344 b 549 317 664 344 606 317 l 329 317 l 393 469 l 568 469 b 664 578 664 469 664 578 b 549 549 664 578 606 549 l 426 549 l 506 740 l 418 740 l 339 549 l 101 549 b 15 529 79 549 36 549 b -12 450 -7 506 -12 450 b 101 469 -12 450 40 469 l 307 469 b 242 317 283 415 265 369 l 101 317 b 15 296 79 317 36 317 b -12 218 -7 272 -12 218 b 101 238 -12 218 40 238 l 210 238 l 133 53 l 221 53 l 297 238 z "},"Ѓ":{"ha":665,"x_min":0,"x_max":0,"o":"m 468 1265 b 406 1321 446 1300 424 1321 b 371 1293 389 1321 379 1313 b 283 1119 354 1239 324 1171 b 251 1086 272 1110 251 1092 b 279 1065 251 1075 263 1065 b 471 1261 335 1065 471 1218 z m 425 960 b 167 940 343 960 246 940 l 25 940 l 25 900 l 54 900 b 133 824 100 900 133 883 l 133 121 b 54 42 133 89 108 42 l 22 42 l 22 0 l 381 0 l 381 42 l 335 42 b 235 136 268 42 235 78 l 235 833 b 408 890 235 885 319 890 b 585 654 585 890 585 785 b 672 803 638 654 672 689 b 425 960 672 936 558 960 z "},"ѓ":{"ha":525,"x_min":0,"x_max":0,"o":"m 307 663 b 138 656 240 661 207 656 l -8 656 l -8 619 l 42 619 b 100 558 88 619 100 589 l 100 99 b 42 36 100 67 86 36 l -11 36 l -11 0 l 336 0 l 336 36 l 278 36 b 192 113 211 36 192 69 l 192 554 b 296 613 192 606 211 613 b 446 431 418 613 446 563 b 531 536 499 431 531 458 b 307 663 531 661 372 663 z m 354 939 b 304 986 353 949 331 986 b 274 950 279 986 281 974 b 206 826 258 899 243 875 b 160 776 189 810 160 788 b 178 767 160 768 161 767 b 354 939 231 767 354 876 z "},"∞":{"ha":963,"x_min":0,"x_max":0,"o":"m 271 604 b 69 403 151 604 69 514 b 269 211 69 308 144 211 b 476 335 353 211 410 256 b 681 207 547 243 611 207 b 883 408 800 207 883 304 b 693 603 883 522 807 603 b 479 472 621 603 553 561 b 271 604 414 556 354 604 z m 265 271 b 150 403 197 271 150 338 b 267 526 150 465 194 526 b 425 404 318 526 368 485 b 265 271 374 328 325 271 z m 690 538 b 803 406 764 538 803 471 b 685 276 803 340 754 276 b 528 406 633 276 589 324 b 690 538 585 483 636 538 z "},"±":{"ha":708,"x_min":0,"x_max":0,"o":"m 408 782 b 426 899 408 847 426 899 b 335 874 426 899 347 886 b 303 782 303 839 303 801 l 303 600 l 131 600 b 36 574 106 600 57 596 b 0 492 7 546 0 492 b 131 514 0 492 71 514 l 303 514 l 303 328 b 271 229 303 263 271 229 b 408 322 271 229 408 228 l 408 514 l 590 514 b 697 631 699 514 697 631 b 585 600 697 631 636 600 l 408 600 z m 132 156 b 38 128 107 156 60 151 b 1 47 8 97 1 47 b 132 67 1 47 74 67 l 592 67 b 699 183 700 67 699 183 b 586 156 699 183 636 156 z "},"≤":{"ha":685,"x_min":0,"x_max":0,"o":"m 56 550 b 15 522 25 535 15 532 b 65 481 15 508 32 499 l 578 208 b 600 258 594 225 600 246 b 551 321 600 274 585 304 b 160 519 422 385 289 454 l 550 706 b 608 768 590 725 608 749 b 578 822 608 782 596 807 z m 103 139 b 17 118 81 139 38 139 b -12 54 -7 93 -12 54 b 103 72 -12 54 40 72 l 569 72 b 664 163 665 72 664 163 b 564 139 664 163 619 139 z "},"≥":{"ha":674,"x_min":0,"x_max":0,"o":"m 92 822 b 60 768 74 807 60 782 b 119 706 60 749 79 725 b 510 519 244 644 383 581 l 118 321 b 69 258 85 304 69 275 b 92 208 69 246 75 225 l 604 481 b 654 522 618 483 654 504 b 624 544 654 532 643 535 z m 564 139 b 664 163 619 139 664 163 b 569 72 664 163 665 72 l 103 72 b -12 54 40 72 -12 54 b 17 118 -12 54 -7 93 b 103 139 38 139 81 139 z "},"і":{"ha":357,"x_min":0,"x_max":0,"o":"m 244 883 b 176 942 244 921 217 942 b 110 883 140 942 110 921 b 176 828 110 849 142 828 b 244 883 214 828 244 847 z m 301 35 b 226 111 269 35 226 60 l 226 546 b 126 654 226 614 206 654 l 31 654 l 31 618 l 64 618 b 135 546 113 618 135 592 l 135 111 b 60 35 135 56 92 35 l 26 35 l 26 -1 l 335 -1 l 335 35 z "},"µ":{"ha":797,"x_min":0,"x_max":0,"o":"m 136 -192 b 219 -293 136 -260 175 -293 b 286 -253 269 -293 286 -253 b 228 -156 286 -253 228 -249 l 228 76 b 404 -11 271 10 338 -11 b 600 106 503 -11 561 40 l 600 68 b 692 0 600 18 643 0 l 799 0 l 799 36 l 769 36 b 692 108 733 36 692 50 l 692 583 b 614 656 692 606 681 656 l 515 656 l 515 619 l 532 619 b 600 535 589 619 600 578 l 600 326 b 404 47 600 188 540 47 b 228 244 314 47 228 126 l 228 574 b 140 656 228 625 189 656 l 26 656 l 26 619 l 54 619 b 136 535 117 619 136 578 z "},"ґ":{"ha":482,"x_min":0,"x_max":0,"o":""},"Ј":{"ha":436,"x_min":0,"x_max":0,"o":"m 281 840 b 340 900 281 872 306 900 l 386 900 l 386 940 l 71 940 l 71 900 l 111 900 b 179 840 149 900 179 879 l 179 101 b 69 -136 179 -24 171 -136 b -28 -43 -14 -136 -28 -43 b -90 -108 -28 -43 -90 -42 b 65 -206 -90 -175 -32 -206 b 281 167 215 -206 281 -103 z "},"Є":{"ha":922,"x_min":0,"x_max":0,"o":"m 488 -25 b 836 133 653 -25 836 29 b 774 201 836 172 813 201 b 497 49 725 100 629 49 b 157 438 371 49 161 168 l 400 438 b 586 375 458 438 558 438 b 636 444 603 375 636 408 b 453 514 636 514 525 514 l 160 514 b 510 885 164 757 368 885 b 760 667 650 885 760 832 b 849 761 808 667 849 704 b 517 957 849 906 689 957 b 40 464 322 957 40 836 b 488 -25 40 101 308 -25 z "},"є":{"ha":696,"x_min":0,"x_max":0,"o":"m 367 625 b 547 456 475 625 547 583 b 632 549 586 456 632 486 b 375 689 632 586 621 689 b 40 324 132 689 40 482 b 364 -17 40 168 135 -17 b 632 122 546 -17 632 61 b 589 185 632 153 610 185 b 364 47 558 128 500 47 b 133 297 235 47 142 158 l 231 297 b 440 254 365 297 440 296 b 494 318 451 254 494 268 b 406 363 494 358 444 363 l 157 363 b 133 372 147 363 133 365 b 367 625 138 493 221 625 z "},"ј":{"ha":406,"x_min":0,"x_max":0,"o":"m 293 -49 l 293 543 b 197 656 293 578 290 656 l 93 656 l 93 619 l 129 619 b 201 518 196 619 201 565 l 201 -44 b 114 -233 201 -137 185 -233 b 38 -136 49 -233 38 -164 b -22 -194 10 -136 -22 -154 b 119 -293 -22 -253 29 -293 b 293 -49 210 -293 293 -228 z m 311 885 b 243 943 311 922 285 943 b 176 885 208 943 176 922 b 243 829 176 850 210 829 b 311 885 282 829 311 849 z "},"Ѕ":{"ha":728,"x_min":0,"x_max":0,"o":"m 353 425 b 583 214 578 331 583 261 b 365 49 583 169 551 49 b 115 269 135 49 115 269 b 40 169 115 269 40 257 b 350 -22 40 92 135 -22 b 685 225 561 -22 685 97 b 176 729 685 526 176 489 b 368 896 176 822 261 896 b 561 665 483 896 561 838 b 653 774 599 665 653 688 b 368 960 653 868 561 960 b 75 724 178 960 75 831 b 353 425 75 626 103 531 z "},"¬":{"ha":772,"x_min":0,"x_max":0,"o":"m 578 339 l 578 67 b 671 147 611 67 671 78 l 671 418 l 101 418 b 15 397 79 418 36 418 b -12 319 -7 374 -12 319 b 101 339 -12 319 40 339 z "},"√":{"ha":771,"x_min":0,"x_max":0,"o":"m 200 319 l 75 264 b -11 174 -11 225 -11 204 b 26 131 -11 163 1 131 b 125 207 39 167 93 194 b 328 -265 325 -224 328 -162 b 718 653 422 -265 408 -260 b 760 836 729 693 760 796 b 632 940 760 925 714 940 b 636 906 633 928 636 915 b 368 -76 636 729 451 156 z "},"ƒ":{"ha":718,"x_min":0,"x_max":0,"o":"m 526 465 b 624 551 600 465 619 514 b 483 532 597 538 522 532 l 414 532 b 572 831 421 703 458 831 b 654 726 653 831 654 726 b 721 813 654 726 721 736 b 597 900 721 863 672 900 b 311 532 569 900 311 897 l 225 532 b 131 446 143 532 131 507 b 228 467 163 458 164 467 b 311 465 265 467 282 465 b 146 -122 301 217 315 -122 b 75 -15 74 -122 75 -15 b -7 -93 31 -15 -7 -46 b 115 -194 -7 -142 31 -194 b 379 60 221 -194 346 -115 b 411 465 400 167 408 363 z "},"≈":{"ha":817,"x_min":0,"x_max":0,"o":"m 290 506 b 589 433 383 506 479 433 b 704 521 643 433 704 454 b 663 583 704 550 682 583 b 578 518 663 557 633 518 b 288 588 506 518 404 588 b 117 488 200 588 117 560 b 147 429 117 453 144 429 b 290 506 147 429 182 506 z m 290 247 b 589 175 383 247 479 175 b 704 263 643 175 704 196 b 663 325 704 292 682 325 b 578 260 663 299 633 260 b 288 329 506 260 404 329 b 117 229 200 329 117 301 b 147 171 117 194 144 171 b 290 247 147 171 182 247 z "},"∆":{"ha":942,"x_min":0,"x_max":0,"o":"m 793 0 b 933 72 893 0 933 31 b 871 124 933 72 894 83 b 725 456 846 178 783 318 b 521 924 643 654 547 881 b 431 968 500 956 468 968 b 360 954 406 968 381 963 b 381 900 364 950 381 933 b -4 0 381 722 18 74 z m 438 78 b 146 79 351 78 194 78 b 460 801 274 347 408 607 b 765 86 496 722 718 201 b 438 78 703 81 540 78 z "},"«":{"ha":792,"x_min":0,"x_max":0,"o":"m -8 346 b 365 75 -8 343 4 328 b 386 121 381 93 386 111 b 353 182 386 133 383 157 l 156 342 l 349 515 b 394 569 376 535 394 554 b 365 617 394 581 381 601 z m 314 346 b 688 75 314 343 325 328 b 708 121 703 93 708 111 b 675 182 708 133 706 157 l 478 342 l 671 515 b 715 569 699 535 715 554 b 688 617 715 581 703 601 z "},"»":{"ha":792,"x_min":0,"x_max":0,"o":"m 425 617 b 396 569 410 601 396 581 b 442 515 396 554 414 535 b 635 342 503 460 571 397 b 436 183 567 288 504 236 b 404 121 406 158 404 133 b 425 75 404 111 410 93 b 799 346 786 328 799 343 z m 103 617 b 74 569 88 601 74 581 b 119 515 74 554 92 535 l 313 342 l 115 182 b 82 121 85 157 82 133 b 103 75 82 111 88 93 b 476 346 464 328 476 343 z "},"…":{"ha":1099,"x_min":0,"x_max":0,"o":"m 267 67 b 174 146 267 117 231 146 b 82 67 125 146 82 117 b 174 -7 82 21 126 -7 b 267 67 226 -7 267 19 z m 633 67 b 540 146 633 117 599 146 b 449 67 493 146 449 117 b 540 -7 449 21 494 -7 b 633 67 594 -7 633 19 z m 1003 67 b 908 146 1003 117 967 146 b 817 67 861 146 817 117 b 908 -7 817 21 863 -7 b 1003 67 963 -7 1003 19 z "},"Ћ":{"ha":888,"x_min":0,"x_max":0,"o":"m 214 867 l 214 83 b 174 38 214 67 200 38 l 113 38 l 113 0 l 390 0 l 390 38 l 350 38 b 308 92 322 38 308 58 l 308 346 b 524 613 308 472 385 613 b 690 419 633 613 690 561 l 690 97 b 768 0 690 50 713 0 l 886 0 l 886 38 l 840 38 b 785 99 797 38 785 65 l 785 465 b 524 681 785 599 707 681 b 308 578 428 681 354 639 l 308 867 l 451 867 b 510 915 488 867 510 889 b 501 939 510 919 507 928 l 64 939 b 15 882 24 939 15 904 b 22 858 15 874 22 858 l 35 868 b 78 867 33 868 63 867 z "},"ћ":{"ha":847,"x_min":0,"x_max":0,"o":"m 822 36 b 750 113 771 36 750 79 l 750 449 b 508 676 750 600 663 676 b 276 558 399 676 315 622 l 276 781 l 407 781 b 463 844 451 781 457 814 l 276 844 l 276 883 b 181 976 276 940 246 976 l 83 976 l 83 940 l 121 940 b 182 869 164 940 182 903 l 182 844 l 64 844 b 11 800 31 844 11 819 b 17 768 11 789 17 768 b 78 781 15 768 63 781 l 182 781 l 182 97 b 114 36 182 74 169 36 l 83 36 l 83 0 l 358 0 l 358 36 l 335 36 b 276 106 308 36 276 60 l 276 344 b 494 608 276 478 353 608 b 656 417 592 608 656 550 l 656 111 b 751 0 656 64 678 0 l 850 0 l 850 36 z "},"Ќ":{"ha":931,"x_min":0,"x_max":0,"o":"m 569 1265 b 506 1321 547 1300 525 1321 b 472 1293 489 1321 479 1313 b 383 1119 456 1239 425 1171 b 353 1086 374 1110 353 1092 b 379 1065 353 1075 364 1065 b 572 1261 436 1065 572 1218 z m 694 282 b 472 494 639 403 535 482 b 742 814 563 499 701 751 b 849 900 767 854 800 900 b 869 900 849 900 850 900 l 869 940 l 604 940 l 604 900 l 625 900 b 660 874 651 899 660 889 b 649 835 660 863 657 853 b 521 629 646 828 565 690 b 321 521 488 582 424 521 l 246 521 l 246 836 b 300 890 246 863 258 890 l 338 890 l 338 940 l 35 940 l 35 890 l 83 890 b 146 836 121 890 146 871 l 146 110 b 75 42 146 71 108 42 l 35 42 l 35 0 l 347 0 l 347 42 l 301 42 b 246 110 260 42 246 85 l 246 410 b 338 449 246 439 288 449 b 653 143 501 449 594 261 b 803 -10 699 53 731 -10 b 885 47 856 -10 885 8 l 885 56 b 694 282 831 56 768 131 z "},"ќ":{"ha":739,"x_min":0,"x_max":0,"o":"m 746 35 b 574 199 694 35 651 58 b 410 365 508 317 438 360 b 560 519 479 403 521 464 b 686 621 594 569 632 621 l 710 621 l 710 656 l 422 656 l 422 621 l 450 621 b 499 579 476 619 499 603 b 483 533 499 564 490 543 b 281 388 426 449 372 388 l 221 388 l 221 857 b 107 976 221 913 208 976 l 28 976 l 28 940 l 65 940 b 128 857 117 940 128 901 l 128 113 b 60 36 128 54 86 36 l 26 36 l 26 0 l 311 0 l 311 36 l 276 36 b 221 111 238 36 221 68 l 221 326 l 281 326 b 524 115 400 326 474 210 b 671 -25 574 21 621 -25 b 746 35 715 -25 746 -1 z m 542 992 b 472 1049 519 1028 486 1049 b 451 1031 463 1049 457 1043 b 368 838 432 969 414 893 b 338 806 364 835 338 808 b 351 792 338 799 343 792 b 542 992 407 792 542 949 z "},"ѕ":{"ha":638,"x_min":0,"x_max":0,"o":"m 306 292 b 492 139 492 233 492 175 b 325 39 492 94 439 39 b 125 168 164 39 125 168 b 56 106 125 168 56 167 b 318 -25 56 36 178 -25 b 585 164 471 -25 585 40 b 158 518 585 383 158 343 b 326 624 158 586 236 624 b 486 463 415 624 486 588 b 560 544 500 463 560 471 b 326 685 560 618 499 685 b 67 506 156 685 67 596 b 306 292 67 408 140 343 z "},"–":{"ha":740,"x_min":0,"x_max":0,"o":"m 625 317 b 721 421 721 317 721 421 b 606 392 721 421 663 392 l 144 392 b 57 371 122 392 79 392 b 31 297 36 347 31 297 b 144 317 31 297 83 317 z "},"—":{"ha":1079,"x_min":0,"x_max":0,"o":"m 956 317 b 1051 421 1051 317 1051 421 b 936 392 1051 421 994 392 l 146 392 b 60 371 125 392 82 392 b 33 297 39 347 33 297 b 146 317 33 297 86 317 z "},"“":{"ha":497,"x_min":0,"x_max":0,"o":"m 344 706 b 419 767 399 706 419 735 b 382 826 419 797 400 813 b 360 865 369 833 360 843 b 428 929 360 911 410 929 b 392 960 428 929 418 960 b 265 792 303 960 265 858 b 344 706 265 754 283 706 z m 144 706 b 219 767 199 706 219 735 b 182 826 219 797 200 813 b 160 865 171 833 160 843 b 228 929 160 911 210 929 b 192 960 228 929 218 960 b 65 792 103 960 65 858 b 144 706 65 754 83 706 z "},"”":{"ha":496,"x_min":0,"x_max":0,"o":"m 151 706 b 231 792 210 706 231 754 b 103 960 231 858 192 960 b 68 929 76 960 68 929 b 136 865 85 929 136 911 b 113 826 136 843 125 833 b 76 767 94 813 76 797 b 151 706 76 735 96 706 z m 351 706 b 431 792 410 706 431 754 b 303 960 431 858 392 960 b 268 929 276 960 268 929 b 336 865 285 929 336 911 b 313 826 336 843 325 833 b 275 767 294 813 275 797 b 351 706 275 735 296 706 z "},"‘":{"ha":213,"x_min":0,"x_max":0,"o":"m 99 701 b 174 767 153 701 174 736 b 136 826 174 797 154 813 b 113 865 124 833 113 843 b 182 929 113 911 164 929 b 146 960 182 929 172 960 b 19 788 67 960 19 854 b 99 701 19 750 38 701 z "},"’":{"ha":224,"x_min":0,"x_max":0,"o":"m 124 960 b 49 899 69 960 49 928 b 86 839 49 868 68 853 b 110 800 99 831 110 822 b 40 735 110 754 58 735 b 76 706 40 735 50 706 b 204 874 165 706 204 807 b 124 960 204 911 183 960 z "},"÷":{"ha":657,"x_min":0,"x_max":0,"o":"m 575 382 b 635 449 621 382 635 449 b 549 440 617 440 590 440 l 101 440 b 33 417 85 440 47 436 b 18 375 25 410 18 375 b 101 382 32 379 57 382 z m 407 604 b 332 669 407 646 379 669 b 258 604 293 669 258 646 b 332 540 258 563 294 540 b 407 604 375 540 407 563 z m 407 210 b 332 275 407 251 379 275 b 258 210 293 275 258 251 b 332 146 258 168 294 146 b 407 210 375 146 407 168 z "},"„":{"ha":485,"x_min":0,"x_max":0,"o":"m 129 150 b 47 83 71 150 47 115 b 88 18 47 46 69 31 b 110 -18 100 11 110 4 b 38 -99 110 -65 58 -99 b 75 -131 38 -99 47 -131 b 213 60 168 -131 213 -10 b 129 150 213 104 189 150 z m 353 150 b 269 83 294 150 269 115 b 311 18 269 46 292 31 b 333 -18 324 11 333 4 b 261 -99 333 -65 281 -99 b 299 -131 261 -99 269 -131 b 436 60 392 -131 436 -10 b 353 150 436 104 413 150 z "},"ў":{"ha":731,"x_min":0,"x_max":0,"o":"m 444 656 l 444 619 l 481 619 b 553 571 533 619 553 601 b 389 57 553 515 447 214 b 328 122 372 61 349 72 b 172 575 300 188 200 501 b 65 664 151 629 128 664 b -8 619 26 664 -8 646 b 96 515 56 619 79 560 b 251 96 142 393 203 204 b 368 0 278 38 321 0 b 206 -235 342 -68 300 -235 b 117 -118 136 -235 117 -168 b 118 -99 117 -111 118 -104 b 42 -176 118 -99 42 -108 b 196 -293 42 -228 85 -293 b 451 -7 328 -293 397 -161 b 638 529 539 239 611 446 b 718 619 660 600 694 619 l 732 619 l 732 656 z m 174 867 b 347 779 174 815 249 779 b 536 871 447 779 536 817 b 472 946 536 931 472 946 b 346 832 472 946 443 832 b 233 929 261 832 233 906 b 225 935 233 933 229 935 b 174 867 208 935 174 900 z "},"я":{"ha":760,"x_min":0,"x_max":0,"o":"m -15 36 b 50 -17 -15 -1 11 -17 b 372 261 197 -17 242 261 b 444 313 419 261 444 285 b 433 346 444 324 442 333 b 347 328 433 346 408 328 b 188 474 271 328 188 383 b 374 619 188 503 213 619 b 528 575 421 619 483 608 l 528 118 b 440 36 528 85 503 36 l 400 36 l 400 0 l 722 0 l 722 36 l 689 36 b 618 118 639 36 618 82 l 618 558 b 689 619 618 574 633 619 l 722 619 l 722 656 l 607 656 b 372 674 504 656 481 674 b 89 467 151 674 89 561 b 244 286 89 367 188 304 b 129 147 221 274 176 232 b -15 36 97 93 36 42 z "},"а":{"ha":742,"x_min":0,"x_max":0,"o":"m 679 36 b 608 140 626 36 608 75 l 608 453 b 358 690 608 632 511 690 b 115 544 219 690 115 629 b 183 471 115 472 183 471 b 358 631 183 538 222 631 b 515 453 513 631 515 515 l 515 388 l 426 388 b 60 178 224 388 60 349 b 283 -10 60 38 197 -10 b 449 71 435 -10 449 42 b 419 110 449 92 425 110 b 288 47 419 110 381 47 b 157 176 228 47 157 86 b 425 328 157 289 254 328 l 515 328 l 515 115 b 629 0 515 76 518 0 l 700 0 l 700 36 z "},"б":{"ha":747,"x_min":0,"x_max":0,"o":"m 419 606 b 263 531 290 606 263 551 b 267 486 263 514 263 504 b 418 546 314 528 363 546 b 589 304 539 546 589 446 b 381 49 589 171 524 49 b 160 378 264 49 160 147 b 503 800 160 693 290 731 b 650 913 575 824 650 850 b 615 968 650 964 615 968 b 485 889 615 957 564 919 b 60 378 215 785 60 675 b 381 -11 60 121 185 -11 b 685 306 592 -11 685 156 b 419 606 685 461 624 606 z "},"в":{"ha":761,"x_min":0,"x_max":0,"o":"m 640 729 b 404 940 640 864 547 940 b 96 571 251 940 96 832 l 96 243 b 396 -11 96 83 194 -11 b 706 276 594 -11 706 131 b 525 535 706 415 613 508 b 640 729 560 557 640 618 z m 396 49 b 186 243 293 49 186 103 l 186 569 b 403 881 186 838 315 881 b 547 729 482 881 547 835 b 364 546 547 615 456 546 b 290 497 326 546 290 536 b 303 451 290 483 290 461 b 413 492 343 476 378 492 b 611 275 546 492 611 382 b 396 49 611 150 514 49 z "},"г":{"ha":639,"x_min":0,"x_max":0,"o":"m 574 514 b 319 690 574 597 511 690 b 68 536 144 690 68 611 b 140 461 68 478 114 461 b 319 622 140 597 238 622 b 472 514 419 622 472 574 b 54 149 472 342 54 364 b 324 -19 54 43 168 -19 b 571 111 457 -19 571 35 b 514 178 571 163 514 178 b 324 43 514 178 486 43 b 156 149 208 43 156 89 b 574 514 156 300 574 308 z "},"д":{"ha":828,"x_min":0,"x_max":0,"o":"m 703 656 b 606 576 646 656 606 636 l 606 560 b 392 661 574 617 494 661 b 64 326 174 661 64 504 b 375 6 64 139 204 6 b 526 72 483 6 526 35 b 499 113 526 104 499 113 b 372 69 456 72 408 69 b 163 324 275 69 163 163 b 390 599 163 465 232 599 b 606 356 532 599 606 493 l 606 21 b 397 -228 606 -121 533 -228 b 218 -85 276 -228 218 -149 b 144 -160 218 -85 144 -89 b 397 -290 144 -208 210 -290 b 696 29 600 -290 696 -142 l 696 517 b 775 619 696 596 718 619 l 807 619 l 807 656 z "},"е":{"ha":744,"x_min":0,"x_max":0,"o":"m 560 304 b 678 406 643 304 678 304 b 393 690 678 574 558 690 b 56 324 169 690 56 529 b 379 -17 56 168 150 -17 b 640 114 561 -17 640 53 b 597 167 640 131 619 158 b 379 44 568 119 515 44 b 151 324 240 44 151 185 b 389 629 151 476 226 629 b 586 404 525 629 586 521 b 543 367 586 375 572 367 l 374 367 b 251 324 315 367 251 367 b 268 276 251 315 257 288 b 560 304 307 297 343 304 z "},"ж":{"ha":1008,"x_min":0,"x_max":0,"o":"m 528 388 l 528 878 b 415 976 528 933 503 976 l 336 976 l 336 940 l 374 940 b 435 878 410 940 435 922 l 435 388 l 400 388 b 221 558 367 388 300 413 b 88 667 171 651 129 667 b 8 619 65 667 21 661 b 153 506 89 619 118 565 b 294 354 188 447 228 383 b 138 200 294 354 201 304 b -32 39 60 74 24 39 b 42 -15 -32 -1 7 -15 b 160 79 99 -15 131 33 b 401 326 239 207 315 326 l 435 326 b 435 101 435 329 435 101 b 372 36 435 68 410 36 l 342 36 l 342 0 l 619 0 l 619 36 l 592 36 b 528 107 539 36 528 90 l 528 326 l 553 326 b 781 115 672 326 731 210 b 928 -25 831 21 878 -25 b 1003 35 972 -25 1003 -1 b 831 199 951 35 908 58 b 676 365 765 317 704 360 b 826 519 746 403 788 464 b 953 621 861 569 899 621 l 976 621 l 976 656 l 689 656 l 689 621 l 717 621 b 765 579 743 619 765 603 b 750 533 765 564 757 543 b 544 388 693 449 636 388 z "},"з":{"ha":617,"x_min":0,"x_max":0,"o":"m 538 447 b 296 663 538 539 494 663 b 42 493 93 663 42 556 b 113 410 42 439 85 410 b 296 603 113 493 169 603 b 444 451 401 603 444 531 b 244 261 444 317 324 261 b 165 204 196 257 165 239 b 192 151 165 188 171 172 b 294 188 222 179 265 188 b 463 -17 419 188 463 92 b 281 -233 463 -172 357 -233 b 117 -78 204 -233 117 -179 b 43 -144 78 -78 43 -103 b 281 -293 43 -187 104 -293 b 558 -17 456 -293 558 -140 b 378 239 558 101 503 208 b 538 447 446 268 538 339 z "},"и":{"ha":822,"x_min":0,"x_max":0,"o":"m 771 36 b 688 115 706 36 688 76 l 688 576 b 606 656 688 599 678 656 l 511 656 l 511 619 b 596 528 596 619 596 571 l 596 326 b 374 40 596 181 500 40 b 224 244 274 40 224 103 l 224 558 b 131 656 224 625 179 656 l 22 656 l 22 619 l 44 619 b 132 526 119 619 132 569 l 132 199 b 360 -18 132 76 193 -18 b 596 125 471 -18 556 46 l 596 82 b 693 0 596 25 636 0 l 796 0 l 796 36 z "},"й":{"ha":822,"x_min":0,"x_max":0,"o":"m 771 36 b 688 115 706 36 688 76 l 688 576 b 606 656 688 599 678 656 l 511 656 l 511 619 b 596 528 596 619 596 571 l 596 326 b 374 40 596 181 500 40 b 224 244 274 40 224 103 l 224 558 b 131 656 224 625 179 656 l 22 656 l 22 619 l 44 619 b 132 526 119 619 132 569 l 132 199 b 360 -18 132 76 193 -18 b 596 125 471 -18 556 46 l 596 82 b 693 0 596 25 636 0 l 796 0 l 796 36 z m 214 867 b 388 779 214 815 289 779 b 576 871 488 779 576 817 b 513 946 576 931 513 946 b 386 832 513 946 483 832 b 274 929 301 832 274 906 b 265 935 274 933 269 935 b 214 867 249 935 214 900 z "},"к":{"ha":747,"x_min":0,"x_max":0,"o":"m 749 35 b 576 199 697 35 654 58 b 413 365 511 317 440 360 b 563 519 482 403 524 464 b 689 621 597 569 635 621 l 713 621 l 713 656 l 425 656 l 425 621 l 453 621 b 501 579 479 619 501 603 b 486 533 501 564 493 543 b 283 388 429 449 375 388 l 224 388 l 224 857 b 110 976 224 913 211 976 l 31 976 l 31 940 l 68 940 b 131 857 119 940 131 901 l 131 113 b 63 36 131 54 89 36 l 29 36 l 29 0 l 314 0 l 314 36 l 279 36 b 224 111 240 36 224 68 l 224 326 l 283 326 b 526 115 403 326 476 210 b 674 -25 576 21 624 -25 b 749 35 718 -25 749 -1 z "},"л":{"ha":636,"x_min":0,"x_max":0,"o":"m 78 -17 b 129 -4 103 -17 129 -4 b 100 56 129 -4 100 14 b 118 132 100 76 107 99 b 310 557 185 286 256 383 b 468 88 465 121 468 93 b 417 36 468 64 456 36 l 379 36 l 379 0 l 661 0 l 661 36 l 643 36 b 560 107 614 36 578 63 b 376 607 489 282 438 457 b 271 685 354 649 331 685 b 204 663 224 685 204 663 b 244 607 218 663 244 638 b 43 151 244 561 242 518 b 8 44 26 119 8 78 b 78 -17 8 0 36 -17 z "},"м":{"ha":1047,"x_min":0,"x_max":0,"o":"m 1022 36 b 921 117 976 36 929 61 b 867 551 893 308 869 504 b 942 619 867 614 904 619 l 981 619 l 983 656 l 944 656 b 831 664 904 656 872 664 b 718 593 758 664 729 622 b 528 110 653 431 600 268 l 385 465 b 226 665 321 622 315 665 b 122 656 181 665 160 658 l 64 656 l 64 619 l 117 619 b 192 567 164 619 192 610 b 125 100 189 521 158 290 b 22 36 114 42 76 36 l 22 0 l 285 0 l 285 36 b 204 99 217 36 204 63 b 258 538 208 157 249 485 b 469 42 268 515 419 176 b 460 8 474 29 472 14 b 494 -15 463 -10 479 -15 b 585 60 540 -15 561 7 b 778 546 617 147 756 493 b 832 104 785 490 832 143 b 758 36 832 69 828 36 l 758 0 l 1022 0 z "},"н":{"ha":817,"x_min":0,"x_max":0,"o":"m 751 36 b 686 101 701 36 686 78 l 686 556 b 597 656 686 617 672 656 l 486 656 l 486 619 l 515 619 b 596 525 588 619 596 563 l 596 379 l 231 379 l 231 554 b 138 656 231 618 221 656 l 31 656 l 31 619 l 63 619 b 140 529 114 619 140 596 l 140 113 b 61 36 140 86 125 36 l 31 36 l 31 0 l 340 0 l 340 36 l 304 36 b 231 104 242 36 231 85 l 231 310 l 596 310 l 596 111 b 522 36 596 93 581 36 l 486 36 l 486 0 l 797 0 l 797 36 z "},"о":{"ha":783,"x_min":0,"x_max":0,"o":"m 149 328 b 396 625 149 463 206 625 b 635 328 585 625 635 471 b 396 40 635 185 569 40 b 149 328 214 40 149 185 z m 54 328 b 396 -24 54 163 150 -24 b 728 328 643 -24 728 163 b 396 689 728 496 653 689 b 54 328 129 689 54 496 z "},"п":{"ha":825,"x_min":0,"x_max":0,"o":"m 775 36 b 693 125 710 36 693 92 l 693 449 b 451 681 693 581 618 681 b 219 554 338 681 254 614 b 124 656 219 608 204 656 l 32 656 l 32 622 l 64 622 b 132 547 122 622 132 579 l 132 97 b 68 36 132 58 94 36 l 32 36 l 32 0 l 306 0 l 306 36 l 278 36 b 224 106 239 36 224 72 l 224 333 b 438 614 224 508 318 614 b 600 417 539 614 600 558 l 600 124 b 706 0 600 58 631 0 l 794 0 l 794 36 z "},"р":{"ha":806,"x_min":0,"x_max":0,"o":"m 467 663 b 228 525 361 663 274 600 l 228 568 b 135 654 228 619 188 654 l 25 654 l 25 619 l 64 619 b 136 538 122 619 136 579 l 136 -187 b 76 -257 136 -210 124 -257 l 44 -257 l 44 -294 l 354 -294 l 354 -257 l 313 -257 b 228 -172 253 -257 228 -214 l 228 333 b 467 600 228 468 338 600 b 658 313 601 600 658 472 b 463 33 658 151 574 33 b 335 92 367 33 335 92 b 308 43 335 92 308 75 b 457 -26 308 10 346 -26 b 751 317 633 -26 751 151 b 467 663 751 472 703 663 z "},"с":{"ha":664,"x_min":0,"x_max":0,"o":"m 390 625 b 550 456 526 625 550 578 b 631 544 590 456 631 478 b 388 689 631 658 547 689 b 51 331 156 689 51 500 b 371 -17 51 161 164 -17 b 625 113 561 -17 625 60 b 581 169 625 136 611 153 b 382 46 558 132 508 46 b 151 331 250 46 151 172 b 390 625 151 492 251 625 z "},"т":{"ha":1203,"x_min":0,"x_max":0,"o":"m 1140 36 b 1072 117 1096 36 1072 83 l 1072 456 b 838 683 1072 569 1013 683 b 633 544 733 683 665 613 b 433 683 610 614 556 683 b 229 556 339 683 260 621 b 144 656 229 614 213 656 l 31 656 l 31 622 l 69 622 b 140 550 122 622 140 582 l 140 111 b 69 36 140 83 126 36 l 31 36 l 31 0 l 321 0 l 321 36 l 300 36 b 232 106 247 36 232 72 l 232 331 b 425 617 232 485 288 617 b 560 394 525 617 560 544 l 560 106 b 503 36 560 72 546 36 l 478 36 l 478 0 l 742 0 l 742 36 l 721 36 b 651 106 668 36 651 72 l 651 368 b 838 617 651 496 718 617 b 979 401 944 617 979 551 l 979 125 b 1090 0 979 65 1001 0 l 1163 0 l 1163 36 z "},"у":{"ha":681,"x_min":0,"x_max":0,"o":"m 410 656 l 410 619 b 518 571 499 619 518 601 b 354 57 518 515 413 214 b 293 122 338 61 314 72 b 138 575 265 188 165 501 b 31 664 117 629 93 664 b -43 619 -8 664 -43 646 b 61 515 21 619 44 560 b 217 96 107 393 168 204 b 333 0 243 38 286 0 b 171 -235 307 -68 265 -235 b 83 -99 93 -235 83 -153 b 7 -176 83 -99 7 -108 b 161 -293 7 -228 50 -293 b 417 -7 293 -293 363 -161 b 603 529 504 239 576 446 b 697 619 625 600 660 619 l 697 656 z "},"ф":{"ha":1039,"x_min":0,"x_max":0,"o":"m 468 -186 b 408 -256 468 -208 456 -256 l 376 -256 l 376 -293 l 686 -293 l 686 -256 l 644 -256 b 560 -171 585 -256 560 -212 l 560 418 b 717 592 560 514 621 592 b 881 322 856 592 881 417 b 701 57 881 169 792 57 b 650 76 663 57 650 72 b 625 43 644 76 625 68 b 701 -1 625 15 651 -1 b 975 326 853 -1 975 153 b 717 654 975 458 918 654 b 560 581 647 654 590 628 l 560 851 b 447 976 560 918 549 976 l 368 976 l 368 940 l 406 940 b 468 857 457 940 468 901 l 468 189 b 333 60 468 129 424 60 b 146 322 215 60 146 189 b 351 594 146 478 231 594 b 401 581 386 594 401 581 b 406 604 404 589 406 597 b 342 653 406 638 379 653 b 53 322 171 653 53 504 b 333 0 53 157 153 0 b 468 57 385 0 438 17 z "},"х":{"ha":628,"x_min":0,"x_max":0,"o":"m 506 133 b 358 342 481 168 415 256 b 513 567 407 414 463 494 b 611 619 539 600 564 619 l 635 619 l 635 656 l 351 656 l 351 619 l 381 619 b 431 583 414 619 431 608 b 321 400 431 560 371 469 l 204 583 b 79 671 169 631 138 671 b -21 611 6 671 -21 611 b 142 518 71 611 90 586 b 269 335 181 467 235 389 l 226 274 b -4 36 156 172 72 36 l -32 36 l -32 0 l 260 0 l 260 36 l 228 36 b 178 64 192 38 178 47 b 189 96 178 72 179 82 b 310 276 211 131 265 214 l 454 57 b 567 -17 493 0 532 -17 b 647 24 629 -17 650 24 b 506 133 633 24 578 31 z "},"ц":{"ha":822,"x_min":0,"x_max":0,"o":"m 758 51 b 685 144 700 51 685 96 l 685 583 b 607 656 685 628 653 656 l 508 656 l 508 619 l 525 619 b 594 535 579 619 594 578 l 594 326 b 371 40 594 201 508 40 b 221 244 271 40 221 103 l 221 574 b 133 656 221 617 197 656 l 19 656 l 19 619 l 47 619 b 129 535 115 619 129 578 l 129 199 b 371 -18 129 67 197 -18 b 594 114 471 -18 547 38 l 594 82 b 678 0 594 15 642 0 b 744 -93 733 0 744 -61 b 744 -189 744 -125 744 -189 b 831 -51 774 -189 831 -174 b 758 51 831 7 824 51 z "},"ч":{"ha":778,"x_min":0,"x_max":0,"o":"m 622 551 b 539 656 622 576 619 656 l 432 656 l 432 619 l 463 619 b 531 550 521 619 531 569 l 531 463 b 329 269 531 357 439 269 b 178 463 226 269 178 321 l 178 574 b 90 656 178 617 154 656 l -17 656 l -17 619 l 11 619 b 86 535 81 619 86 578 l 86 424 b 322 210 86 292 151 210 b 531 293 407 210 483 242 l 531 104 b 435 36 531 72 511 36 l 388 36 l 388 0 l 731 0 l 731 36 l 683 36 b 622 106 632 36 622 81 z "},"ш":{"ha":1224,"x_min":0,"x_max":0,"o":"m 967 297 b 786 47 967 186 926 47 b 646 246 693 47 646 97 l 646 531 b 542 656 646 590 625 656 l 463 656 l 463 619 l 492 619 b 554 540 539 619 554 574 l 554 274 b 375 47 554 176 517 47 b 233 246 282 47 233 97 l 233 531 b 129 656 233 590 219 656 l 50 656 l 50 619 l 79 619 b 140 540 131 619 140 574 l 140 192 b 375 -15 140 79 201 -15 b 575 86 475 -15 543 26 b 781 -15 603 24 667 -15 b 968 72 868 -15 929 19 b 1075 0 975 35 1008 0 l 1169 0 l 1169 36 l 1136 36 b 1058 115 1094 36 1058 71 l 1058 531 b 954 656 1058 590 1044 656 l 875 656 l 875 619 l 904 619 b 967 540 956 619 967 574 z "},"щ":{"ha":1193,"x_min":0,"x_max":0,"o":"m 954 72 b 1031 0 954 6 994 0 b 1097 -93 1086 0 1097 -61 b 1097 -189 1097 -125 1097 -189 b 1183 -51 1126 -189 1183 -174 b 1111 51 1183 7 1176 51 b 1044 115 1081 51 1044 71 l 1044 531 b 940 656 1044 590 1031 656 l 861 656 l 861 619 l 890 619 b 953 540 942 619 953 574 l 953 297 b 772 47 953 186 913 47 b 632 246 679 47 632 97 l 632 531 b 528 656 632 590 611 656 l 449 656 l 449 619 l 478 619 b 540 540 525 619 540 574 l 540 274 b 361 47 540 176 503 47 b 219 246 268 47 219 97 l 219 531 b 115 656 219 590 206 656 l 36 656 l 36 619 l 65 619 b 126 540 117 619 126 574 l 126 192 b 361 -15 126 79 188 -15 b 561 86 461 -15 529 26 b 767 -15 589 24 653 -15 b 954 72 854 -15 915 19 z "},"ъ":{"ha":742,"x_min":0,"x_max":0,"o":"m 267 656 b 136 661 213 656 179 661 b -17 547 35 661 -17 617 b 43 492 -17 494 18 492 b 138 604 43 583 103 604 b 163 575 154 604 163 592 b 161 254 163 493 161 254 b 432 -11 161 96 249 -11 b 703 243 618 -11 703 119 b 468 475 703 401 597 475 b 328 406 375 475 328 442 b 349 361 328 386 335 376 b 468 419 392 406 433 419 b 611 243 574 419 611 340 b 432 47 611 142 547 47 b 253 254 339 47 253 104 l 253 549 b 328 619 253 594 282 619 l 354 619 l 354 656 z "},"ы":{"ha":950,"x_min":0,"x_max":0,"o":"m 896 35 b 821 111 864 35 821 60 l 821 546 b 721 654 821 614 800 654 l 625 654 l 625 618 l 658 618 b 729 546 707 618 729 592 l 729 111 b 654 35 729 56 686 35 l 621 35 l 621 -1 l 929 -1 l 929 35 z m 97 544 b 96 254 97 463 96 254 b 367 -11 96 96 183 -11 b 638 243 553 -11 638 119 b 403 475 638 401 532 475 b 263 406 310 475 263 442 b 283 361 263 386 269 376 b 403 419 326 406 368 419 b 546 243 508 419 546 340 b 367 47 546 142 482 47 b 188 254 274 47 188 104 l 188 542 b 263 619 188 569 192 619 l 289 619 l 289 656 l -12 656 l -12 619 l 29 619 b 97 544 86 619 97 569 z "},"ь":{"ha":683,"x_min":0,"x_max":0,"o":"m 99 544 b 97 254 99 463 97 254 b 368 -11 97 96 185 -11 b 639 243 554 -11 639 119 b 404 475 639 401 533 475 b 264 406 311 475 264 442 b 285 361 264 386 271 376 b 404 419 328 406 369 419 b 547 243 510 419 547 340 b 368 47 547 142 483 47 b 189 254 275 47 189 104 l 189 542 b 264 619 189 569 193 619 l 290 619 l 290 656 l -11 656 l -11 619 l 31 619 b 99 544 88 619 99 569 z "},"э":{"ha":675,"x_min":0,"x_max":0,"o":"m 311 619 b 521 372 457 619 515 493 b 496 363 521 365 506 363 l 281 363 b 196 342 260 363 217 363 b 174 269 174 318 174 269 b 281 297 174 269 225 297 l 521 297 b 296 46 511 160 425 46 b 68 178 160 46 99 128 b 31 122 47 171 31 147 b 296 -12 31 61 115 -12 b 613 328 525 -12 613 172 b 310 681 613 486 554 681 b 38 526 69 681 38 558 b 107 456 38 486 63 456 b 311 619 107 565 201 619 z "},"ю":{"ha":1011,"x_min":0,"x_max":0,"o":"m 403 339 b 635 625 403 467 463 625 b 853 328 807 625 853 471 b 628 39 853 185 789 39 b 403 339 472 39 403 196 z m 224 388 l 224 857 b 110 976 224 913 211 976 l 31 976 l 31 940 l 68 940 b 131 857 119 940 131 901 l 131 113 b 63 36 131 54 89 36 l 29 36 l 29 0 l 314 0 l 314 36 l 279 36 b 224 111 240 36 224 68 l 224 326 l 310 326 b 628 -19 314 174 408 -19 b 947 328 854 -19 947 163 b 635 689 947 496 876 689 b 311 388 392 689 317 467 z "},"€":{"ha":969,"x_min":0,"x_max":0,"o":"m 558 500 b 668 608 667 500 668 608 b 540 579 668 608 611 579 l 286 579 b 581 857 311 729 432 857 b 808 643 686 857 808 819 b 890 753 828 643 890 657 b 585 933 890 882 735 933 b 175 579 436 933 225 849 l 106 579 b 19 558 83 579 42 579 b -8 483 -3 535 -8 483 b 106 500 -8 483 46 500 l 164 500 b 161 447 161 481 161 464 b 165 383 161 419 164 399 l 106 383 b 19 363 83 383 42 383 b -8 288 -3 340 -8 288 b 106 304 -8 288 46 304 l 178 304 b 551 -21 233 61 414 -21 b 896 143 732 -21 896 39 b 819 214 896 190 857 214 b 569 53 819 136 719 53 b 290 304 454 53 326 135 l 558 304 b 668 417 667 304 668 417 b 540 383 668 417 608 383 l 275 383 b 271 450 272 406 271 428 b 274 500 271 465 272 485 z "},"!":{"ha":222,"x_min":0,"x_max":0,"o":"m 179 871 b 96 979 179 925 154 979 b 46 960 81 979 56 978 b 75 408 75 901 75 649 b 64 231 75 310 69 260 b 154 338 142 231 150 292 b 179 871 169 535 178 719 z m 194 61 b 113 133 194 107 163 133 b 33 61 71 133 33 107 b 113 -7 33 18 72 -7 b 194 61 158 -7 194 17 z "},"":{"ha":742,"x_min":0,"x_max":0,"o":"m -26 39 b 33 -17 -26 -1 -7 -17 b 350 288 188 -17 213 288 b 425 338 399 288 425 307 b 414 374 425 350 422 360 b 340 354 414 374 394 354 b 186 511 260 354 186 421 b 367 668 186 543 211 668 b 511 629 415 668 465 661 l 511 114 b 426 39 511 78 492 39 l 392 39 l 392 0 l 717 0 l 717 39 l 682 39 b 608 114 629 39 608 75 l 608 607 b 682 668 608 624 624 668 l 717 668 l 717 708 l 615 708 b 365 726 511 708 471 726 b 85 504 143 726 85 597 b 229 315 85 406 169 336 b -26 39 119 260 89 64 z "},"":{"ha":692,"x_min":0,"x_max":0,"o":"m 713 39 b 629 107 697 39 653 53 b 442 601 629 107 458 561 b 311 715 419 660 386 715 b 240 683 263 715 240 694 b 278 632 251 682 278 678 b 63 190 278 578 175 389 b 13 49 36 142 13 85 b 79 -18 13 32 14 -18 b 153 7 133 -18 153 1 b 121 69 138 8 121 32 b 171 221 121 107 144 172 l 489 221 b 539 85 525 129 532 100 b 543 69 542 79 543 74 b 507 39 543 53 526 39 l 482 39 l 482 0 l 739 0 l 739 39 z m 207 290 b 353 588 272 407 322 517 l 467 290 z "},"":{"ha":721,"x_min":0,"x_max":0,"o":"m 346 663 b 531 533 525 663 531 607 b 617 619 547 533 617 550 b 410 722 617 711 547 722 b 153 708 333 722 240 708 l 31 708 l 31 667 l 69 667 b 126 611 101 667 126 644 l 126 111 b 61 42 126 72 101 42 l 31 42 l 31 0 l 146 0 b 376 -10 219 0 306 -10 b 668 232 578 -10 668 117 b 432 438 668 358 589 438 b 290 375 388 438 290 426 b 338 332 290 360 306 332 b 432 381 338 340 371 381 b 565 229 515 381 565 318 b 347 49 565 142 492 49 b 225 81 308 49 250 57 l 225 601 b 346 663 225 646 281 663 z "},"":{"ha":744,"x_min":0,"x_max":0,"o":"m 656 525 b 386 718 656 618 599 718 b 149 704 307 718 226 704 l 46 704 l 46 663 l 85 663 b 135 615 104 663 135 653 l 135 90 b 76 39 135 68 117 39 l 46 39 l 46 0 l 425 0 b 693 206 588 0 693 92 b 551 372 693 304 619 360 b 656 525 614 403 656 451 z m 408 56 b 232 90 294 56 247 82 b 233 467 232 293 233 382 l 233 632 b 365 660 265 646 328 660 b 551 519 519 660 551 590 b 417 392 551 449 493 392 b 349 403 389 392 349 403 b 332 368 349 403 332 382 b 401 329 332 338 367 329 b 588 199 510 329 588 313 b 408 56 588 140 529 56 z "},"":{"ha":553,"x_min":0,"x_max":0,"o":"m 378 721 b 147 708 317 721 224 708 l 42 708 l 42 667 l 71 667 b 128 601 115 667 128 631 l 128 107 b 71 42 128 76 111 42 l 39 42 l 39 0 l 344 0 l 344 42 l 310 42 b 228 119 250 42 228 75 l 228 606 b 349 660 228 642 272 660 b 485 485 481 660 485 585 b 569 606 525 485 569 519 b 378 721 569 708 492 721 z "},"":{"ha":783,"x_min":0,"x_max":0,"o":"m -21 -43 b 10 -108 -21 -69 -3 -108 b 199 0 15 -108 24 0 l 585 0 b 767 -107 776 0 757 -107 b 803 -28 788 -107 803 -61 b 719 57 803 18 782 57 b 472 615 690 57 646 179 b 344 729 446 682 415 729 b 278 694 289 729 278 701 b 318 646 278 694 318 689 b 114 218 318 592 238 444 b 68 88 88 169 68 124 b 72 60 68 78 68 71 b -21 -43 -1 60 -21 22 z m 171 113 b 386 572 171 190 339 431 b 575 76 542 189 575 93 b 558 63 575 69 571 63 l 244 63 b 171 113 206 63 171 68 z "},"":{"ha":697,"x_min":0,"x_max":0,"o":"m 431 717 b 176 704 365 717 272 704 l 49 704 l 49 663 l 82 663 b 135 606 125 663 135 624 l 135 96 b 82 42 135 78 124 42 l 46 42 l 46 0 l 432 0 b 664 108 544 0 664 17 b 588 171 664 144 629 171 b 419 54 588 154 556 54 b 233 94 346 54 233 56 l 233 335 l 357 335 b 432 288 385 335 432 324 b 489 336 453 288 489 303 b 399 390 489 376 465 390 l 233 390 l 233 615 b 394 656 233 653 328 656 b 546 519 529 656 546 614 b 631 606 574 519 631 528 b 431 717 631 708 556 717 z "},"":{"ha":1100,"x_min":0,"x_max":0,"o":"m 496 96 b 451 40 496 65 475 40 l 419 40 l 419 0 l 674 0 l 674 40 l 639 40 b 593 94 617 40 593 58 l 593 328 b 631 331 606 331 619 331 b 847 126 744 331 807 206 b 994 -7 882 58 935 -7 b 1065 54 1047 -7 1065 21 b 922 197 990 54 972 94 b 753 371 889 265 817 349 b 942 607 849 424 889 528 b 1021 663 963 638 990 663 l 1042 663 l 1042 704 l 814 704 l 814 663 l 835 663 b 854 643 843 663 854 660 b 621 390 854 604 729 390 l 593 390 l 593 615 b 631 663 593 643 611 663 l 667 663 l 667 704 l 417 704 l 417 663 l 451 663 b 496 615 482 663 496 639 b 496 390 496 488 496 390 l 471 390 b 129 713 299 390 300 713 b 56 663 96 713 56 700 b 365 358 199 663 242 358 b 183 192 276 335 217 251 b 38 44 107 54 71 46 b 111 -7 38 14 67 -7 b 496 329 258 -7 272 329 b 496 96 496 329 496 96 z "},"":{"ha":625,"x_min":0,"x_max":0,"o":"m 292 50 b 100 157 158 50 110 135 b 42 96 54 157 42 117 b 290 -12 42 25 146 -12 b 572 206 456 -12 572 72 b 422 383 572 307 499 367 b 536 529 485 404 536 461 b 282 715 536 601 496 715 b 44 603 224 715 44 708 b 97 524 44 564 76 524 b 283 656 97 535 133 656 b 435 528 400 656 435 589 b 261 399 435 458 354 399 b 156 350 185 399 156 385 b 200 304 156 335 172 304 b 306 342 226 333 286 342 b 469 197 436 342 469 254 b 292 50 469 139 415 50 z "},"":{"ha":858,"x_min":0,"x_max":0,"o":"m 772 42 b 714 114 735 42 714 76 l 714 608 b 771 667 714 647 749 667 l 803 667 l 803 708 l 699 708 b 569 633 638 708 601 676 b 236 169 458 476 340 319 l 236 608 b 285 667 236 642 254 667 l 310 667 l 310 708 l 46 708 l 46 667 l 78 667 b 140 601 115 667 140 647 l 140 110 b 101 26 140 56 114 29 b 150 -15 103 3 117 -15 b 229 36 190 -15 206 10 b 618 563 253 63 518 426 l 618 100 b 572 42 618 68 597 42 l 544 42 l 544 0 l 815 0 l 815 42 z "},"":{"ha":853,"x_min":0,"x_max":0,"o":"m 271 867 b 444 779 271 815 346 779 b 633 871 544 779 633 817 b 569 946 633 931 569 946 b 443 832 569 946 540 832 b 331 929 358 832 331 906 b 322 935 331 933 326 935 b 271 867 306 935 271 900 z m 772 42 b 714 114 735 42 714 76 l 714 608 b 771 667 714 647 749 667 l 803 667 l 803 708 l 699 708 b 569 633 638 708 601 676 b 236 169 458 476 340 319 l 236 608 b 285 667 236 642 254 667 l 310 667 l 310 708 l 46 708 l 46 667 l 78 667 b 140 601 115 667 140 647 l 140 110 b 101 26 140 56 114 29 b 150 -15 103 3 117 -15 b 229 36 190 -15 206 10 b 618 563 253 63 518 426 l 618 100 b 572 42 618 68 597 42 l 544 42 l 544 0 l 815 0 l 815 42 z "},"":{"ha":756,"x_min":0,"x_max":0,"o":"m 606 197 b 436 371 572 265 500 349 b 625 607 532 424 572 528 b 704 663 646 638 674 663 l 725 663 l 725 704 l 497 704 l 497 663 l 518 663 b 538 643 526 663 538 660 b 304 390 538 604 413 390 l 235 390 l 235 615 b 272 663 235 643 253 663 l 308 663 l 308 704 l 49 704 l 49 663 l 93 663 b 138 615 124 663 138 639 l 138 94 b 93 40 138 64 117 40 l 49 40 l 49 0 l 315 0 l 315 40 l 281 40 b 235 94 258 40 235 58 l 235 326 b 303 333 247 332 269 333 b 531 126 424 333 483 217 b 678 -7 565 58 618 -7 b 749 54 731 -7 749 21 b 606 197 674 54 656 94 z "},"":{"ha":700,"x_min":0,"x_max":0,"o":"m 174 221 b 349 569 239 338 318 499 b 529 85 517 129 525 101 b 531 72 531 81 531 76 b 497 39 531 51 517 39 l 472 39 l 472 0 l 740 0 l 740 39 l 714 39 b 631 107 699 39 654 53 b 439 601 631 107 456 561 b 308 715 417 660 383 715 b 238 683 260 715 238 694 b 275 632 249 682 275 678 b 58 190 275 578 171 389 b 3 49 32 142 3 85 b 74 -18 3 32 8 -18 b 149 7 128 -18 149 1 b 121 69 133 8 121 32 b 174 221 121 107 147 172 z "},"":{"ha":1139,"x_min":0,"x_max":0,"o":"m 1088 40 l 1051 40 b 986 106 1010 40 990 69 b 932 615 932 604 932 608 b 994 663 932 649 963 663 l 1031 663 l 1031 704 l 897 704 b 753 590 793 704 764 619 b 572 133 690 428 635 278 l 367 613 b 239 704 336 682 311 704 l 111 704 l 111 663 l 149 663 b 206 617 199 663 204 640 l 154 101 b 85 40 150 75 136 40 l 54 40 l 54 0 l 296 0 l 296 40 l 278 40 b 244 90 250 40 244 76 b 285 569 244 110 274 533 b 506 51 483 131 506 67 b 496 13 506 32 500 18 b 543 -4 496 4 521 -4 b 619 49 569 -4 601 13 b 840 565 653 115 832 565 b 842 554 840 564 842 557 l 890 89 b 853 40 890 69 885 40 l 836 40 l 836 0 l 1088 0 z "},"":{"ha":847,"x_min":0,"x_max":0,"o":"m 753 663 l 801 663 l 801 704 l 524 704 l 524 663 l 561 663 b 610 613 601 663 610 624 l 610 426 b 589 411 610 422 606 411 l 256 411 b 236 428 240 411 236 428 l 236 617 b 278 663 236 626 246 663 l 321 663 l 321 704 l 51 704 l 51 663 l 83 663 b 138 613 129 663 138 624 l 138 99 b 79 40 138 88 132 40 l 51 40 l 51 0 l 321 0 l 321 40 l 283 40 b 236 99 240 40 236 88 l 236 318 b 253 336 236 318 239 336 l 589 336 b 610 318 601 333 610 326 l 610 99 b 550 40 610 88 601 40 l 524 40 l 524 0 l 801 0 l 801 40 l 763 40 b 710 99 718 40 710 88 l 710 617 b 753 663 710 626 721 663 z "},"":{"ha":800,"x_min":0,"x_max":0,"o":"m 397 -18 b 753 350 618 -18 753 153 b 401 721 753 554 636 721 b 47 350 183 721 47 563 b 397 -18 47 147 192 -18 z m 153 350 b 400 656 156 501 233 656 b 649 350 561 656 649 518 b 400 50 649 183 551 50 b 153 350 239 51 153 192 z "},"":{"ha":842,"x_min":0,"x_max":0,"o":"m 568 646 b 604 608 588 646 604 636 l 604 100 b 550 42 604 79 590 42 l 517 42 l 517 0 l 793 0 l 793 42 l 750 42 b 704 100 724 42 704 71 l 704 617 b 754 667 704 638 722 667 l 790 667 l 790 708 l 46 708 l 46 667 l 83 667 b 133 613 125 667 133 635 l 133 100 b 81 42 133 67 110 42 l 46 42 l 46 0 l 317 0 l 317 42 l 276 42 b 233 100 246 42 233 68 l 233 613 b 269 646 233 642 253 646 z "},"":{"ha":678,"x_min":0,"x_max":0,"o":"m 374 721 b 139 704 296 721 217 704 l 39 704 l 39 663 l 78 663 b 133 604 121 663 133 633 l 133 101 b 78 40 133 63 104 40 l 39 40 l 39 0 l 342 0 l 342 40 l 294 40 b 232 115 254 40 232 64 l 232 633 b 357 661 267 653 319 661 b 557 468 493 661 557 561 b 414 307 557 385 507 307 b 329 363 360 307 329 346 b 290 317 310 361 290 346 b 404 249 290 268 360 249 b 656 485 565 249 656 367 b 374 721 656 603 583 721 z "},"":{"ha":694,"x_min":0,"x_max":0,"o":"m 593 506 b 667 592 628 506 667 517 b 419 721 667 665 621 721 b 53 347 263 721 53 629 b 397 -17 53 71 260 -17 b 653 104 525 -17 653 25 b 599 163 653 135 625 163 b 397 49 565 92 501 49 b 154 350 299 49 154 136 b 418 657 154 567 296 657 b 593 506 519 657 593 632 z "},"":{"ha":608,"x_min":0,"x_max":0,"o":"m 606 661 b 506 713 606 685 606 713 l 307 706 b 117 711 206 708 185 711 b 38 700 89 711 61 711 b 3 639 14 686 3 665 b 49 567 3 606 22 567 b 224 654 53 567 64 654 b 256 619 249 654 256 636 l 256 110 b 197 39 256 75 238 39 l 151 39 l 151 0 l 464 0 l 464 39 l 414 39 b 356 110 375 39 356 69 l 356 624 b 401 653 360 647 379 653 b 547 556 485 653 540 631 b 606 661 600 556 606 633 z "},"":{"ha":686,"x_min":0,"x_max":0,"o":"m 424 708 l 424 667 l 461 667 b 511 619 499 665 511 644 b 507 592 511 611 510 601 b 368 267 497 556 415 375 b 174 640 331 350 233 531 b 46 722 150 685 111 722 b -33 654 -11 722 -33 685 b 106 560 44 654 71 625 b 321 168 142 492 321 168 b 228 35 285 79 254 35 b 169 110 190 35 169 71 b 103 57 126 110 103 85 b 219 -18 103 21 133 -18 b 411 150 306 -18 363 39 b 610 594 411 150 592 551 b 694 667 631 640 660 667 l 715 667 l 715 708 z "},"":{"ha":922,"x_min":0,"x_max":0,"o":"m 508 638 b 760 326 667 638 760 497 b 508 29 760 163 660 29 z m 408 31 b 154 326 260 31 154 181 b 408 638 154 481 242 638 z m 408 692 b 49 326 197 692 49 526 b 408 -25 49 118 225 -25 b 343 -85 408 -56 396 -85 l 343 -126 b 508 -25 464 -126 504 -82 b 864 331 693 -25 864 114 b 508 690 864 526 743 690 b 563 731 508 715 522 731 l 592 731 l 592 772 l 321 772 l 321 731 l 349 731 b 408 692 393 731 408 710 z "},"":{"ha":736,"x_min":0,"x_max":0,"o":"m 594 114 b 419 360 546 176 476 278 b 696 663 513 496 608 663 l 717 663 l 717 704 l 429 704 l 429 663 l 472 663 b 501 638 492 663 501 654 b 375 424 501 613 447 529 b 246 640 307 528 246 611 b 275 663 246 656 254 663 l 325 663 l 325 704 l 17 704 l 17 663 l 47 663 b 154 594 96 663 125 631 b 321 353 154 594 261 439 b 10 40 200 190 104 40 l -17 40 l -17 0 l 319 0 l 319 40 l 281 40 b 228 67 246 40 228 43 b 365 289 228 101 344 263 l 529 44 b 636 -19 568 -15 607 -19 b 731 39 707 -19 731 39 b 594 114 674 39 631 67 z "},"":{"ha":842,"x_min":0,"x_max":0,"o":"m 604 0 b 768 -160 764 0 768 -149 b 819 -46 779 -160 819 -125 b 722 54 819 1 817 54 b 700 90 707 54 700 69 l 700 610 b 749 667 700 646 721 667 l 796 667 l 796 708 l 513 708 l 513 667 l 542 667 b 600 610 586 667 600 640 l 600 100 b 564 61 600 72 583 61 l 265 61 b 229 97 249 61 229 67 l 229 610 b 272 667 229 642 243 667 l 317 667 l 317 708 l 42 708 l 42 667 l 74 667 b 129 610 110 667 129 643 l 129 96 b 69 42 129 64 111 42 l 42 42 l 42 0 z "},"":{"ha":675,"x_min":0,"x_max":0,"o":"m 274 257 b 444 299 344 257 404 276 l 444 111 b 369 42 444 69 414 42 l 335 42 l 335 0 l 632 0 l 632 42 l 601 42 b 543 100 558 42 543 78 l 543 606 b 599 667 543 644 561 667 l 632 667 l 632 708 l 374 708 l 374 667 l 403 667 b 444 614 433 667 444 639 l 444 404 b 286 318 444 347 350 318 b 142 400 222 318 163 347 b 129 501 129 431 129 449 l 129 599 b 192 667 129 621 139 667 l 210 667 l 210 708 l -39 708 l -39 667 l -24 667 b 31 596 14 667 31 642 l 31 501 b 82 322 31 386 54 356 b 274 257 118 286 182 257 z "},"":{"ha":1069,"x_min":0,"x_max":0,"o":"m 929 610 b 975 667 929 643 947 667 l 1018 667 l 1018 708 l 749 708 l 749 667 l 772 667 b 829 610 813 667 829 642 l 829 111 b 786 61 829 83 825 61 l 629 61 b 582 113 596 61 582 72 l 582 610 b 624 667 582 638 596 667 l 663 667 l 663 708 l 401 708 l 401 667 l 428 667 b 482 610 467 667 482 635 l 482 114 b 431 61 482 101 476 61 l 274 61 b 232 108 253 61 232 61 l 232 610 b 274 667 232 644 250 667 l 314 667 l 314 708 l 51 708 l 51 667 l 79 667 b 132 610 119 667 132 639 l 132 107 b 78 42 132 79 118 42 l 51 42 l 51 0 l 1010 0 l 1010 42 l 986 42 b 929 110 956 42 929 71 z "},"":{"ha":1081,"x_min":0,"x_max":0,"o":"m 976 54 b 929 110 960 54 929 71 l 929 610 b 975 667 929 643 947 667 l 1018 667 l 1018 708 l 749 708 l 749 667 l 772 667 b 829 610 813 667 829 642 l 829 111 b 786 61 829 83 825 61 l 629 61 b 582 113 596 61 582 72 l 582 610 b 624 667 582 638 596 667 l 663 667 l 663 708 l 401 708 l 401 667 l 428 667 b 482 610 467 667 482 635 l 482 114 b 431 61 482 101 476 61 l 274 61 b 232 108 253 61 232 61 l 232 610 b 274 667 232 644 250 667 l 314 667 l 314 708 l 51 708 l 51 667 l 79 667 b 132 610 119 667 132 639 l 132 107 b 78 42 132 79 118 42 l 51 42 l 51 0 l 817 0 b 996 -169 992 0 996 -142 b 1050 -35 996 -169 1050 -169 b 976 54 1050 13 1035 54 z "},"":{"ha":672,"x_min":0,"x_max":0,"o":"m 154 708 b -25 613 36 708 -25 690 b 44 525 -25 539 29 525 b 140 660 44 604 65 660 l 140 97 b 86 40 140 64 122 40 l 46 40 l 46 0 l 161 0 b 356 -11 226 0 288 -11 b 657 229 554 -11 657 107 b 428 449 657 367 554 449 b 294 385 385 449 294 446 b 335 340 294 357 317 346 b 425 394 335 350 365 394 b 557 231 514 394 557 324 b 346 49 557 143 493 49 b 240 74 315 49 269 57 l 240 607 b 317 667 240 653 269 667 l 350 667 l 350 708 z "},"":{"ha":958,"x_min":0,"x_max":0,"o":"m 142 97 b 88 40 142 64 124 40 l 47 40 l 47 0 l 163 0 b 357 -11 228 0 289 -11 b 658 229 556 -11 658 107 b 429 449 658 367 556 449 b 296 385 386 449 296 446 b 336 340 296 357 318 346 b 426 394 336 350 367 394 b 558 231 515 394 558 324 b 347 49 558 143 494 49 b 242 74 317 49 271 57 l 242 607 b 318 667 242 653 271 667 l 351 667 l 351 708 l 47 708 l 47 667 l 88 667 b 142 606 117 667 142 644 z m 829 619 b 875 663 829 635 838 663 l 901 663 l 901 704 l 660 704 l 660 663 l 683 663 b 732 615 717 663 732 635 l 732 96 b 679 40 732 85 724 40 l 660 40 l 660 0 l 901 0 l 901 40 l 879 40 b 829 96 843 40 829 72 z "},"":{"ha":669,"x_min":0,"x_max":0,"o":"m 129 97 b 75 40 129 64 111 40 l 35 40 l 35 0 l 150 0 b 344 -11 215 0 276 -11 b 646 229 543 -11 646 107 b 417 449 646 367 543 449 b 283 385 374 449 283 446 b 324 340 283 357 306 346 b 414 394 324 350 354 394 b 546 231 503 394 546 324 b 335 49 546 143 482 49 b 229 74 304 49 258 57 l 229 607 b 306 667 229 653 258 667 l 339 667 l 339 708 l 35 708 l 35 667 l 75 667 b 129 606 104 667 129 644 z "},"":{"ha":728,"x_min":0,"x_max":0,"o":"m 336 396 b 189 333 275 396 189 396 b 247 276 189 313 208 276 b 367 328 263 325 326 328 l 560 328 b 303 47 554 122 413 47 b 90 172 189 47 104 103 b 21 110 47 172 21 149 b 299 -18 21 29 138 -18 b 665 356 463 -18 665 78 b 325 725 665 639 494 725 b 26 581 175 725 26 685 b 101 501 26 526 69 501 b 321 664 101 618 221 664 b 557 396 453 664 542 582 z "},"":{"ha":1047,"x_min":0,"x_max":0,"o":"m 289 346 b 628 -18 294 146 414 -18 b 979 356 864 -18 979 156 b 632 724 979 564 874 724 b 293 410 417 724 314 594 l 247 410 b 229 426 233 410 229 426 l 229 618 b 265 667 229 650 253 667 l 294 667 l 294 708 l 42 708 l 42 667 l 78 667 b 129 615 122 667 129 626 l 129 100 b 75 42 129 89 121 42 l 42 42 l 42 0 l 294 0 l 294 42 l 272 42 b 229 100 236 42 229 89 l 229 331 b 247 346 229 331 232 346 z m 393 353 b 631 661 396 514 479 661 b 874 356 783 661 874 535 b 631 47 874 176 786 47 b 393 353 472 47 393 188 z "},"Æ":{"ha":1299,"x_min":0,"x_max":0,"o":"m 596 404 l 285 404 b 394 578 326 468 354 515 b 578 864 501 746 553 854 b 596 822 592 864 596 851 z m 349 940 l 349 900 l 382 900 b 454 856 446 900 454 875 b 85 263 454 804 136 350 b 14 67 33 175 14 128 b 96 -24 14 43 25 -24 b 179 22 146 -24 179 10 b 138 92 144 22 138 67 b 232 318 138 161 207 276 l 596 318 l 596 131 b 503 42 596 99 572 42 l 469 42 l 469 0 l 968 0 b 1242 143 1103 0 1242 24 b 1167 224 1242 185 1207 224 b 938 63 1167 200 1119 63 b 706 114 840 63 706 64 l 706 457 l 846 457 b 935 394 908 457 935 432 b 1024 475 974 394 1024 435 b 943 528 1024 496 1013 528 l 706 528 l 706 819 b 921 888 706 879 831 888 b 1122 708 1078 888 1122 833 b 1204 817 1168 708 1204 765 b 1015 956 1203 913 1168 956 b 693 940 944 956 761 940 z "},"æ":{"ha":1211,"x_min":0,"x_max":0,"o":"m 510 321 b 836 -17 514 135 628 -17 b 1100 122 1018 -17 1100 47 b 1057 181 1100 156 1079 172 b 836 47 1029 133 972 47 b 603 324 697 47 603 167 b 843 631 603 514 714 631 b 1040 411 979 631 1040 528 b 1011 374 1040 382 1033 374 l 781 374 b 694 317 736 374 694 360 b 708 282 694 308 697 293 b 900 311 763 311 831 311 l 1013 311 b 1132 413 1097 311 1132 311 b 846 690 1132 581 1011 690 b 586 557 731 690 636 640 b 357 690 564 624 488 690 b 107 547 219 690 107 638 b 174 464 107 471 174 464 b 357 628 174 500 197 628 b 513 381 500 628 513 490 l 422 381 b 67 181 219 381 67 339 b 304 -10 67 40 192 -10 b 483 65 456 -10 483 36 b 451 117 483 86 457 117 b 303 50 451 117 399 50 b 163 179 242 50 163 88 b 421 321 163 278 253 321 z "},"ß":{"ha":717,"x_min":0,"x_max":0,"o":"m 439 -6 b 675 217 589 -6 675 86 b 436 526 675 386 436 404 b 493 601 436 549 457 583 b 596 801 572 647 596 708 b 361 1001 596 938 496 1001 b 121 713 274 1001 121 969 b 11 656 121 713 121 656 l 11 600 l 121 600 l 121 117 b 53 36 121 81 97 36 l 11 36 l 11 0 l 82 0 b 211 143 163 0 211 33 l 211 740 b 360 940 211 867 268 940 b 503 789 439 940 503 894 b 421 629 503 719 492 669 b 343 513 361 596 343 561 b 576 206 343 389 576 347 b 439 54 576 108 519 54 b 335 121 371 54 342 108 b 288 78 304 121 288 101 b 439 -6 288 15 386 -6 z "},"¢":{"ha":576,"x_min":0,"x_max":0,"o":"m 265 -189 b 367 -122 299 -187 367 -178 l 367 -14 b 583 114 517 0 583 64 b 533 178 583 138 564 160 b 317 47 511 140 461 47 b 94 333 185 47 94 172 b 329 629 94 494 190 629 b 497 458 447 629 497 628 b 579 547 539 458 579 493 b 367 693 579 674 504 690 l 367 800 b 265 867 367 854 299 865 l 265 686 b -4 333 82 650 -4 485 b 265 -12 -4 174 81 11 z "},"Ø":{"ha":1018,"x_min":0,"x_max":0,"o":"m 258 160 b 156 467 192 239 156 349 b 503 894 156 679 264 894 b 710 826 586 894 656 869 z m 768 769 b 863 467 828 694 863 586 b 513 46 863 232 729 46 b 319 106 439 46 374 68 z m 125 -39 b 167 -69 132 -60 149 -69 b 225 -35 190 -69 211 -53 b 276 42 243 -10 258 17 b 510 -24 344 -1 421 -24 b 971 467 804 -24 971 204 b 821 849 971 619 919 757 l 899 963 b 857 978 882 971 874 978 b 788 940 829 978 800 965 l 757 896 b 506 960 690 938 608 960 b 47 467 217 960 47 750 b 210 89 47 315 110 178 z "},"‡":{"ha":668,"x_min":0,"x_max":0,"o":"m 422 386 b 368 626 422 386 372 525 b 533 601 426 621 483 610 b 603 592 565 596 592 592 b 675 660 639 592 675 614 b 601 719 675 697 644 719 b 526 710 589 719 561 715 b 368 688 482 703 422 693 b 393 864 372 743 385 813 b 403 933 399 893 403 924 b 335 1001 403 974 378 1001 b 261 935 285 1001 261 971 b 271 867 261 924 265 900 b 297 686 281 815 293 744 b 131 710 240 690 178 701 b 63 719 99 715 75 719 b -11 660 19 719 -11 697 b 61 592 -11 614 24 592 b 129 601 72 592 99 596 b 294 626 176 608 238 621 b 243 385 294 506 243 385 b 294 136 265 319 292 238 b 129 160 235 142 181 151 b 61 169 99 165 72 169 b -11 101 24 169 -11 147 b 63 43 -11 64 19 43 b 131 53 75 43 99 47 b 297 75 178 60 240 71 b 271 -106 293 17 281 -54 b 261 -174 265 -139 261 -162 b 335 -240 261 -210 285 -240 b 403 -172 378 -240 403 -212 b 393 -103 403 -161 399 -135 b 368 74 385 -50 372 14 b 526 51 425 68 479 60 b 601 43 557 47 590 43 b 675 101 644 43 675 64 b 603 169 675 147 639 169 b 533 160 592 169 565 165 b 368 136 488 153 424 142 b 422 386 369 231 411 331 z "},"¿":{"ha":664,"x_min":0,"x_max":0,"o":"m 336 693 b 343 642 340 675 343 658 b 79 206 343 457 79 392 b 326 -7 79 63 183 -7 b 588 182 474 -7 588 76 b 508 281 588 256 539 281 b 322 58 508 233 499 58 b 189 213 231 58 189 131 b 289 396 189 274 217 332 b 436 599 389 483 436 525 b 336 693 436 658 401 693 z m 268 890 b 350 818 268 844 300 818 b 429 890 392 818 429 844 b 350 958 429 933 390 958 b 268 890 304 958 268 935 z "},"¡":{"ha":256,"x_min":0,"x_max":0,"o":"m 199 101 b 174 635 197 253 189 438 b 83 742 169 681 161 742 b 94 564 89 713 94 663 b 65 13 94 324 94 71 b 115 -7 75 -6 100 -7 b 199 101 174 -7 199 47 z m 214 911 b 132 979 214 956 178 979 b 53 911 92 979 53 954 b 132 839 53 865 90 839 b 214 911 182 839 214 865 z "},"ø":{"ha":799,"x_min":0,"x_max":0,"o":"m 56 328 b 146 76 56 240 82 147 l 86 1 b 129 -24 89 -18 110 -24 b 182 8 143 -24 165 -14 b 200 31 189 15 193 22 b 397 -24 250 -6 311 -24 b 729 328 644 -24 729 163 b 644 590 729 418 708 518 l 678 632 b 736 679 704 663 736 679 b 679 699 736 679 708 699 b 608 657 650 699 629 682 l 592 636 b 397 689 544 669 483 689 b 56 328 131 689 56 496 z m 147 328 b 397 625 147 463 207 625 b 546 579 460 625 508 607 l 196 140 b 147 328 160 192 147 258 z m 639 328 b 397 40 639 185 571 40 b 243 88 336 40 282 60 l 592 524 b 639 328 624 469 639 396 z "},"Ω":{"ha":1000,"x_min":0,"x_max":0,"o":"m 588 0 b 719 -1 607 0 663 0 b 857 -4 778 -3 836 -4 b 1024 146 983 -4 1024 31 b 956 229 1024 203 988 229 b 699 51 956 158 931 56 b 953 501 786 156 953 261 b 536 960 953 774 821 960 b 113 501 275 960 113 785 b 357 51 113 281 271 164 b 114 229 133 54 114 158 b 44 146 82 229 44 203 b 213 -4 44 13 106 -4 b 338 -1 232 -4 286 -3 b 475 0 390 0 456 0 b 378 168 475 58 431 110 b 219 501 307 247 219 342 b 533 894 219 713 328 894 b 844 501 750 894 844 738 b 675 161 844 331 751 238 b 588 0 619 107 588 61 z "},"´":{"ha":196,"x_min":0,"x_max":0,"o":"m 214 985 b 139 1046 190 1022 165 1046 b 90 1010 114 1046 100 1033 b 7 844 75 958 44 893 b -25 808 -11 826 -25 814 b 14 781 -25 793 -8 781 b 214 985 75 781 214 922 z "},"¨":{"ha":506,"x_min":0,"x_max":0,"o":"m 213 824 b 133 889 213 864 181 889 b 54 824 88 889 54 864 b 133 761 54 785 92 761 b 213 824 178 761 213 783 z m 447 824 b 368 889 447 864 415 889 b 288 824 322 889 288 864 b 368 761 288 785 326 761 b 447 824 413 761 447 783 z "},"¥":{"ha":858,"x_min":0,"x_max":0,"o":"m 325 464 b 376 346 356 410 376 364 l 376 282 l 250 282 b 164 263 228 282 182 282 b 138 197 143 243 138 204 b 250 217 138 197 190 217 l 376 217 l 376 118 b 304 42 376 83 356 42 l 240 42 l 240 0 l 625 0 l 625 42 l 553 42 b 478 118 503 42 478 75 l 478 217 l 635 217 b 731 325 731 217 731 325 b 615 282 731 325 672 282 l 478 282 l 478 364 b 536 465 482 374 503 411 l 644 465 b 731 576 731 465 731 576 b 615 535 731 576 672 535 l 575 535 b 700 735 618 603 657 668 b 825 825 733 783 775 824 l 858 825 l 858 867 l 526 867 l 526 825 l 567 825 b 617 789 601 825 617 808 b 606 742 617 776 615 763 b 436 442 592 714 471 506 b 239 778 369 553 310 668 b 81 879 178 869 142 879 b -1 814 11 879 -1 814 b 39 822 -1 814 26 822 b 285 531 75 822 118 815 l 250 531 b 164 511 228 531 182 531 b 138 444 143 490 138 451 b 250 464 138 444 190 464 z "},"∂":{"ha":629,"x_min":0,"x_max":0,"o":"m 300 592 b 3 282 131 592 3 461 b 251 -18 3 104 88 -18 b 585 457 422 -18 585 168 b 311 904 585 754 496 904 b 174 797 183 904 174 821 b 297 835 239 835 272 835 b 488 465 411 835 488 735 b 251 42 488 168 353 42 b 99 282 144 42 99 149 b 290 532 99 417 171 532 b 403 469 375 532 403 469 b 419 514 403 469 419 483 b 300 592 419 558 385 592 z "},"∑":{"ha":992,"x_min":0,"x_max":0,"o":"m 129 -131 b 33 -192 111 -153 68 -192 l 10 -192 l 10 -233 l 74 -233 b 693 -251 382 -233 557 -251 b 908 -112 857 -251 908 -192 b 836 -3 908 -11 836 -3 b 592 -175 836 -46 811 -175 b 258 -131 458 -175 258 -171 b 613 367 258 -124 261 -117 l 356 810 b 335 857 342 833 335 846 b 544 883 335 883 479 883 b 788 672 676 883 788 868 b 871 793 835 672 871 732 b 692 940 871 915 814 940 l 89 940 l 89 900 l 117 900 b 226 811 172 900 197 861 l 488 358 z "},"∏":{"ha":1010,"x_min":0,"x_max":0,"o":"m 703 872 b 744 821 739 872 744 858 l 744 -124 b 665 -196 744 -153 722 -196 l 635 -196 l 635 -237 l 965 -237 l 965 -196 l 914 -196 b 846 -124 861 -196 846 -137 l 846 833 b 908 900 846 872 882 900 l 954 900 l 954 940 l 43 940 l 43 900 l 82 900 b 153 829 118 900 153 872 l 153 -124 b 78 -196 153 -137 142 -196 l 43 -196 l 43 -237 l 364 -237 l 364 -196 l 314 -196 b 254 -124 264 -196 254 -153 l 254 825 b 293 872 254 865 265 872 z "},"π":{"ha":874,"x_min":0,"x_max":0,"o":"m 711 554 b 778 619 711 603 750 619 l 822 619 l 822 656 l 43 656 l 43 619 l 88 619 b 151 554 115 619 151 606 l 151 106 b 90 36 151 64 121 36 l 43 36 l 43 0 l 351 0 l 351 36 l 304 36 b 243 106 271 36 243 64 l 243 561 b 269 592 243 576 247 592 l 590 592 b 619 561 608 592 619 579 l 619 118 b 747 0 619 64 628 0 l 819 0 l 819 36 l 786 36 b 711 118 714 36 711 94 z "},"∫":{"ha":524,"x_min":0,"x_max":0,"o":"m 214 -114 b 136 -247 214 -192 199 -247 b 50 -153 67 -247 50 -153 b -12 -203 50 -153 -12 -160 b 136 -311 -12 -261 46 -311 b 306 -104 217 -311 306 -275 l 306 783 b 389 921 306 861 326 921 b 469 825 463 921 469 825 b 532 886 469 825 532 825 b 390 981 532 944 481 981 b 214 774 310 981 214 944 z "},"ﬁ":{"ha":792,"x_min":0,"x_max":0,"o":"m 464 600 b 565 519 549 600 565 553 l 565 113 b 497 36 565 88 549 36 l 456 36 l 456 0 l 765 0 l 765 36 l 725 36 b 657 113 671 36 657 88 l 657 519 b 508 656 657 565 646 656 l 233 656 l 233 740 b 415 943 233 872 321 943 b 549 835 504 943 549 908 b 599 813 564 818 585 813 b 667 881 631 813 667 836 b 415 1001 667 990 510 1001 b 142 713 328 1001 142 969 b 60 656 142 713 138 656 l 33 656 l 33 600 l 142 600 l 142 124 b 67 36 142 88 129 36 l 33 36 l 33 0 l 343 0 l 343 36 l 314 36 b 233 124 251 36 233 83 l 233 600 z "},"ﬂ":{"ha":903,"x_min":0,"x_max":0,"o":"m 574 968 b 421 1008 506 968 513 1008 b 142 713 239 1008 142 871 b 60 656 142 713 140 656 l 33 656 l 33 600 l 142 600 l 142 124 b 67 36 142 88 125 36 l 33 36 l 33 0 l 344 0 l 344 36 l 314 36 b 233 124 253 36 233 83 l 233 600 l 283 600 b 433 542 385 600 433 582 b 481 608 433 542 481 556 b 404 656 481 649 439 656 l 233 656 l 233 686 b 442 944 233 829 308 944 b 597 782 569 944 597 864 l 597 192 b 765 -14 597 22 686 -14 b 911 86 856 -14 911 26 b 871 139 911 128 871 139 b 765 49 871 139 835 49 b 689 182 703 49 689 104 l 689 847 b 574 968 689 933 642 968 z "},"‰":{"ha":1549,"x_min":0,"x_max":0,"o":"m 736 254 b 863 447 736 342 758 447 b 989 254 968 447 989 346 b 863 64 989 160 957 64 b 736 254 765 64 736 160 z m 647 254 b 863 0 647 138 710 0 b 1078 254 1019 0 1078 132 b 863 513 1078 375 1028 513 b 647 254 696 513 647 369 z m 138 622 b 264 815 138 710 160 815 b 390 622 369 815 390 714 b 264 432 390 528 358 432 b 138 622 167 432 138 528 z m 50 622 b 264 367 50 504 111 367 b 479 622 421 367 479 499 b 264 879 479 742 429 879 b 50 622 97 879 50 736 z m 742 889 l 293 0 l 383 0 l 832 889 z m 1188 254 b 1315 447 1188 342 1211 447 b 1440 254 1419 447 1440 346 b 1315 64 1440 160 1410 64 b 1188 254 1218 64 1188 160 z m 1100 254 b 1315 0 1100 138 1161 0 b 1529 254 1471 0 1529 132 b 1315 513 1529 375 1479 513 b 1100 254 1147 513 1100 369 z "},"‹":{"ha":657,"x_min":0,"x_max":0,"o":"m 18 388 b 14 386 17 388 15 386 b -11 364 -3 378 -11 374 b 39 324 -11 340 25 335 l 538 50 b 560 101 554 67 560 89 b 517 168 560 117 550 151 l 133 361 l 510 547 b 569 611 550 567 569 592 b 538 664 569 625 556 649 z "},"›":{"ha":658,"x_min":0,"x_max":0,"o":"m 104 664 b 72 611 86 649 72 625 b 132 547 72 592 92 567 l 508 361 l 125 168 b 82 101 92 151 82 117 b 104 50 82 89 88 67 l 603 324 b 653 364 617 335 653 340 b 628 386 653 374 644 378 b 624 388 626 386 625 388 z "},"˜":{"ha":639,"x_min":0,"x_max":0,"o":"m 218 861 b 475 799 299 861 382 799 b 575 876 522 799 575 818 b 539 929 575 901 557 929 b 467 874 539 906 514 874 b 215 932 404 874 315 932 b 68 847 140 932 68 907 b 94 796 68 817 92 796 b 218 861 94 796 124 861 z "},"˘":{"ha":507,"x_min":0,"x_max":0,"o":"m 38 1081 b 238 979 38 1021 124 979 b 456 1086 354 979 456 1022 b 382 1169 456 1154 382 1169 b 236 1040 382 1169 347 1040 b 106 1139 138 1040 106 1114 b 97 1147 106 1146 101 1147 b 38 1081 76 1147 38 1119 z "},"˚":{"ha":406,"x_min":0,"x_max":0,"o":"m 125 908 b 204 1007 125 949 146 1007 b 281 908 263 1007 281 949 b 204 813 281 864 261 813 b 125 908 149 813 125 864 z m 47 908 b 204 758 47 838 96 758 b 357 908 315 758 357 844 b 204 1057 357 978 315 1057 b 47 908 90 1057 47 978 z "},"¸":{"ha":300,"x_min":0,"x_max":0,"o":"m 86 -343 b 297 -190 165 -343 297 -301 b 197 -93 297 -131 257 -93 b 169 -92 186 -93 178 -92 b 146 -85 151 -90 146 -90 b 221 13 146 -68 197 -1 b 139 35 201 18 139 35 b 64 -104 94 -8 64 -81 b 139 -144 64 -142 81 -144 b 214 -201 210 -144 214 -179 b 107 -281 214 -254 163 -281 b 28 -242 74 -281 44 -257 b 7 -292 24 -249 7 -274 b 86 -343 7 -332 53 -343 z "},"˝":{"ha":479,"x_min":0,"x_max":0,"o":"m 236 992 b 172 1047 214 1025 192 1047 b 139 1019 157 1047 147 1038 b 51 846 122 965 92 897 b 19 813 40 835 19 818 b 47 792 19 801 31 792 b 239 988 103 792 239 944 z m 450 992 b 386 1047 428 1025 406 1047 b 353 1019 369 1047 361 1038 b 264 846 336 965 306 897 b 233 813 254 835 233 818 b 261 792 233 801 244 792 b 453 988 317 792 453 944 z "},"˛":{"ha":313,"x_min":0,"x_max":0,"o":"m 185 61 b 10 -201 101 -7 10 -108 b 149 -336 10 -269 65 -336 b 303 -249 207 -336 303 -312 b 242 -206 303 -221 251 -206 b 167 -281 235 -242 208 -281 b 100 -192 125 -281 100 -242 b 264 61 100 -133 163 -42 z "},"ˇ":{"ha":404,"x_min":0,"x_max":0,"o":"m 335 924 b 390 978 365 963 390 978 b 343 1004 390 986 376 1004 b 186 844 272 1004 222 893 b 65 1003 142 896 81 943 b 3 949 58 1003 3 989 b 192 749 3 921 28 904 b 335 924 192 749 308 892 z "},"ı":{"ha":378,"x_min":0,"x_max":0,"o":"m 321 35 b 246 111 289 35 246 60 l 246 546 b 146 654 246 614 225 654 l 50 654 l 50 618 l 83 618 b 154 546 132 618 154 592 l 154 111 b 79 35 154 56 111 35 l 46 35 l 46 -1 l 354 -1 l 354 35 z "},"ˆ":{"ha":408,"x_min":0,"x_max":0,"o":"m 58 829 b 3 775 28 790 3 775 b 50 749 3 767 17 749 b 207 908 121 749 171 860 b 328 750 251 857 313 810 b 390 804 335 750 390 764 b 201 1004 390 832 365 849 b 58 829 201 1004 85 861 z "},"˙":{"ha":225,"x_min":0,"x_max":0,"o":"m 188 971 b 110 1038 188 1013 157 1038 b 33 971 69 1038 33 1013 b 110 907 33 931 72 907 b 188 971 153 907 188 928 z "},"⁄":{"ha":481,"x_min":0,"x_max":0,"o":"m 490 1076 b 454 1082 490 1076 471 1082 b 389 1044 433 1082 401 1074 l -14 -103 l 18 -103 b 94 -47 49 -103 76 -97 z "},"‚":{"ha":229,"x_min":0,"x_max":0,"o":"m 128 150 b 46 83 71 150 46 115 b 88 18 46 46 68 31 b 110 -18 100 11 110 4 b 36 -99 110 -65 57 -99 b 75 -131 36 -99 46 -131 b 211 60 168 -131 211 -10 b 128 150 211 104 189 150 z "},"·":{"ha":489,"x_min":0,"x_max":0,"o":"m 325 574 b 249 640 325 615 294 640 b 171 574 207 640 171 615 b 249 510 171 533 210 510 b 325 574 290 510 325 531 z "},"Ѝ":{"ha":1019,"x_min":0,"x_max":0,"o":"m 954 42 b 871 126 915 42 871 75 l 871 824 b 947 900 871 876 904 900 l 982 900 l 982 940 l 878 940 b 650 758 785 940 738 893 b 276 193 561 618 382 354 l 276 833 b 338 900 276 881 313 900 l 368 900 l 368 940 l 56 940 l 56 900 l 93 900 b 175 824 133 900 175 883 l 175 135 b 115 29 175 64 115 29 b 174 -19 119 -4 149 -19 b 265 39 213 -19 235 1 b 771 789 296 78 668 633 l 771 107 b 708 42 771 76 746 42 l 679 42 l 679 0 l 999 0 l 999 42 z m 435 1210 b 625 1010 435 1167 569 1010 b 639 1024 633 1010 639 1017 b 608 1056 639 1026 613 1053 b 525 1249 563 1111 544 1188 b 504 1267 519 1261 514 1267 b 435 1210 490 1267 457 1246 z "},"Ў":{"ha":1157,"x_min":0,"x_max":0,"o":""},"Ї":{"ha":435,"x_min":0,"x_max":0,"o":"m 268 840 b 328 900 268 872 293 900 l 374 900 l 374 940 l 58 940 l 58 900 l 99 900 b 167 840 136 900 167 879 l 167 118 b 99 42 167 75 143 42 l 60 42 l 60 0 l 374 0 l 374 42 l 335 42 b 268 118 306 42 268 68 z m 156 1075 b 78 1142 156 1117 125 1142 b 1 1075 38 1142 1 1117 b 78 1011 1 1035 40 1011 b 156 1075 121 1011 156 1032 z m 435 1075 b 357 1142 435 1117 404 1142 b 281 1075 317 1142 281 1117 b 357 1011 281 1035 319 1011 b 435 1075 400 1011 435 1032 z "},"ѐ":{"ha":717,"x_min":0,"x_max":0,"o":"m 560 304 b 678 406 643 304 678 304 b 393 690 678 574 558 690 b 56 324 169 690 56 529 b 379 -17 56 168 150 -17 b 640 114 561 -17 640 53 b 597 167 640 131 619 158 b 379 44 568 119 515 44 b 151 324 240 44 151 185 b 389 629 151 476 226 629 b 586 404 525 629 586 521 b 543 367 586 375 572 367 l 374 367 b 251 324 315 367 251 367 b 268 276 251 315 257 288 b 560 304 307 297 343 304 z m 256 992 b 446 792 256 949 390 792 b 460 806 454 792 460 799 b 429 838 460 808 433 835 b 346 1031 383 893 365 969 b 325 1049 340 1043 335 1049 b 256 992 311 1049 278 1028 z "},"ё":{"ha":765,"x_min":0,"x_max":0,"o":"m 310 832 b 243 889 310 868 283 889 b 178 832 208 889 178 868 b 243 778 178 797 211 778 b 310 832 279 778 310 796 z m 547 832 b 481 889 547 868 521 889 b 415 832 446 889 415 868 b 481 778 415 797 449 778 b 547 832 517 778 547 796 z m 567 304 b 685 406 650 304 685 304 b 400 690 685 574 565 690 b 63 324 176 690 63 529 b 386 -17 63 168 157 -17 b 647 114 568 -17 647 53 b 604 167 647 131 626 158 b 386 44 575 119 522 44 b 158 324 247 44 158 185 b 396 629 158 476 233 629 b 593 404 532 629 593 521 b 550 367 593 375 579 367 l 381 367 b 258 324 322 367 258 367 b 275 276 258 315 264 288 b 567 304 319 304 350 304 z "},"ї":{"ha":378,"x_min":0,"x_max":0,"o":"m 129 832 b 63 889 129 868 103 889 b -3 832 28 889 -3 868 b 63 778 -3 797 31 778 b 129 832 99 778 129 796 z m 367 832 b 300 889 367 868 340 889 b 235 832 265 889 235 868 b 300 778 235 797 268 778 b 367 832 336 778 367 796 z m 321 35 b 246 111 289 35 246 60 l 246 546 b 146 654 246 614 225 654 l 50 654 l 50 618 l 83 618 b 154 546 132 618 154 592 l 154 111 b 79 35 154 56 111 35 l 46 35 l 46 -1 l 354 -1 l 354 35 z "},"Œ":{"ha":1408,"x_min":0,"x_max":0,"o":"m 692 100 b 525 51 661 74 590 51 b 168 474 300 53 168 251 b 515 900 168 686 276 900 b 692 854 581 900 663 885 z m 779 940 b 518 965 728 940 569 965 b 60 474 229 965 60 757 b 522 -17 60 203 260 -17 b 735 0 575 -17 683 0 l 1056 0 b 1328 143 1190 0 1328 24 b 1253 224 1328 185 1293 224 b 1024 63 1253 200 1206 63 b 792 114 926 63 792 64 l 792 457 l 932 457 b 1021 394 994 457 1021 432 b 1110 475 1060 394 1110 435 b 1029 528 1110 496 1099 528 l 792 528 l 792 819 b 1007 888 792 879 917 888 b 1208 708 1164 888 1208 833 b 1290 817 1254 708 1290 765 b 1101 956 1289 913 1254 956 b 779 940 1031 956 847 940 z "},"œ":{"ha":1358,"x_min":0,"x_max":0,"o":"m 656 328 b 415 42 656 185 581 42 b 167 328 239 42 167 185 b 415 625 167 463 225 625 b 656 328 604 625 656 471 z m 985 631 b 1192 404 1139 631 1192 521 b 1149 367 1192 375 1178 367 l 954 367 b 853 311 896 367 853 354 b 865 275 853 303 854 286 b 1053 304 918 304 983 304 l 1165 304 b 1283 406 1249 304 1283 304 b 988 690 1283 574 1172 690 b 706 517 856 690 751 607 b 415 689 660 611 574 689 b 74 328 149 689 74 496 b 415 -22 74 163 168 -22 b 700 138 560 -22 651 42 b 981 -22 749 42 853 -22 b 1246 114 1165 -22 1246 53 b 1203 167 1246 131 1225 158 b 993 44 1154 88 1071 44 b 743 329 865 44 743 150 b 985 631 743 519 856 631 z "},"š":{"ha":638,"x_min":0,"x_max":0,"o":"m 321 735 b 517 964 364 789 458 926 b 469 990 517 972 503 990 b 317 826 414 990 353 875 b 193 989 272 878 208 929 b 139 935 186 989 139 975 b 321 735 139 907 157 890 z m 492 143 b 325 39 492 99 439 39 b 125 168 164 39 125 168 b 56 106 125 168 56 167 b 318 -25 56 36 178 -25 b 585 168 471 -25 585 44 b 158 518 585 388 158 331 b 326 624 158 586 236 624 b 486 463 415 624 486 588 b 560 544 500 463 560 471 b 326 685 560 618 499 685 b 67 506 156 685 67 596 b 492 143 67 261 492 338 z "},"Š":{"ha":728,"x_min":0,"x_max":0,"o":"m 363 425 b 593 214 588 331 593 261 b 375 49 593 169 561 49 b 125 269 144 49 125 269 b 50 169 125 269 50 257 b 360 -22 50 92 144 -22 b 694 225 571 -22 694 97 b 186 729 694 526 186 489 b 378 896 186 822 271 896 b 571 665 493 896 571 838 b 663 774 608 665 663 688 b 378 960 663 868 571 960 b 85 724 188 960 85 831 b 363 425 85 626 113 531 z m 513 1160 b 568 1214 543 1199 568 1214 b 521 1240 568 1222 554 1240 b 364 1081 450 1240 400 1129 b 243 1239 319 1132 258 1179 b 181 1185 236 1239 181 1225 b 369 985 181 1157 206 1140 b 513 1160 369 985 486 1128 z "},"ñ":{"ha":825,"x_min":0,"x_max":0,"o":"m 297 840 b 515 788 365 840 436 788 b 601 854 556 788 601 804 b 571 899 601 875 586 899 b 508 851 571 878 549 851 b 294 901 456 851 381 901 b 169 829 232 901 169 879 b 193 785 169 803 190 785 b 297 840 193 785 217 840 z m 775 36 b 693 125 710 36 693 92 l 693 449 b 451 681 693 581 618 681 b 219 554 338 681 254 614 b 124 656 219 608 204 656 l 32 656 l 32 622 l 64 622 b 132 547 122 622 132 579 l 132 97 b 68 36 132 58 94 36 l 32 36 l 32 0 l 306 0 l 306 36 l 278 36 b 224 106 239 36 224 72 l 224 333 b 438 614 224 508 318 614 b 600 417 539 614 600 558 l 600 124 b 706 0 600 58 631 0 l 794 0 l 794 36 z "},"Ñ":{"ha":1022,"x_min":0,"x_max":0,"o":"m 156 121 b 81 42 156 81 131 42 l 46 42 l 46 0 l 374 0 l 374 42 l 331 42 b 247 131 263 42 247 96 l 247 778 b 764 33 247 778 728 81 b 842 -10 786 3 818 -10 b 929 18 867 -10 906 -10 b 871 126 917 18 871 53 l 871 831 b 939 900 871 860 886 900 l 978 900 l 978 940 l 668 940 l 668 900 l 717 900 b 781 818 760 900 781 867 l 781 179 l 343 826 b 158 940 297 893 264 940 l 40 940 l 40 900 l 65 900 b 156 818 140 900 156 854 z m 418 1088 b 675 1025 499 1088 582 1025 b 775 1103 722 1025 775 1044 b 739 1156 775 1128 757 1156 b 667 1100 739 1132 714 1100 b 415 1158 604 1100 515 1158 b 268 1074 340 1158 268 1133 b 294 1022 268 1043 292 1022 b 418 1088 294 1022 324 1088 z "},"":{"ha":717,"x_min":0,"x_max":0,"o":"m 731 39 b 647 107 715 39 671 53 b 451 601 647 107 468 561 b 321 715 429 660 396 715 b 250 683 272 715 250 694 b 288 632 261 682 288 678 b 72 190 288 578 185 389 b 17 49 46 142 17 85 b 88 -18 17 32 22 -18 b 163 7 142 -18 163 1 b 135 69 147 8 135 32 b 188 221 135 107 161 172 l 493 221 b 546 85 529 129 539 100 b 550 69 549 79 550 74 b 514 39 550 53 533 39 l 489 39 l 489 0 l 757 0 l 757 39 z m 224 290 b 361 569 289 407 331 499 l 467 290 z "},"":{"ha":769,"x_min":0,"x_max":0,"o":"m 664 525 b 394 718 664 618 607 718 b 157 704 315 718 235 704 l 54 704 l 54 663 l 93 663 b 143 615 113 663 143 653 l 143 90 b 85 39 143 68 125 39 l 54 39 l 54 0 l 433 0 b 701 206 596 0 701 92 b 560 372 701 304 628 360 b 664 525 622 403 664 451 z m 417 56 b 240 90 303 56 256 82 b 242 467 240 293 242 382 l 242 632 b 374 660 274 646 336 660 b 560 519 528 660 560 590 b 425 392 560 449 501 392 b 357 403 397 392 357 403 b 340 368 357 403 340 382 b 410 329 340 338 375 329 b 596 199 518 329 596 313 b 417 56 596 140 538 56 z "},"":{"ha":719,"x_min":0,"x_max":0,"o":"m 594 506 b 668 592 629 506 668 517 b 421 721 668 665 622 721 b 54 347 264 721 54 629 b 399 -17 54 71 261 -17 b 654 104 526 -17 654 25 b 600 163 654 135 626 163 b 399 49 567 92 503 49 b 156 350 300 49 156 136 b 419 657 156 567 297 657 b 594 506 521 657 594 632 z "},"":{"ha":828,"x_min":0,"x_max":0,"o":"m 758 349 b 400 717 758 453 736 717 b 171 704 321 717 247 704 l 56 704 l 56 663 l 92 663 b 144 604 117 663 144 647 l 144 119 b 81 40 144 89 133 40 l 56 40 l 56 0 l 142 0 b 243 125 243 0 243 93 l 243 625 b 400 660 297 656 378 660 b 654 357 614 660 654 465 b 444 53 654 224 589 53 b 343 101 369 53 343 101 b 310 56 343 101 310 86 b 447 -7 310 17 347 -7 b 758 349 661 -7 758 210 z "},"":{"ha":744,"x_min":0,"x_max":0,"o":"m 438 717 b 183 704 372 717 279 704 l 56 704 l 56 663 l 89 663 b 142 606 132 663 142 624 l 142 96 b 89 42 142 78 131 42 l 53 42 l 53 0 l 439 0 b 671 108 551 0 671 17 b 594 171 671 144 636 171 b 426 54 594 154 563 54 b 240 94 353 54 240 56 l 240 335 l 364 335 b 439 288 392 335 439 324 b 496 336 460 288 496 303 b 406 390 496 376 472 390 l 240 390 l 240 615 b 401 656 240 653 335 656 b 553 519 536 656 553 614 b 638 606 581 519 638 528 b 438 717 638 708 563 717 z "},"":{"ha":631,"x_min":0,"x_max":0,"o":"m 138 94 b 82 40 138 76 125 40 l 49 40 l 49 0 l 354 0 l 354 40 l 311 40 b 236 107 288 40 236 51 l 236 335 l 360 335 b 435 288 388 335 435 324 b 492 336 456 288 492 303 b 401 390 492 376 468 390 l 236 390 l 236 615 b 397 656 236 653 331 656 b 549 519 532 656 549 614 b 633 606 576 519 633 528 b 433 717 633 708 558 717 b 179 704 368 717 275 704 l 51 704 l 51 663 l 85 663 b 138 606 128 663 138 624 z "},"":{"ha":818,"x_min":0,"x_max":0,"o":"m 417 -17 b 538 -8 456 -17 497 -12 b 663 0 579 -4 621 0 l 738 0 l 738 40 b 681 128 681 40 681 106 l 681 239 b 721 288 681 256 689 288 l 767 288 l 767 331 l 472 331 l 472 288 l 529 288 b 586 233 567 288 586 260 l 586 124 b 440 50 586 68 525 50 b 163 351 321 50 163 122 b 456 663 163 525 265 663 b 601 497 581 663 601 600 b 686 590 626 497 686 511 b 431 722 686 707 568 722 b 58 351 275 722 58 635 b 417 -17 58 144 193 -17 z "},"":{"ha":881,"x_min":0,"x_max":0,"o":"m 768 663 l 817 663 l 817 704 l 539 704 l 539 663 l 576 663 b 625 613 617 663 625 624 l 625 426 b 604 411 625 422 621 411 l 271 411 b 251 428 256 411 251 428 l 251 617 b 293 663 251 626 261 663 l 336 663 l 336 704 l 67 704 l 67 663 l 99 663 b 153 613 144 663 153 624 l 153 99 b 94 40 153 88 147 40 l 67 40 l 67 0 l 336 0 l 336 40 l 299 40 b 251 99 256 40 251 88 l 251 318 b 268 336 251 318 254 336 l 604 336 b 625 318 617 333 625 326 l 625 99 b 565 40 625 88 617 40 l 539 40 l 539 0 l 817 0 l 817 40 l 778 40 b 725 99 733 40 725 88 l 725 617 b 768 663 725 626 736 663 z "},"":{"ha":375,"x_min":0,"x_max":0,"o":"m 236 619 b 282 663 236 635 244 663 l 308 663 l 308 704 l 67 704 l 67 663 l 90 663 b 139 615 124 663 139 635 l 139 96 b 86 40 139 85 131 40 l 67 40 l 67 0 l 308 0 l 308 40 l 286 40 b 236 96 250 40 236 72 z "},"":{"ha":431,"x_min":0,"x_max":0,"o":"m 288 619 b 333 663 288 635 296 663 l 360 663 l 360 704 l 83 704 l 83 663 l 128 663 b 190 611 161 663 190 647 l 190 89 b 85 -147 190 -7 189 -147 b 4 -65 11 -147 4 -65 b -62 -126 4 -65 -62 -68 b 81 -210 -62 -171 -10 -210 b 288 164 235 -210 288 -104 z "},"":{"ha":817,"x_min":0,"x_max":0,"o":"m 607 197 b 438 371 574 265 501 349 b 626 607 533 424 574 528 b 706 663 647 638 675 663 l 726 663 l 726 704 l 499 704 l 499 663 l 519 663 b 539 643 528 663 539 660 b 306 390 539 604 414 390 l 236 390 l 236 615 b 274 663 236 643 254 663 l 310 663 l 310 704 l 50 704 l 50 663 l 94 663 b 139 615 125 663 139 639 l 139 94 b 94 40 139 64 118 40 l 50 40 l 50 0 l 317 0 l 317 40 l 282 40 b 236 94 260 40 236 58 l 236 326 b 304 333 249 332 271 333 b 532 126 425 333 485 217 b 679 -7 567 58 619 -7 b 750 54 732 -7 750 21 b 607 197 675 54 657 94 z "},"":{"ha":646,"x_min":0,"x_max":0,"o":"m 238 618 b 281 663 238 640 250 663 l 310 663 l 310 704 l 68 704 l 68 663 l 90 663 b 140 614 131 663 140 635 l 140 90 b 88 40 140 63 122 40 l 51 40 l 51 0 l 418 0 b 642 117 521 0 642 15 b 574 196 642 168 608 196 b 383 54 574 178 531 54 b 238 99 285 54 238 68 z "},"":{"ha":1183,"x_min":0,"x_max":0,"o":"m 1114 40 l 1078 40 b 1013 106 1036 40 1017 69 b 958 615 958 604 958 608 b 1017 663 958 649 985 663 l 1053 663 l 1053 704 l 919 704 b 772 590 815 704 783 619 b 589 140 710 428 651 285 l 378 613 b 247 704 346 682 319 704 l 115 704 l 115 663 l 153 663 b 210 617 203 663 208 640 l 158 101 b 89 40 154 75 140 40 l 58 40 l 58 0 l 304 0 l 304 40 l 286 40 b 254 90 258 40 254 76 b 293 569 254 110 282 533 l 442 242 b 522 51 492 131 522 67 b 513 13 522 32 517 18 b 560 -4 513 4 538 -4 b 636 49 586 -4 618 13 b 860 565 669 115 851 565 b 861 554 860 564 861 557 l 910 89 b 872 40 910 69 904 40 l 856 40 l 856 0 l 1114 0 z "},"":{"ha":883,"x_min":0,"x_max":0,"o":"m 153 103 b 96 40 153 64 129 40 l 65 40 l 65 0 l 339 0 l 339 40 l 304 40 b 242 110 257 40 242 78 l 242 554 b 633 26 242 554 606 63 b 714 -7 653 3 690 -7 b 782 25 736 -7 763 -6 b 738 75 767 25 738 49 l 738 608 b 788 663 738 633 756 663 l 822 663 l 822 704 l 560 704 l 560 663 l 599 663 b 649 600 629 663 649 636 l 649 156 b 315 608 561 274 360 553 b 160 704 267 669 225 704 l 61 704 l 61 663 l 89 663 b 153 600 138 663 153 626 z "},"":{"ha":817,"x_min":0,"x_max":0,"o":"m 401 -18 b 757 350 622 -18 757 153 b 406 721 757 554 640 721 b 51 350 188 721 51 563 b 401 -18 51 147 196 -18 z m 157 350 b 404 656 160 501 238 656 b 653 350 565 656 653 518 b 404 50 653 183 556 50 b 157 350 243 51 157 192 z "},"":{"ha":681,"x_min":0,"x_max":0,"o":"m 371 721 b 136 704 293 721 214 704 l 36 704 l 36 663 l 75 663 b 131 604 118 663 131 633 l 131 101 b 75 40 131 63 101 40 l 36 40 l 36 0 l 339 0 l 339 40 l 292 40 b 229 115 251 40 229 64 l 229 633 b 354 661 264 653 317 661 b 554 468 490 661 554 561 b 411 307 554 385 504 307 b 326 363 357 307 326 346 b 288 317 307 361 288 346 b 401 249 288 268 357 249 b 653 485 563 249 653 367 b 371 721 653 603 581 721 z "},"":{"ha":811,"x_min":0,"x_max":0,"o":"m 756 346 b 401 721 756 561 621 721 b 40 350 183 721 40 554 b 251 36 40 154 161 36 b 314 71 279 36 301 47 b 147 349 247 71 147 174 b 400 657 147 515 236 657 b 644 351 565 657 644 501 b 414 47 644 196 553 47 b 333 -17 367 47 333 31 b 351 -56 333 -28 339 -43 b 424 -31 351 -56 375 -31 b 706 -135 514 -31 594 -135 b 790 -37 790 -135 790 -53 b 711 -62 782 -46 758 -62 b 536 17 675 -62 624 -29 b 756 346 638 39 756 186 z "},"":{"ha":792,"x_min":0,"x_max":0,"o":"m 382 289 b 538 126 454 289 493 218 b 690 -7 585 29 631 -7 b 765 54 743 -7 765 21 b 638 156 696 54 672 96 b 503 313 600 221 563 313 b 656 510 571 324 656 401 b 374 719 656 624 568 719 b 161 704 299 719 232 704 l 46 704 l 46 663 l 88 663 b 140 607 121 663 140 638 l 140 104 b 88 40 140 71 122 40 l 46 40 l 46 0 l 343 0 l 343 40 l 300 40 b 240 104 264 40 240 68 l 240 629 b 365 661 275 650 329 661 b 556 504 510 661 556 583 b 413 351 556 443 519 351 b 340 368 368 351 340 368 b 321 329 321 350 321 342 b 382 289 321 308 340 289 z "},"":{"ha":642,"x_min":0,"x_max":0,"o":"m 75 532 b 476 161 75 290 476 319 b 325 43 476 114 442 43 b 126 204 167 43 126 204 b 56 129 126 204 56 197 b 318 -18 56 68 131 -18 b 578 167 474 -18 578 47 b 181 540 578 385 181 356 b 318 657 181 615 247 657 b 468 492 392 657 468 621 b 550 571 504 492 550 514 b 318 717 550 654 483 717 b 75 532 168 717 75 626 z "},"":{"ha":647,"x_min":0,"x_max":0,"o":"m 624 661 b 524 713 624 685 624 713 l 325 706 b 135 711 224 708 203 711 b 56 700 107 711 79 711 b 21 639 32 686 21 665 b 67 567 21 606 40 567 b 242 654 71 567 82 654 b 274 619 267 654 274 636 l 274 110 b 215 39 274 75 256 39 l 169 39 l 169 0 l 482 0 l 482 39 l 432 39 b 374 110 393 39 374 69 l 374 624 b 419 653 378 647 397 653 b 565 556 503 653 558 631 b 624 661 618 556 624 633 z "},"":{"ha":867,"x_min":0,"x_max":0,"o":"m 764 663 l 814 663 l 814 704 l 535 704 l 535 663 l 563 663 b 621 597 600 663 621 642 l 621 244 b 400 54 621 160 538 54 b 240 274 290 54 240 132 l 240 611 b 282 663 240 638 253 663 l 328 663 l 328 704 l 53 704 l 53 663 l 82 663 b 140 600 125 663 140 631 l 140 260 b 400 -8 140 110 211 -8 b 621 93 514 -8 583 39 b 728 0 621 42 667 0 l 814 0 l 814 39 l 786 39 b 721 129 742 39 721 72 l 721 611 b 764 663 721 638 733 663 z "},"":{"ha":742,"x_min":0,"x_max":0,"o":"m 701 638 b 632 719 701 692 678 719 b 575 706 624 719 586 715 b 590 639 589 688 590 657 b 383 119 590 544 431 213 b 196 621 376 133 196 571 b 256 663 196 646 211 663 l 282 663 l 282 704 l -24 704 l -24 663 l 8 663 b 303 85 85 663 92 608 b 314 39 308 71 314 54 b 297 3 314 26 310 15 b 343 -17 297 -4 319 -17 b 428 29 383 -17 411 -1 b 642 478 489 139 604 392 b 701 638 667 535 701 604 z "},"":{"ha":1178,"x_min":0,"x_max":0,"o":"m 883 43 b 1053 529 947 204 999 367 b 1167 663 1088 636 1114 663 l 1167 704 l 867 704 l 867 663 l 910 663 b 979 608 965 663 978 638 b 826 124 957 507 875 251 b 654 642 813 156 789 235 b 575 704 644 678 618 704 b 513 682 542 704 515 689 b 546 624 542 674 546 642 b 536 574 546 615 543 590 b 351 128 513 500 429 294 b 214 588 318 225 233 511 b 207 624 210 601 207 614 b 260 663 207 647 221 661 l 288 663 l 288 704 l -15 704 l -15 663 l 17 663 b 258 94 106 663 124 517 b 265 54 263 82 265 68 b 249 1 265 35 263 15 b 308 -17 249 -4 283 -17 b 394 33 338 -17 379 -1 b 601 499 436 121 539 351 b 733 111 625 428 639 386 b 750 40 742 86 750 65 b 738 1 750 28 749 14 b 794 -17 738 -6 768 -17 b 883 43 824 -17 867 1 z "},"":{"ha":775,"x_min":0,"x_max":0,"o":"m 604 114 b 429 360 556 176 486 278 b 706 663 522 496 618 663 l 726 663 l 726 704 l 439 704 l 439 663 l 482 663 b 511 638 501 663 511 654 b 385 424 511 613 457 529 b 256 640 317 528 256 611 b 285 663 256 656 264 663 l 335 663 l 335 704 l 26 704 l 26 663 l 57 663 b 164 594 106 663 135 631 b 331 353 164 594 271 439 b 19 40 210 190 114 40 l -7 40 l -7 0 l 329 0 l 329 40 l 290 40 b 238 67 256 40 238 43 b 375 289 238 101 354 263 l 539 44 b 646 -19 578 -15 617 -19 b 740 39 717 -19 740 39 b 604 114 683 39 640 67 z "},"":{"ha":672,"x_min":0,"x_max":0,"o":"m 404 704 l 404 663 l 432 663 b 478 633 464 663 478 651 b 468 603 478 625 476 619 l 336 379 b 171 639 282 468 228 556 b 43 718 122 711 89 718 b -31 661 -8 718 -31 661 b 117 571 44 661 75 625 b 278 292 163 504 278 325 l 278 113 b 213 40 278 74 256 40 l 169 40 l 169 0 l 493 0 l 493 40 l 443 40 b 378 113 413 40 378 64 l 378 306 b 560 596 394 338 478 469 b 664 663 588 638 619 663 l 688 663 l 688 704 z "},"":{"ha":750,"x_min":0,"x_max":0,"o":"m 686 663 l 711 663 l 711 704 l 368 704 b 92 646 138 704 124 688 b 74 581 81 626 74 603 b 146 489 74 536 97 493 b 428 651 153 650 290 651 b 507 629 471 651 507 651 b 499 604 507 622 504 614 l 132 88 b 58 40 119 69 94 40 l 35 40 l 35 0 l 175 0 b 514 -11 296 0 407 -11 b 696 101 665 -11 696 50 b 615 175 696 142 661 175 b 406 47 613 108 557 47 b 240 75 322 47 240 50 b 249 103 240 82 240 92 b 483 436 264 126 382 293 b 686 663 622 629 653 663 z "},"‒":{"ha":675,"x_min":0,"x_max":0,"o":"m 542 414 b 638 518 638 414 638 518 b 522 489 638 518 579 489 l 144 489 b 57 468 122 489 79 489 b 31 394 36 444 31 394 b 144 414 31 394 83 414 z "},"‑":{"ha":1157,"x_min":0,"x_max":0,"o":""},"‐":{"ha":1157,"x_min":0,"x_max":0,"o":""},"―":{"ha":764,"x_min":0,"x_max":0,"o":"m 625 342 b 721 446 721 342 721 446 b 606 417 721 446 663 417 l 144 417 b 57 396 122 417 79 417 b 31 322 36 372 31 322 b 144 342 31 322 83 342 z "},"Ѐ":{"ha":864,"x_min":0,"x_max":0,"o":"m 597 949 b 772 817 742 949 771 913 b 690 708 772 765 736 708 b 489 888 690 833 646 888 b 274 819 399 888 274 879 l 274 528 l 511 528 b 592 475 581 528 592 496 b 503 394 592 435 542 394 b 414 457 503 432 476 457 l 274 457 l 274 114 b 506 63 274 64 408 63 b 735 224 688 63 735 200 b 810 143 775 224 810 185 b 536 0 810 24 671 0 l 61 0 l 61 50 l 107 50 b 174 113 136 50 174 68 l 174 835 b 107 900 174 860 164 900 l 64 900 l 64 940 l 261 940 b 597 949 329 940 526 949 z m 329 1200 b 519 1000 329 1157 464 1000 b 533 1014 528 1000 533 1007 b 503 1046 533 1017 507 1043 b 419 1239 457 1101 439 1178 b 399 1257 414 1251 408 1257 b 329 1200 385 1257 351 1236 z "},"Ё":{"ha":886,"x_min":0,"x_max":0,"o":"m 597 949 b 772 817 742 949 771 913 b 690 708 772 765 736 708 b 489 888 690 833 646 888 b 274 819 399 888 274 879 l 274 528 l 511 528 b 592 475 581 528 592 496 b 503 394 592 435 542 394 b 414 457 503 432 476 457 l 274 457 l 274 114 b 506 63 274 64 408 63 b 735 224 688 63 735 200 b 810 143 775 224 810 185 b 536 0 810 24 671 0 l 61 0 l 61 50 l 107 50 b 174 113 136 50 174 68 l 174 835 b 107 900 174 860 164 900 l 64 900 l 64 940 l 261 940 b 597 949 329 940 526 949 z m 367 1081 b 289 1147 367 1122 336 1147 b 213 1081 249 1147 213 1122 b 289 1017 213 1040 251 1017 b 367 1081 332 1017 367 1038 z m 646 1081 b 568 1147 646 1122 615 1147 b 492 1081 528 1147 492 1122 b 568 1017 492 1040 531 1017 b 646 1081 611 1017 646 1038 z "},"−":{"ha":864,"x_min":0,"x_max":0,"o":"m 201 417 b 107 389 176 417 129 413 b 71 308 78 358 71 308 b 201 328 71 308 143 328 l 661 328 b 768 444 769 328 768 444 b 656 417 768 444 706 417 z "},"̀":{"ha":301,"x_min":0,"x_max":0,"o":"m 56 992 b 246 792 56 949 190 792 b 260 806 254 792 260 799 b 229 838 260 808 233 835 b 146 1031 183 893 165 969 b 125 1049 140 1043 135 1049 b 56 992 111 1049 78 1028 z "},"́":{"ha":196,"x_min":0,"x_max":0,"o":"m 208 985 b 147 1046 207 994 174 1046 b 110 1010 122 1046 117 1033 b 28 844 94 958 65 893 b -11 804 10 826 -11 810 b 14 781 -11 789 -8 781 b 208 985 67 781 208 922 z "},"̂":{"ha":408,"x_min":0,"x_max":0,"o":"m 201 1004 b 6 775 158 950 64 813 b 53 749 6 767 19 749 b 206 913 108 749 169 864 b 329 750 250 861 314 810 b 383 804 336 750 383 764 b 201 1004 383 832 365 849 z "},"̃":{"ha":639,"x_min":0,"x_max":0,"o":"m 218 861 b 475 799 299 861 382 799 b 575 876 522 799 575 818 b 539 929 575 901 557 929 b 467 874 539 906 514 874 b 215 932 404 874 315 932 b 68 847 140 932 68 907 b 94 796 68 817 92 796 b 218 861 94 796 124 861 z "},"̆":{"ha":507,"x_min":0,"x_max":0,"o":"m 38 1081 b 238 979 38 1021 124 979 b 456 1086 354 979 456 1022 b 382 1169 456 1154 382 1169 b 236 1040 382 1169 347 1040 b 106 1139 138 1040 106 1114 b 97 1147 106 1146 101 1147 b 38 1081 76 1147 38 1119 z "},"̈":{"ha":506,"x_min":0,"x_max":0,"o":"m 188 971 b 110 1038 188 1013 157 1038 b 33 971 69 1038 33 1013 b 110 907 33 931 72 907 b 188 971 153 907 188 928 z m 467 971 b 389 1038 467 1013 436 1038 b 313 971 349 1038 313 1013 b 389 907 313 931 351 907 b 467 971 432 907 467 928 z "},"̇":{"ha":225,"x_min":0,"x_max":0,"o":"m 188 971 b 110 1038 188 1013 157 1038 b 33 971 69 1038 33 1013 b 110 907 33 931 72 907 b 188 971 153 907 188 928 z "},"̊":{"ha":406,"x_min":0,"x_max":0,"o":"m 125 908 b 204 1007 125 949 146 1007 b 281 908 263 1007 281 949 b 204 813 281 864 261 813 b 125 908 149 813 125 864 z m 47 908 b 204 758 47 838 96 758 b 357 908 315 758 357 844 b 204 1057 357 978 315 1057 b 47 908 90 1057 47 978 z "},"̋":{"ha":479,"x_min":0,"x_max":0,"o":"m 236 992 b 172 1047 214 1025 192 1047 b 139 1019 157 1047 147 1038 b 51 846 122 965 92 897 b 19 813 40 835 19 818 b 47 792 19 801 31 792 b 239 988 103 792 239 944 z m 450 992 b 386 1047 428 1025 406 1047 b 353 1019 369 1047 361 1038 b 264 846 336 965 306 897 b 233 813 254 835 233 818 b 261 792 233 801 244 792 b 453 988 317 792 453 944 z "},"̌":{"ha":404,"x_min":0,"x_max":0,"o":"m 335 924 b 390 978 365 963 390 978 b 343 1004 390 986 376 1004 b 186 844 272 1004 222 893 b 65 1003 142 896 81 943 b 3 949 58 1003 3 989 b 192 749 3 921 28 904 b 335 924 192 749 308 892 z "},"ʹ":{"ha":294,"x_min":0,"x_max":0,"o":"m 260 985 b 185 1046 236 1022 211 1046 b 136 1010 160 1046 146 1033 b 53 844 121 958 90 893 b 21 808 35 826 21 814 b 60 781 21 793 38 781 b 260 985 121 781 260 922 z "},";":{"ha":203,"x_min":0,"x_max":0,"o":"m 192 532 b 111 603 192 576 160 603 b 31 532 68 603 31 576 b 111 463 31 488 69 463 b 192 532 156 463 192 486 z m 114 136 b 40 76 63 136 40 104 b 78 17 40 42 60 28 b 97 -15 89 11 97 4 b 31 -87 97 -58 50 -87 b 65 -117 31 -87 40 -117 b 189 54 150 -117 189 -8 b 114 136 189 94 168 136 z "},"΄":{"ha":196,"x_min":0,"x_max":0,"o":"m 214 985 b 139 1046 190 1022 165 1046 b 90 1010 114 1046 100 1033 b 7 844 75 958 44 893 b -25 808 -11 826 -25 814 b 14 781 -25 793 -8 781 b 214 985 75 781 214 922 z "},"̕":{"ha":219,"x_min":0,"x_max":0,"o":"m 114 960 b 39 894 60 960 39 925 b 76 835 39 864 58 849 b 100 796 89 828 100 818 b 31 732 100 750 49 732 b 67 701 31 732 40 701 b 193 874 146 701 193 807 b 114 960 193 911 175 960 z "},"·":{"ha":489,"x_min":0,"x_max":0,"o":"m 325 574 b 249 640 325 615 294 640 b 171 574 207 640 171 615 b 249 510 171 533 210 510 b 325 574 290 510 325 531 z "},"͵":{"ha":294,"x_min":0,"x_max":0,"o":"m 21 -78 b 96 -139 44 -115 69 -139 b 144 -103 121 -139 135 -126 b 228 63 160 -51 190 14 b 260 99 246 81 260 93 b 221 126 260 114 243 126 b 21 -78 160 126 21 -15 z "},"̨":{"ha":313,"x_min":0,"x_max":0,"o":"m 185 61 b 10 -201 101 -7 10 -108 b 149 -336 10 -269 65 -336 b 303 -249 207 -336 303 -312 b 242 -206 303 -221 251 -206 b 167 -281 235 -242 208 -281 b 100 -192 125 -281 100 -242 b 264 61 100 -133 163 -42 z "},"̧":{"ha":300,"x_min":0,"x_max":0,"o":"m 86 -343 b 297 -190 165 -343 297 -301 b 197 -93 297 -131 257 -93 b 169 -92 186 -93 178 -92 b 146 -85 151 -90 146 -90 b 221 13 146 -68 197 -1 b 139 35 201 18 139 35 b 64 -104 94 -8 64 -81 b 139 -144 64 -142 81 -144 b 214 -201 210 -144 214 -179 b 107 -281 214 -254 163 -281 b 28 -242 74 -281 44 -257 b 7 -292 24 -249 7 -274 b 86 -343 7 -332 53 -343 z "},"̦":{"ha":1157,"x_min":0,"x_max":0,"o":""},"ˉ":{"ha":1157,"x_min":0,"x_max":0,"o":""},"̄":{"ha":783,"x_min":0,"x_max":0,"o":"m 603 857 b 676 929 667 857 676 929 b 590 921 658 921 632 921 l 213 921 b 129 850 165 921 129 899 b 213 857 143 854 168 857 z "},"ǽ":{"ha":1211,"x_min":0,"x_max":0,"o":"m 510 321 b 836 -17 514 135 628 -17 b 1100 122 1018 -17 1100 47 b 1057 181 1100 156 1079 172 b 836 47 1029 133 972 47 b 603 324 697 47 603 167 b 843 631 603 514 714 631 b 1040 411 979 631 1040 528 b 1011 374 1040 382 1033 374 l 781 374 b 694 317 736 374 694 360 b 708 282 694 308 697 293 b 900 311 763 311 831 311 l 1013 311 b 1132 413 1097 311 1132 311 b 846 690 1132 581 1011 690 b 586 557 731 690 636 640 b 357 690 564 624 488 690 b 107 547 219 690 107 638 b 174 464 107 471 174 464 b 357 628 174 500 197 628 b 513 381 500 628 513 490 l 422 381 b 67 181 219 381 67 339 b 304 -10 67 40 192 -10 b 483 65 456 -10 483 36 b 451 117 483 86 457 117 b 303 50 451 117 399 50 b 163 179 242 50 163 88 b 421 321 163 278 253 321 z m 719 985 b 658 1046 718 994 685 1046 b 621 1010 633 1046 628 1033 b 539 844 606 958 576 893 b 500 804 521 826 500 810 b 525 781 500 789 503 781 b 719 985 578 781 719 922 z "},"ǿ":{"ha":799,"x_min":0,"x_max":0,"o":"m 56 328 b 146 76 56 240 82 147 l 86 1 b 129 -24 89 -18 110 -24 b 182 8 143 -24 165 -14 b 200 31 189 15 193 22 b 397 -24 250 -6 311 -24 b 729 328 644 -24 729 163 b 644 590 729 418 708 518 l 678 632 b 736 679 704 663 736 679 b 679 699 736 679 708 699 b 608 657 650 699 629 682 l 592 636 b 397 689 544 669 483 689 b 56 328 131 689 56 496 z m 147 328 b 397 625 147 463 207 625 b 546 579 460 625 508 607 l 196 140 b 147 328 160 192 147 258 z m 639 328 b 397 40 639 185 571 40 b 243 88 336 40 282 60 l 592 524 b 639 328 624 469 639 396 z m 513 985 b 451 1046 511 994 478 1046 b 414 1010 426 1046 421 1033 b 332 844 399 958 369 893 b 293 804 314 826 293 810 b 318 781 293 789 296 781 b 513 985 371 781 513 922 z "},"Ǿ":{"ha":1018,"x_min":0,"x_max":0,"o":"m 258 160 b 156 467 192 239 156 349 b 503 894 156 679 264 894 b 710 826 586 894 656 869 z m 768 769 b 863 467 828 694 863 586 b 513 46 863 232 729 46 b 319 106 439 46 374 68 z m 125 -39 b 167 -69 132 -60 149 -69 b 225 -35 190 -69 211 -53 b 276 42 243 -10 258 17 b 510 -24 344 -1 421 -24 b 971 467 804 -24 971 204 b 821 849 971 619 919 757 l 899 963 b 857 978 882 971 874 978 b 788 940 829 978 800 965 l 757 896 b 506 960 690 938 608 960 b 47 467 217 960 47 750 b 210 89 47 315 110 178 z m 622 1221 b 561 1282 621 1231 588 1282 b 524 1246 536 1282 531 1269 b 442 1081 508 1194 479 1129 b 403 1040 424 1063 403 1046 b 428 1017 403 1025 406 1017 b 622 1221 481 1017 622 1158 z "},"̒":{"ha":219,"x_min":0,"x_max":0,"o":"m 110 701 b 185 767 164 701 185 736 b 147 826 185 797 165 813 b 124 865 135 833 124 843 b 193 929 124 911 175 929 b 157 960 193 929 183 960 b 31 788 78 960 31 854 b 110 701 31 750 49 701 z "},"Ω":{"ha":1000,"x_min":0,"x_max":0,"o":"m 588 0 b 719 -1 607 0 663 0 b 857 -4 778 -3 836 -4 b 1024 146 983 -4 1024 31 b 956 229 1024 203 988 229 b 699 51 956 158 931 56 b 953 501 786 156 953 261 b 536 960 953 774 821 960 b 113 501 275 960 113 785 b 357 51 113 281 271 164 b 114 229 133 54 114 158 b 44 146 82 229 44 203 b 213 -4 44 13 106 -4 b 338 -1 232 -4 286 -3 b 475 0 390 0 456 0 b 378 168 475 58 431 110 b 219 501 307 247 219 342 b 533 894 219 713 328 894 b 844 501 750 894 844 738 b 675 161 844 331 751 238 b 588 0 619 107 588 61 z "},"∕":{"ha":481,"x_min":0,"x_max":0,"o":"m 490 1076 b 454 1082 490 1076 471 1082 b 389 1044 433 1082 401 1074 l -14 -103 l 18 -103 b 94 -47 49 -103 76 -97 z "},"∙":{"ha":429,"x_min":0,"x_max":0,"o":"m 213 274 b 340 396 289 274 340 319 b 217 518 340 472 289 518 b 88 399 144 518 88 472 b 213 274 88 314 143 274 z "},"℮":{"ha":1157,"x_min":0,"x_max":0,"o":""},"ﬃ":{"ha":1233,"x_min":0,"x_max":0,"o":"m 468 600 l 576 600 l 576 124 b 501 36 576 88 564 36 l 468 36 l 468 0 l 778 0 l 778 36 l 749 36 b 668 124 686 36 668 83 l 668 600 l 899 600 b 1000 519 983 600 1000 553 l 1000 113 b 932 36 1000 88 983 36 l 890 36 l 890 0 l 1200 0 l 1200 36 l 1160 36 b 1092 113 1106 36 1092 88 l 1092 519 b 943 656 1092 565 1081 656 l 668 656 l 668 740 b 850 944 668 872 756 944 b 983 835 939 944 983 908 b 1033 813 999 818 1019 813 b 1101 881 1065 813 1101 836 b 850 1003 1101 990 944 1003 b 576 724 763 1003 576 963 b 481 656 576 724 568 656 l 242 656 l 242 740 b 372 929 242 867 281 929 b 472 833 456 929 472 843 b 536 893 492 833 536 843 b 372 988 536 965 453 988 b 150 726 283 988 150 963 b 68 656 150 726 150 656 l 42 656 l 42 600 l 150 600 l 150 117 b 75 36 150 81 136 36 l 42 36 l 42 0 l 351 0 l 351 36 l 322 36 b 242 117 260 36 242 76 l 242 600 z "},"ﬄ":{"ha":1336,"x_min":0,"x_max":0,"o":"m 575 713 b 481 656 575 713 568 656 l 242 656 l 242 740 b 372 929 242 867 281 929 b 472 833 456 929 472 843 b 536 893 492 833 536 843 b 372 988 536 965 456 988 b 150 726 283 988 150 963 b 68 656 150 726 150 656 l 42 656 l 42 600 l 150 600 l 150 117 b 75 36 150 81 136 36 l 42 36 l 42 0 l 351 0 l 351 36 l 322 36 b 242 117 260 36 242 76 l 242 600 l 575 600 l 575 124 b 500 36 575 88 558 36 l 467 36 l 467 0 l 778 0 l 778 36 l 747 36 b 667 124 686 36 667 83 l 667 600 l 717 600 b 867 542 818 600 867 582 b 914 608 867 542 914 556 b 838 656 914 649 872 656 l 667 656 l 667 686 b 875 944 667 829 742 944 b 1031 782 1003 944 1031 864 l 1031 192 b 1199 -14 1031 22 1119 -14 b 1344 86 1289 -14 1344 26 b 1304 139 1344 128 1304 139 b 1199 49 1304 139 1268 49 b 1122 182 1136 49 1122 104 l 1122 847 b 1007 968 1122 933 1075 968 b 854 1008 939 968 946 1008 b 575 713 672 1008 575 871 z "},"ﬀ":{"ha":958,"x_min":0,"x_max":0,"o":"m 569 726 b 472 656 569 726 567 656 l 233 656 l 233 740 b 364 929 233 867 272 929 b 464 833 447 929 464 843 b 528 893 483 833 528 843 b 364 988 528 965 442 988 b 142 726 275 988 142 963 b 60 656 142 726 142 656 l 33 656 l 33 600 l 142 600 l 142 117 b 67 36 142 81 128 36 l 33 36 l 33 0 l 343 0 l 343 36 l 314 36 b 233 117 251 36 233 76 l 233 600 l 569 600 l 569 117 b 494 36 569 81 556 36 l 461 36 l 461 0 l 771 0 l 771 36 l 742 36 b 661 117 679 36 661 76 l 661 600 l 711 600 b 849 543 797 600 849 583 b 897 611 849 543 897 567 b 835 656 897 644 871 656 l 661 656 l 661 740 b 792 943 661 867 700 943 b 901 824 894 943 901 863 b 967 894 921 824 967 824 b 792 1001 967 975 881 1001 b 569 726 703 1001 569 963 z "},"":{"ha":1296,"x_min":0,"x_max":0,"o":"m 672 869 b 585 982 672 933 654 982 b 524 997 561 982 542 989 b 419 1021 500 1008 474 1021 b 142 715 332 1021 142 974 b 74 657 142 715 142 657 l 32 657 l 32 604 l 142 604 l 142 103 b 88 38 142 67 124 38 l 32 38 l 32 0 l 331 0 l 331 38 l 293 38 b 233 103 251 38 233 63 l 233 604 l 285 604 b 407 553 371 604 407 588 b 472 615 407 549 472 581 b 408 658 472 647 444 658 l 233 658 l 233 744 b 419 961 233 871 315 961 b 578 810 568 961 578 868 l 578 94 b 529 38 578 61 557 38 l 490 38 l 490 0 l 557 0 b 672 115 663 0 672 58 l 672 343 b 900 608 672 476 765 608 b 1114 326 1047 608 1114 478 b 903 44 1114 172 1036 44 b 790 100 822 44 790 100 b 749 58 768 100 749 81 b 903 -15 749 28 785 -15 b 1214 326 1118 -15 1214 178 b 900 671 1214 504 1128 671 b 672 546 793 671 713 611 z "},"":{"ha":1724,"x_min":0,"x_max":0,"o":"m 867 954 b 1006 810 985 954 1006 878 l 1006 94 b 957 38 1006 61 985 38 l 918 38 l 918 0 l 985 0 b 1100 115 1090 0 1100 58 l 1100 343 b 1328 608 1100 476 1193 608 b 1542 326 1475 608 1542 478 b 1331 44 1542 172 1464 44 b 1218 100 1250 44 1218 100 b 1176 58 1196 100 1176 81 b 1331 -15 1176 28 1213 -15 b 1642 326 1546 -15 1642 178 b 1328 671 1642 504 1556 671 b 1100 546 1221 671 1140 611 l 1100 869 b 1013 982 1100 933 1082 982 b 846 1018 944 982 938 1018 b 567 713 664 1018 567 871 b 472 656 567 713 560 656 l 233 656 l 233 740 b 364 929 233 867 272 929 b 464 833 447 929 464 843 b 528 893 483 833 528 843 b 364 988 528 965 447 988 b 142 726 275 988 142 963 b 60 656 142 726 142 656 l 33 656 l 33 600 l 142 600 l 142 117 b 67 36 142 81 128 36 l 33 36 l 33 0 l 343 0 l 343 36 l 314 36 b 233 117 251 36 233 76 l 233 600 l 567 600 l 567 124 b 492 36 567 88 550 36 l 458 36 l 458 0 l 769 0 l 769 36 l 739 36 b 658 124 678 36 658 83 l 658 600 l 708 600 b 851 542 810 600 851 582 b 899 608 851 542 899 556 b 822 656 899 649 857 656 l 658 656 l 658 686 b 867 954 658 829 733 954 z "},"":{"ha":1685,"x_min":0,"x_max":0,"o":"m 1172 0 l 1172 36 l 1149 36 b 1090 106 1122 36 1090 60 l 1090 344 b 1308 608 1090 478 1167 608 b 1469 417 1406 608 1469 550 l 1469 111 b 1565 0 1469 64 1492 0 l 1664 0 l 1664 36 l 1636 36 b 1564 113 1585 36 1564 79 l 1564 449 b 1322 676 1564 600 1476 676 b 1090 558 1213 676 1129 622 l 1090 869 b 1004 982 1090 933 1072 982 b 838 1018 936 982 929 1018 b 558 713 656 1018 558 871 b 464 656 558 713 551 656 l 225 656 l 225 740 b 356 929 225 867 264 929 b 456 833 439 929 456 843 b 519 893 475 833 519 843 b 356 988 519 965 439 988 b 133 726 267 988 133 963 b 51 656 133 726 133 656 l 25 656 l 25 600 l 133 600 l 133 117 b 58 36 133 81 119 36 l 25 36 l 25 0 l 335 0 l 335 36 l 306 36 b 225 117 243 36 225 76 l 225 600 l 558 600 l 558 124 b 483 36 558 88 542 36 l 450 36 l 450 0 l 761 0 l 761 36 l 731 36 b 650 124 669 36 650 83 l 650 600 l 700 600 b 843 542 801 600 843 582 b 890 608 843 542 890 556 b 814 656 890 649 849 656 l 650 656 l 650 686 b 858 954 650 829 725 954 b 997 810 976 954 997 878 l 997 94 b 949 38 997 61 976 38 l 910 38 l 910 0 z "},"":{"ha":1217,"x_min":0,"x_max":0,"o":"m 1096 519 b 947 656 1096 565 1085 656 l 672 656 l 672 740 b 854 944 672 872 760 944 b 988 835 943 944 988 908 b 1038 813 1003 818 1024 813 b 1106 881 1069 813 1106 836 b 854 1003 1106 990 949 1003 b 581 724 767 1003 581 963 b 485 656 581 724 572 656 l 246 656 l 246 740 b 376 929 246 867 285 929 b 476 833 460 929 476 843 b 540 893 496 833 540 843 b 376 988 540 965 457 988 b 154 726 288 988 154 963 b 72 656 154 726 154 656 l 46 656 l 46 600 l 154 600 l 154 117 b 79 36 154 81 140 36 l 46 36 l 46 0 l 356 0 l 356 36 l 326 36 b 246 117 264 36 246 76 l 246 600 l 581 600 l 581 124 b 506 36 581 88 568 36 l 472 36 l 472 0 l 782 0 l 782 36 l 753 36 b 672 124 690 36 672 83 l 672 600 l 903 600 b 1004 519 988 600 1004 553 l 1004 -44 b 918 -233 1004 -137 989 -233 b 842 -136 853 -233 842 -164 b 782 -194 814 -136 782 -154 b 924 -293 782 -253 833 -293 b 1097 -49 1014 -293 1097 -228 z "},"":{"ha":1618,"x_min":0,"x_max":0,"o":"m 910 0 l 1182 0 l 1182 38 l 1142 38 b 1090 93 1103 38 1090 76 l 1090 329 l 1182 329 b 1394 117 1279 329 1346 211 b 1419 68 1401 101 1413 81 b 1549 -28 1444 21 1485 -28 b 1619 42 1596 -28 1619 1 b 1447 203 1553 42 1511 60 b 1288 367 1389 315 1322 354 b 1428 513 1347 394 1393 460 b 1542 625 1463 568 1501 625 l 1582 625 l 1582 658 l 1293 658 l 1293 625 l 1340 625 b 1375 596 1361 625 1375 615 b 1369 569 1375 588 1374 578 b 1172 390 1360 542 1275 390 l 1090 390 l 1090 869 b 1004 982 1090 933 1072 982 b 838 1018 936 982 929 1018 b 558 713 656 1018 558 871 b 464 656 558 713 551 656 l 225 656 l 225 740 b 356 929 225 867 264 929 b 456 833 439 929 456 843 b 519 893 475 833 519 843 b 356 988 519 965 439 988 b 133 726 267 988 133 963 b 51 656 133 726 133 656 l 25 656 l 25 600 l 133 600 l 133 117 b 58 36 133 81 119 36 l 25 36 l 25 0 l 335 0 l 335 36 l 306 36 b 225 117 243 36 225 76 l 225 600 l 558 600 l 558 124 b 483 36 558 88 542 36 l 450 36 l 450 0 l 761 0 l 761 36 l 731 36 b 650 124 669 36 650 83 l 650 600 l 700 600 b 843 542 801 600 843 582 b 890 608 843 542 890 556 b 814 656 890 649 849 656 l 650 656 l 650 686 b 858 954 650 829 725 954 b 997 810 976 954 997 878 l 997 94 b 949 38 997 61 976 38 l 910 38 z "},"":{"ha":1372,"x_min":0,"x_max":0,"o":"m 233 658 l 233 744 b 364 929 233 871 272 929 b 464 833 447 929 464 843 b 528 893 483 833 528 843 b 364 988 528 965 442 988 b 142 731 275 988 142 967 b 60 660 142 731 142 660 l 33 660 l 33 604 l 142 604 l 142 117 b 67 36 142 81 128 36 l 33 36 l 33 0 l 343 0 l 343 36 l 314 36 b 233 117 251 36 233 76 l 233 604 l 610 604 l 610 103 b 556 38 610 67 592 38 l 500 38 l 500 0 l 813 0 l 813 38 l 761 38 b 701 103 719 38 701 63 l 701 604 l 1017 604 l 1017 188 b 1186 -29 1017 28 1097 -29 b 1339 72 1279 -29 1339 22 b 1293 124 1339 124 1293 124 b 1196 33 1293 124 1272 33 b 1108 188 1124 33 1108 110 l 1108 604 l 1243 604 b 1335 661 1303 604 1335 628 b 1293 703 1335 686 1317 699 b 1158 657 1293 688 1271 657 l 1108 657 l 1108 783 l 1053 783 l 1053 771 b 944 658 1053 700 1010 658 l 701 658 l 701 744 b 833 949 701 871 742 949 b 942 828 938 949 942 861 b 1015 900 982 828 1015 856 b 833 1007 1015 969 932 1007 b 610 717 744 1007 610 975 b 542 658 610 717 610 658 z "},"":{"ha":1603,"x_min":0,"x_max":0,"o":"m 701 658 l 701 744 b 833 949 701 871 742 949 b 942 828 938 949 942 861 b 1015 900 982 828 1015 856 b 833 1007 1015 969 932 1007 b 610 717 744 1007 610 975 b 542 658 610 717 610 658 l 233 658 l 233 744 b 364 929 233 871 272 929 b 464 833 447 929 464 843 b 528 893 483 833 528 843 b 364 988 528 965 442 988 b 142 731 275 988 142 967 b 60 660 142 731 142 660 l 33 660 l 33 604 l 142 604 l 142 117 b 67 36 142 81 128 36 l 33 36 l 33 0 l 343 0 l 343 36 l 314 36 b 233 117 251 36 233 76 l 233 604 l 610 604 l 610 103 b 556 38 610 67 592 38 l 500 38 l 500 0 l 813 0 l 813 38 l 761 38 b 701 103 719 38 701 63 l 701 604 l 847 604 b 976 518 939 604 961 561 b 1244 0 1042 340 1085 1 b 1078 -236 1215 -67 1172 -236 b 1006 -140 1024 -236 1006 -183 b 1021 -54 1006 -103 1013 -75 b 910 -150 1021 -54 910 -53 b 1076 -294 910 -208 954 -294 b 1333 -7 1208 -294 1275 -168 b 1528 551 1422 240 1497 468 b 1588 619 1546 601 1572 619 l 1615 619 l 1615 658 l 1326 658 l 1326 619 b 1435 575 1413 619 1433 599 b 1265 57 1424 507 1335 254 b 1065 556 1161 115 1111 415 b 886 660 1036 642 974 660 z "},"":{"ha":1267,"x_min":0,"x_max":0,"o":"m 142 715 b 74 657 142 715 142 657 l 32 657 l 32 604 l 142 604 l 142 124 b 67 36 142 88 125 36 l 33 36 l 33 0 l 344 0 l 344 36 l 314 36 b 233 124 253 36 233 83 l 233 600 l 283 600 b 426 542 385 600 426 582 b 474 608 426 542 474 556 b 397 656 474 649 432 656 l 233 656 l 233 686 b 442 954 233 829 288 954 b 581 810 560 954 581 878 l 581 94 b 532 38 581 61 560 38 l 493 38 l 493 0 l 756 0 l 756 36 l 732 36 b 674 106 706 36 674 60 l 674 344 b 892 608 674 478 750 608 b 1053 417 989 608 1053 550 l 1053 111 b 1149 0 1053 64 1075 0 l 1247 0 l 1247 36 l 1219 36 b 1147 113 1168 36 1147 79 l 1147 449 b 906 676 1147 600 1060 676 b 674 558 796 676 713 622 l 674 869 b 588 982 674 933 656 982 b 421 1018 519 982 513 1018 b 142 715 239 1018 142 874 z "},"":{"ha":786,"x_min":0,"x_max":0,"o":"m 560 543 l 560 -72 b 482 -235 560 -143 553 -235 b 404 -135 413 -235 404 -161 b 331 -196 375 -135 331 -154 b 482 -294 331 -254 392 -294 b 651 -62 572 -294 651 -235 l 651 56 b 653 543 651 139 653 543 b 532 658 653 589 653 658 l 219 658 l 219 744 b 400 949 219 878 306 949 b 535 854 489 949 535 915 b 590 826 550 838 567 826 b 656 886 622 826 656 840 b 400 1007 656 996 479 1007 b 128 717 313 1007 128 975 b 60 658 128 717 128 658 l 19 658 l 19 604 l 128 604 l 128 103 b 74 38 128 67 111 38 l 19 38 l 19 0 l 331 0 l 331 38 l 281 38 b 219 103 238 38 219 63 l 219 604 l 488 604 b 560 543 546 604 560 576 z "},"":{"ha":1200,"x_min":0,"x_max":0,"o":"m 440 957 b 579 810 558 957 579 878 l 579 94 b 531 38 579 61 558 38 l 492 38 l 492 0 l 764 0 l 764 38 l 724 38 b 672 93 685 38 672 76 l 672 329 l 764 329 b 1001 68 885 329 956 150 b 1131 -28 1026 21 1067 -28 b 1201 42 1178 -28 1201 1 b 1029 203 1135 42 1093 60 b 869 367 971 315 904 354 b 1010 513 929 394 975 460 b 1124 625 1044 568 1083 625 l 1164 625 l 1164 658 l 875 658 l 875 625 l 922 625 b 957 596 943 625 957 615 b 951 569 957 588 956 578 b 754 390 942 542 857 390 l 672 390 l 672 869 b 586 982 672 933 654 982 b 419 1018 518 982 511 1018 b 142 717 332 1018 142 975 b 74 658 142 717 142 658 l 32 658 l 32 604 l 142 604 l 142 103 b 88 38 142 67 124 38 l 32 38 l 32 0 l 331 0 l 331 38 l 293 38 b 233 103 251 38 233 63 l 233 604 l 283 604 b 407 553 371 604 407 588 b 472 615 407 549 472 581 b 408 658 472 647 444 658 l 233 658 l 233 744 b 440 957 233 871 317 957 z "},"":{"ha":906,"x_min":0,"x_max":0,"o":"m 449 658 l 233 658 l 233 744 b 365 949 233 871 274 949 b 474 828 469 949 474 861 b 547 900 514 828 547 856 b 365 1007 547 969 464 1007 b 142 717 276 1007 142 975 b 74 658 142 717 142 658 l 32 658 l 32 604 l 142 604 l 142 103 b 88 38 142 67 124 38 l 32 38 l 32 0 l 344 0 l 344 38 l 293 38 b 233 103 251 38 233 63 l 233 604 l 549 604 l 549 188 b 718 -29 549 28 629 -29 b 871 72 811 -29 871 22 b 825 124 871 124 825 124 b 728 33 825 124 804 33 b 640 188 656 33 640 110 l 640 604 l 775 604 b 867 661 835 604 867 628 b 825 703 867 686 849 699 b 690 657 825 688 803 657 l 640 657 l 640 783 l 585 783 l 585 771 b 476 658 585 700 542 658 z "},"":{"ha":1136,"x_min":0,"x_max":0,"o":"m 72 658 l 32 658 l 32 604 l 142 604 l 142 103 b 89 38 142 67 125 38 l 33 38 l 33 0 l 346 0 l 346 38 l 294 38 b 235 103 253 38 235 63 l 235 604 l 381 604 b 510 518 472 604 494 561 b 778 0 575 340 618 1 b 611 -236 749 -67 706 -236 b 539 -140 557 -236 539 -183 b 554 -54 539 -103 546 -75 b 443 -150 554 -54 443 -53 b 610 -294 443 -208 488 -294 b 867 -7 742 -294 808 -168 b 1061 551 956 240 1031 468 b 1121 619 1079 601 1106 619 l 1149 619 l 1149 658 l 860 658 l 860 619 b 968 575 946 619 967 599 b 799 57 957 507 868 254 b 599 556 694 115 644 415 b 419 660 569 642 507 660 l 235 658 l 235 744 b 367 949 235 871 275 949 b 475 828 471 949 475 861 b 549 900 515 828 549 856 b 367 1007 549 969 465 1007 b 143 717 278 1007 143 975 b 72 658 143 717 143 658 z "},"":{"ha":1072,"x_min":0,"x_max":0,"o":"m 767 815 b 651 653 767 739 708 658 l 651 608 l 717 608 l 717 189 b 888 -17 717 28 799 -17 b 1042 89 967 -17 1042 31 b 986 139 1042 132 986 139 b 888 46 986 139 958 46 b 808 189 817 46 808 111 l 808 608 l 960 608 b 1038 669 1004 608 1038 631 b 993 707 1038 689 1025 701 b 808 660 993 692 960 660 b 838 817 813 715 838 764 b 624 1001 838 940 746 1001 b 403 817 503 1001 403 938 b 447 692 403 782 418 728 b 386 693 426 693 406 693 b 40 333 153 693 40 503 b 363 -17 40 161 144 -17 b 619 114 554 -17 619 60 b 572 178 619 138 603 160 b 363 47 554 133 507 47 b 139 333 229 47 139 172 b 375 629 139 494 235 629 b 508 550 446 629 497 606 b 574 629 574 550 574 611 b 532 690 574 647 553 667 b 474 817 496 726 474 769 b 622 951 474 907 546 951 b 767 815 708 951 767 897 z "},"":{"ha":1392,"x_min":0,"x_max":0,"o":"m 524 653 b 421 808 486 678 421 706 b 576 953 421 904 488 953 b 704 758 672 953 704 857 l 704 -193 b 643 -257 704 -215 686 -257 l 611 -257 l 611 -294 l 922 -294 l 922 -257 l 881 -257 b 794 -192 828 -257 794 -233 l 794 350 b 1036 606 794 475 906 606 b 1226 317 1171 606 1226 468 b 1032 36 1226 161 1150 36 b 914 94 985 36 928 54 b 875 53 892 94 875 72 b 1032 -25 875 17 900 -25 b 1322 321 1211 -25 1322 153 b 1036 668 1322 476 1263 668 b 794 554 929 668 847 621 l 794 783 b 576 1000 794 946 697 1000 b 360 806 436 1000 360 911 b 399 683 360 771 371 722 b 317 689 376 688 349 689 b 67 503 125 689 67 594 b 497 156 67 275 497 315 b 315 40 497 107 450 40 b 128 182 129 40 128 182 b 47 117 128 182 47 178 b 315 -25 47 39 153 -25 b 588 174 471 -25 588 51 b 157 513 588 388 157 350 b 317 628 157 581 208 628 b 485 497 401 628 485 596 b 565 583 529 497 565 532 b 524 653 565 610 554 631 z "},"":{"ha":1083,"x_min":0,"x_max":0,"o":"m 328 607 b 457 518 419 607 442 561 b 725 0 522 340 565 1 b 558 -236 696 -67 653 -236 b 486 -140 504 -236 486 -183 b 501 -54 486 -103 493 -75 b 390 -150 501 -54 390 -53 b 557 -294 390 -208 435 -294 b 814 -7 689 -294 756 -168 b 1008 551 903 240 978 468 b 1068 619 1026 601 1053 619 l 1096 619 l 1096 658 l 807 658 l 807 619 b 915 575 893 619 914 599 b 746 57 904 507 815 254 b 546 556 642 115 592 415 b 367 663 517 642 454 663 l 210 663 l 210 788 l 156 788 b 18 658 153 663 93 658 l 18 608 l 118 608 l 118 204 b 288 -14 118 43 199 -14 b 443 92 367 -14 443 33 b 386 142 443 135 386 142 b 288 49 386 142 358 49 b 210 204 218 49 210 126 l 210 608 z "},"":{"ha":1233,"x_min":0,"x_max":0,"o":"m 465 600 l 574 600 l 574 124 b 499 36 574 88 561 36 l 465 36 l 465 0 l 775 0 l 775 36 l 746 36 b 665 124 683 36 665 83 l 665 600 l 896 600 b 997 519 981 600 997 553 l 997 113 b 929 36 997 88 981 36 l 888 36 l 888 0 l 1197 0 l 1197 36 l 1157 36 b 1089 113 1103 36 1089 88 l 1089 519 b 940 656 1089 565 1078 656 l 665 656 l 665 740 b 847 944 665 872 753 944 b 981 835 936 944 981 908 b 1031 813 996 818 1017 813 b 1099 881 1063 813 1099 836 b 847 1003 1099 990 942 1003 b 574 724 760 1003 574 963 b 478 656 574 724 565 656 l 239 656 l 239 740 b 369 929 239 867 278 929 b 469 833 453 929 469 843 b 533 893 489 833 533 843 b 369 988 533 965 450 988 b 147 726 281 988 147 963 b 65 656 147 726 147 656 l 39 656 l 39 600 l 147 600 l 147 117 b 72 36 147 81 133 36 l 39 36 l 39 0 l 349 0 l 349 36 l 319 36 b 239 117 257 36 239 76 l 239 600 z "},"":{"ha":1336,"x_min":0,"x_max":0,"o":"m 572 713 b 478 656 572 713 565 656 l 239 656 l 239 740 b 369 929 239 867 278 929 b 469 833 453 929 469 843 b 533 893 489 833 533 843 b 369 988 533 965 453 988 b 147 726 281 988 147 963 b 65 656 147 726 147 656 l 39 656 l 39 600 l 147 600 l 147 117 b 72 36 147 81 133 36 l 39 36 l 39 0 l 349 0 l 349 36 l 319 36 b 239 117 257 36 239 76 l 239 600 l 572 600 l 572 124 b 497 36 572 88 556 36 l 464 36 l 464 0 l 775 0 l 775 36 l 744 36 b 664 124 683 36 664 83 l 664 600 l 714 600 b 864 542 815 600 864 582 b 911 608 864 542 911 556 b 835 656 911 649 869 656 l 664 656 l 664 686 b 872 944 664 829 739 944 b 1028 782 1000 944 1028 864 l 1028 192 b 1196 -14 1028 22 1117 -14 b 1342 86 1286 -14 1342 26 b 1301 139 1342 128 1301 139 b 1196 49 1301 139 1265 49 b 1119 182 1133 49 1119 104 l 1119 847 b 1004 968 1119 933 1072 968 b 851 1008 936 968 943 1008 b 572 713 669 1008 572 871 z "},"":{"ha":958,"x_min":0,"x_max":0,"o":"m 569 726 b 472 656 569 726 567 656 l 233 656 l 233 740 b 364 929 233 867 272 929 b 464 833 447 929 464 843 b 528 893 483 833 528 843 b 364 988 528 965 442 988 b 142 726 275 988 142 963 b 60 656 142 726 142 656 l 33 656 l 33 600 l 142 600 l 142 117 b 67 36 142 81 128 36 l 33 36 l 33 0 l 343 0 l 343 36 l 314 36 b 233 117 251 36 233 76 l 233 600 l 569 600 l 569 117 b 494 36 569 81 556 36 l 461 36 l 461 0 l 771 0 l 771 36 l 742 36 b 661 117 679 36 661 76 l 661 600 l 711 600 b 849 543 797 600 849 583 b 897 611 849 543 897 567 b 835 656 897 644 871 656 l 661 656 l 661 740 b 792 943 661 867 700 943 b 901 824 894 943 901 863 b 967 894 921 824 967 824 b 792 1001 967 975 881 1001 b 569 726 703 1001 569 963 z "},"":{"ha":1208,"x_min":0,"x_max":0,"o":"m 1086 519 b 938 656 1086 565 1075 656 l 663 656 l 663 740 b 844 944 663 872 750 944 b 978 835 933 944 978 908 b 1028 813 993 818 1014 813 b 1096 881 1060 813 1096 836 b 844 1003 1096 990 939 1003 b 571 724 757 1003 571 963 b 475 656 571 724 563 656 l 236 656 l 236 740 b 367 929 236 867 275 929 b 467 833 450 929 467 843 b 531 893 486 833 531 843 b 367 988 531 965 447 988 b 144 726 278 988 144 963 b 63 656 144 726 144 656 l 36 656 l 36 600 l 144 600 l 144 117 b 69 36 144 81 131 36 l 36 36 l 36 0 l 346 0 l 346 36 l 317 36 b 236 117 254 36 236 76 l 236 600 l 571 600 l 571 124 b 496 36 571 88 558 36 l 463 36 l 463 0 l 772 0 l 772 36 l 743 36 b 663 124 681 36 663 83 l 663 600 l 893 600 b 994 519 978 600 994 553 l 994 -44 b 908 -233 994 -137 979 -233 b 832 -136 843 -233 832 -164 b 772 -194 804 -136 772 -154 b 914 -293 772 -253 824 -293 b 1088 -49 1004 -293 1088 -228 z "},"":{"ha":803,"x_min":0,"x_max":0,"o":"m 31 600 l 142 600 l 142 124 b 67 36 142 88 129 36 l 33 36 l 33 0 l 343 0 l 343 36 l 314 36 b 233 124 251 36 233 83 l 233 600 l 464 600 b 565 519 549 600 565 553 l 565 -44 b 479 -233 565 -137 550 -233 b 403 -136 414 -233 403 -164 b 343 -194 375 -136 343 -154 b 485 -293 343 -253 394 -293 b 658 -49 575 -293 658 -228 l 658 519 b 508 656 658 565 646 656 l 233 656 l 233 740 b 415 944 233 872 321 944 b 549 835 504 944 549 908 b 599 813 564 818 585 813 b 667 881 631 813 667 836 b 415 1003 667 990 510 1003 b 142 724 328 1003 142 963 b 46 656 142 724 133 656 l 31 656 z "},"ﬆ":{"ha":1119,"x_min":0,"x_max":0,"o":"m 306 292 b 492 139 492 233 492 175 b 325 39 492 94 439 39 b 125 168 164 39 125 168 b 56 106 125 168 56 167 b 318 -25 56 36 178 -25 b 585 164 471 -25 585 40 b 158 518 585 383 158 343 b 326 624 158 586 236 624 b 486 463 415 624 486 588 b 560 544 500 463 560 471 b 326 685 560 618 499 685 b 67 506 156 685 67 596 b 306 292 67 408 140 343 z m 1039 124 b 942 33 1039 124 1018 33 b 854 188 869 33 854 110 l 854 604 l 989 604 b 1081 661 1049 604 1081 628 b 1039 703 1081 686 1063 699 b 904 656 1039 688 1017 656 l 854 656 l 854 783 l 799 783 l 799 771 b 690 654 799 700 756 654 l 679 654 b 663 656 675 654 665 656 l 663 604 l 763 604 l 763 188 b 932 -29 763 28 843 -29 b 1085 72 1025 -29 1085 22 b 1039 124 1085 124 1039 124 z "},"Ö":{"ha":1021,"x_min":0,"x_max":0,"o":"m 507 -24 b 44 467 244 -24 44 196 b 503 960 44 750 214 960 b 968 467 811 960 968 739 b 507 -24 968 204 801 -24 z m 157 467 b 510 46 157 244 285 47 b 856 467 726 46 856 232 b 500 894 856 704 731 894 b 157 467 261 894 160 679 z m 447 1071 b 369 1138 447 1113 417 1138 b 293 1071 329 1138 293 1113 b 369 1007 293 1031 332 1007 b 447 1071 413 1007 447 1028 z m 726 1071 b 649 1138 726 1113 696 1138 b 572 1071 608 1138 572 1113 b 649 1007 572 1031 611 1007 b 726 1071 692 1007 726 1028 z "},"Ü":{"ha":1006,"x_min":0,"x_max":0,"o":"m 910 900 l 961 900 l 961 940 l 631 940 l 631 900 l 667 900 b 740 824 725 900 740 865 l 740 303 b 450 65 740 235 626 65 b 236 354 303 65 236 176 l 236 843 b 296 900 236 888 276 900 l 346 900 l 346 940 l 25 940 l 25 900 l 61 900 b 135 828 121 900 135 865 l 135 338 b 451 -10 135 140 222 -10 b 740 150 594 -10 693 89 l 740 121 b 860 0 740 43 788 0 l 961 0 l 961 43 l 915 43 b 842 140 864 43 842 79 l 842 843 b 910 900 842 883 883 900 z m 424 1071 b 346 1138 424 1113 393 1138 b 269 1071 306 1138 269 1113 b 346 1007 269 1031 308 1007 b 424 1071 389 1007 424 1028 z m 703 1071 b 625 1138 703 1113 672 1138 b 549 1071 585 1138 549 1113 b 625 1007 549 1031 588 1007 b 703 1071 668 1007 703 1028 z "},"É":{"ha":886,"x_min":0,"x_max":0,"o":"m 597 949 b 772 817 742 949 771 913 b 690 708 772 765 736 708 b 489 888 690 833 646 888 b 274 819 399 888 274 879 l 274 528 l 511 528 b 592 475 581 528 592 496 b 503 394 592 435 542 394 b 414 457 503 432 476 457 l 274 457 l 274 114 b 506 63 274 64 408 63 b 735 224 688 63 735 200 b 810 143 775 224 810 185 b 536 0 810 24 671 0 l 61 0 l 61 50 l 107 50 b 174 113 136 50 174 68 l 174 835 b 107 900 174 860 164 900 l 64 900 l 64 940 l 261 940 b 597 949 329 940 526 949 z m 554 1207 b 493 1268 553 1217 519 1268 b 456 1232 468 1268 463 1256 b 374 1067 440 1181 411 1115 b 335 1026 356 1049 335 1032 b 360 1003 335 1011 338 1003 b 554 1207 413 1003 554 1144 z "},"Ä":{"ha":829,"x_min":0,"x_max":0,"o":"m 840 42 b 750 122 817 42 771 65 b 501 808 750 122 521 753 b 350 960 474 886 438 960 b 274 918 299 960 274 932 b 325 849 285 917 325 910 b 78 274 325 772 208 532 b 1 67 42 203 1 125 b 74 -24 1 42 8 -24 b 154 10 131 -24 154 3 b 119 93 133 11 119 43 b 194 311 119 143 163 244 l 574 311 b 644 110 585 282 626 161 b 650 79 649 99 650 89 b 608 42 650 60 635 43 l 575 42 l 575 0 l 875 0 l 875 42 z m 231 390 b 406 785 339 606 382 729 b 547 390 453 656 499 519 z m 331 1075 b 253 1142 331 1117 300 1142 b 176 1075 213 1142 176 1117 b 253 1011 176 1035 215 1011 b 331 1075 296 1011 331 1032 z m 610 1075 b 532 1142 610 1117 579 1142 b 456 1075 492 1142 456 1117 b 532 1011 456 1035 494 1011 b 610 1075 575 1011 610 1032 z "},"Ù":{"ha":1006,"x_min":0,"x_max":0,"o":"m 910 900 l 961 900 l 961 940 l 631 940 l 631 900 l 667 900 b 740 824 725 900 740 865 l 740 303 b 450 65 740 235 626 65 b 236 354 303 65 236 176 l 236 843 b 296 900 236 888 276 900 l 346 900 l 346 940 l 25 940 l 25 900 l 61 900 b 135 828 121 900 135 865 l 135 338 b 451 -10 135 140 222 -10 b 740 150 594 -10 693 89 l 740 121 b 860 0 740 43 788 0 l 961 0 l 961 43 l 915 43 b 842 140 864 43 842 79 l 842 843 b 910 900 842 883 883 900 z m 363 1193 b 553 993 363 1150 497 993 b 567 1007 561 993 567 1000 b 536 1039 567 1010 540 1036 b 453 1232 490 1094 472 1171 b 432 1250 447 1244 442 1250 b 363 1193 418 1250 385 1229 z "},"Û":{"ha":1006,"x_min":0,"x_max":0,"o":"m 910 900 l 961 900 l 961 940 l 631 940 l 631 900 l 667 900 b 740 824 725 900 740 865 l 740 303 b 450 65 740 235 626 65 b 236 354 303 65 236 176 l 236 843 b 296 900 236 888 276 900 l 346 900 l 346 940 l 25 940 l 25 900 l 61 900 b 135 828 121 900 135 865 l 135 338 b 451 -10 135 140 222 -10 b 740 150 594 -10 693 89 l 740 121 b 860 0 740 43 788 0 l 961 0 l 961 43 l 915 43 b 842 140 864 43 842 79 l 842 843 b 910 900 842 883 883 900 z m 479 1268 b 283 1039 436 1214 342 1076 b 331 1013 283 1031 297 1013 b 483 1176 386 1013 447 1128 b 607 1014 528 1125 592 1074 b 661 1068 614 1014 661 1028 b 479 1268 661 1096 643 1113 z "},"Ú":{"ha":1006,"x_min":0,"x_max":0,"o":"m 910 900 l 961 900 l 961 940 l 631 940 l 631 900 l 667 900 b 740 824 725 900 740 865 l 740 303 b 450 65 740 235 626 65 b 236 354 303 65 236 176 l 236 843 b 296 900 236 888 276 900 l 346 900 l 346 940 l 25 940 l 25 900 l 61 900 b 135 828 121 900 135 865 l 135 338 b 451 -10 135 140 222 -10 b 740 150 594 -10 693 89 l 740 121 b 860 0 740 43 788 0 l 961 0 l 961 43 l 915 43 b 842 140 864 43 842 79 l 842 843 b 910 900 842 883 883 900 z m 604 1207 b 543 1268 603 1217 569 1268 b 506 1232 518 1268 513 1256 b 424 1067 490 1181 461 1115 b 385 1026 406 1049 385 1032 b 410 1003 385 1011 388 1003 b 604 1207 463 1003 604 1144 z "},"Ò":{"ha":1021,"x_min":0,"x_max":0,"o":"m 507 -24 b 44 467 244 -24 44 196 b 503 960 44 750 214 960 b 968 467 811 960 968 739 b 507 -24 968 204 801 -24 z m 157 467 b 510 46 157 244 285 47 b 856 467 726 46 856 232 b 500 894 856 704 731 894 b 157 467 261 894 160 679 z m 381 1214 b 571 1014 381 1171 515 1014 b 585 1028 579 1014 585 1021 b 554 1060 585 1031 558 1057 b 471 1253 508 1115 490 1192 b 450 1271 465 1265 460 1271 b 381 1214 436 1271 403 1250 z "},"Ô":{"ha":1021,"x_min":0,"x_max":0,"o":"m 507 -24 b 44 467 244 -24 44 196 b 503 960 44 750 214 960 b 968 467 811 960 968 739 b 507 -24 968 204 801 -24 z m 157 467 b 510 46 157 244 285 47 b 856 467 726 46 856 232 b 500 894 856 704 731 894 b 157 467 261 894 160 679 z m 488 1258 b 292 1029 444 1204 350 1067 b 339 1003 292 1021 306 1003 b 492 1167 394 1003 456 1118 b 615 1004 536 1115 600 1064 b 669 1058 622 1004 669 1018 b 488 1258 669 1086 651 1103 z "},"Ó":{"ha":1021,"x_min":0,"x_max":0,"o":"m 507 -24 b 44 467 244 -24 44 196 b 503 960 44 750 214 960 b 968 467 811 960 968 739 b 507 -24 968 204 801 -24 z m 157 467 b 510 46 157 244 285 47 b 856 467 726 46 856 232 b 500 894 856 704 731 894 b 157 467 261 894 160 679 z m 622 1207 b 561 1268 621 1217 588 1268 b 524 1232 536 1268 531 1256 b 442 1067 508 1181 479 1115 b 403 1026 424 1049 403 1032 b 428 1003 403 1011 406 1003 b 622 1207 481 1003 622 1144 z "},"Ì":{"ha":435,"x_min":0,"x_max":0,"o":"m 268 840 b 328 900 268 872 293 900 l 374 900 l 374 940 l 58 940 l 58 900 l 99 900 b 167 840 136 900 167 879 l 167 118 b 99 42 167 75 143 42 l 60 42 l 60 0 l 374 0 l 374 42 l 335 42 b 268 118 306 42 268 68 z m 90 1211 b 281 1011 90 1168 225 1011 b 294 1025 289 1011 294 1018 b 264 1057 294 1028 268 1054 b 181 1250 218 1113 200 1189 b 160 1268 175 1263 169 1268 b 90 1211 146 1268 113 1247 z "},"Ï":{"ha":435,"x_min":0,"x_max":0,"o":"m 268 840 b 328 900 268 872 293 900 l 374 900 l 374 940 l 58 940 l 58 900 l 99 900 b 167 840 136 900 167 879 l 167 118 b 99 42 167 75 143 42 l 60 42 l 60 0 l 374 0 l 374 42 l 335 42 b 268 118 306 42 268 68 z m 156 1075 b 78 1142 156 1117 125 1142 b 1 1075 38 1142 1 1117 b 78 1011 1 1035 40 1011 b 156 1075 121 1011 156 1032 z m 435 1075 b 357 1142 435 1117 404 1142 b 281 1075 317 1142 281 1117 b 357 1011 281 1035 319 1011 b 435 1075 400 1011 435 1032 z "},"Î":{"ha":435,"x_min":0,"x_max":0,"o":"m 268 840 b 328 900 268 872 293 900 l 374 900 l 374 940 l 58 940 l 58 900 l 99 900 b 167 840 136 900 167 879 l 167 118 b 99 42 167 75 143 42 l 60 42 l 60 0 l 374 0 l 374 42 l 335 42 b 268 118 306 42 268 68 z m 214 1260 b 18 1031 171 1206 76 1068 b 65 1004 18 1022 32 1004 b 218 1168 121 1004 182 1119 b 342 1006 263 1117 326 1065 b 396 1060 349 1006 396 1019 b 214 1260 396 1088 378 1104 z "},"Í":{"ha":435,"x_min":0,"x_max":0,"o":"m 268 840 b 328 900 268 872 293 900 l 374 900 l 374 940 l 58 940 l 58 900 l 99 900 b 167 840 136 900 167 879 l 167 118 b 99 42 167 75 143 42 l 60 42 l 60 0 l 374 0 l 374 42 l 335 42 b 268 118 306 42 268 68 z m 319 1211 b 258 1272 318 1221 285 1272 b 221 1236 233 1272 228 1260 b 139 1071 206 1185 176 1119 b 100 1031 121 1053 100 1036 b 125 1007 100 1015 103 1007 b 319 1211 178 1007 319 1149 z "},"È":{"ha":886,"x_min":0,"x_max":0,"o":"m 597 949 b 772 817 742 949 771 913 b 690 708 772 765 736 708 b 489 888 690 833 646 888 b 274 819 399 888 274 879 l 274 528 l 511 528 b 592 475 581 528 592 496 b 503 394 592 435 542 394 b 414 457 503 432 476 457 l 274 457 l 274 114 b 506 63 274 64 408 63 b 735 224 688 63 735 200 b 810 143 775 224 810 185 b 536 0 810 24 671 0 l 61 0 l 61 50 l 107 50 b 174 113 136 50 174 68 l 174 835 b 107 900 174 860 164 900 l 64 900 l 64 940 l 261 940 b 597 949 329 940 526 949 z m 293 1206 b 483 1006 293 1163 428 1006 b 497 1019 492 1006 497 1013 b 467 1051 497 1022 471 1049 b 383 1244 421 1107 403 1183 b 363 1263 378 1257 372 1263 b 293 1206 349 1263 315 1242 z "},"Ë":{"ha":886,"x_min":0,"x_max":0,"o":"m 597 949 b 772 817 742 949 771 913 b 690 708 772 765 736 708 b 489 888 690 833 646 888 b 274 819 399 888 274 879 l 274 528 l 511 528 b 592 475 581 528 592 496 b 503 394 592 435 542 394 b 414 457 503 432 476 457 l 274 457 l 274 114 b 506 63 274 64 408 63 b 735 224 688 63 735 200 b 810 143 775 224 810 185 b 536 0 810 24 671 0 l 61 0 l 61 50 l 107 50 b 174 113 136 50 174 68 l 174 835 b 107 900 174 860 164 900 l 64 900 l 64 940 l 261 940 b 597 949 329 940 526 949 z m 367 1085 b 289 1151 367 1126 336 1151 b 213 1085 249 1151 213 1126 b 289 1021 213 1044 251 1021 b 367 1085 332 1021 367 1042 z m 646 1085 b 568 1151 646 1126 615 1151 b 492 1085 528 1151 492 1126 b 568 1021 492 1044 531 1021 b 646 1085 611 1021 646 1042 z "},"Á":{"ha":829,"x_min":0,"x_max":0,"o":"m 840 42 b 750 122 817 42 771 65 b 501 808 750 122 521 753 b 350 960 474 886 438 960 b 274 918 299 960 274 932 b 325 849 285 917 325 910 b 78 274 325 772 208 532 b 1 67 42 203 1 125 b 74 -24 1 42 8 -24 b 154 10 131 -24 154 3 b 119 93 133 11 119 43 b 194 311 119 143 163 244 l 574 311 b 644 110 585 282 626 161 b 650 79 649 99 650 89 b 608 42 650 60 635 43 l 575 42 l 575 0 l 875 0 l 875 42 z m 231 390 b 406 785 339 606 382 729 b 547 390 453 656 499 519 z m 492 1211 b 431 1272 490 1221 457 1272 b 393 1236 406 1272 400 1260 b 311 1071 378 1185 349 1119 b 272 1031 293 1053 272 1036 b 297 1007 272 1015 275 1007 b 492 1211 350 1007 492 1149 z "},"Ê":{"ha":886,"x_min":0,"x_max":0,"o":"m 597 949 b 772 817 742 949 771 913 b 690 708 772 765 736 708 b 489 888 690 833 646 888 b 274 819 399 888 274 879 l 274 528 l 511 528 b 592 475 581 528 592 496 b 503 394 592 435 542 394 b 414 457 503 432 476 457 l 274 457 l 274 114 b 506 63 274 64 408 63 b 735 224 688 63 735 200 b 810 143 775 224 810 185 b 536 0 810 24 671 0 l 61 0 l 61 50 l 107 50 b 174 113 136 50 174 68 l 174 835 b 107 900 174 860 164 900 l 64 900 l 64 940 l 261 940 b 597 949 329 940 526 949 z m 407 1267 b 211 1038 364 1213 269 1075 b 258 1011 211 1029 225 1011 b 411 1175 314 1011 375 1126 b 535 1013 456 1124 519 1072 b 589 1067 542 1013 589 1026 b 407 1267 589 1094 571 1111 z "},"Â":{"ha":829,"x_min":0,"x_max":0,"o":"m 840 42 b 750 122 817 42 771 65 b 501 808 750 122 521 753 b 350 960 474 886 438 960 b 274 918 299 960 274 932 b 325 849 285 917 325 910 b 78 274 325 772 208 532 b 1 67 42 203 1 125 b 74 -24 1 42 8 -24 b 154 10 131 -24 154 3 b 119 93 133 11 119 43 b 194 311 119 143 163 244 l 574 311 b 644 110 585 282 626 161 b 650 79 649 99 650 89 b 608 42 650 60 635 43 l 575 42 l 575 0 l 875 0 l 875 42 z m 231 390 b 406 785 339 606 382 729 b 547 390 453 656 499 519 z m 392 1261 b 196 1032 349 1207 254 1069 b 243 1006 196 1024 210 1006 b 396 1169 299 1006 360 1121 b 519 1007 440 1118 504 1067 b 574 1061 526 1007 574 1021 b 392 1261 574 1089 556 1106 z "},"À":{"ha":829,"x_min":0,"x_max":0,"o":"m 840 42 b 750 122 817 42 771 65 b 501 808 750 122 521 753 b 350 960 474 886 438 960 b 274 918 299 960 274 932 b 325 849 285 917 325 910 b 78 274 325 772 208 532 b 1 67 42 203 1 125 b 74 -24 1 42 8 -24 b 154 10 131 -24 154 3 b 119 93 133 11 119 43 b 194 311 119 143 163 244 l 574 311 b 644 110 585 282 626 161 b 650 79 649 99 650 89 b 608 42 650 60 635 43 l 575 42 l 575 0 l 875 0 l 875 42 z m 231 390 b 406 785 339 606 382 729 b 547 390 453 656 499 519 z m 293 1203 b 483 1003 293 1160 428 1003 b 497 1017 492 1003 497 1010 b 467 1049 497 1019 471 1046 b 383 1242 421 1104 403 1181 b 363 1260 378 1254 372 1260 b 293 1203 349 1260 315 1239 z "},"Ã":{"ha":829,"x_min":0,"x_max":0,"o":"m 840 42 b 750 122 817 42 771 65 b 501 808 750 122 521 753 b 350 960 474 886 438 960 b 274 918 299 960 274 932 b 325 849 285 917 325 910 b 78 274 325 772 208 532 b 1 67 42 203 1 125 b 74 -24 1 42 8 -24 b 154 10 131 -24 154 3 b 119 93 133 11 119 43 b 194 311 119 143 163 244 l 574 311 b 644 110 585 282 626 161 b 650 79 649 99 650 89 b 608 42 650 60 635 43 l 575 42 l 575 0 l 875 0 l 875 42 z m 231 390 b 406 785 339 606 382 729 b 547 390 453 656 499 519 z m 300 1075 b 557 1013 381 1075 464 1013 b 657 1090 604 1013 657 1032 b 621 1143 657 1115 639 1143 b 549 1088 621 1119 596 1088 b 297 1146 486 1088 397 1146 b 150 1061 222 1146 150 1121 b 176 1010 150 1031 174 1010 b 300 1075 176 1010 206 1075 z "},"Õ":{"ha":1021,"x_min":0,"x_max":0,"o":"m 507 -24 b 44 467 244 -24 44 196 b 503 960 44 750 214 960 b 968 467 811 960 968 739 b 507 -24 968 204 801 -24 z m 157 467 b 510 46 157 244 285 47 b 856 467 726 46 856 232 b 500 894 856 704 731 894 b 157 467 261 894 160 679 z m 413 1083 b 669 1021 493 1083 576 1021 b 769 1099 717 1021 769 1040 b 733 1151 769 1124 751 1151 b 661 1096 733 1128 708 1096 b 410 1154 599 1096 510 1154 b 263 1069 335 1154 263 1129 b 289 1018 263 1039 286 1018 b 413 1083 289 1018 318 1083 z "},"Ÿ":{"ha":817,"x_min":0,"x_max":0,"o":"m 510 940 l 510 899 l 536 899 b 599 853 576 899 599 881 b 589 817 599 842 596 829 b 407 490 576 789 447 563 b 193 857 310 664 261 747 b 47 960 133 950 106 960 b -42 894 -8 960 -42 894 b -3 903 -33 899 -19 903 b 143 767 56 903 117 810 b 346 393 192 689 346 438 l 346 118 b 260 42 346 83 317 42 l 210 42 l 210 0 l 594 0 l 594 42 l 536 42 b 447 118 485 42 447 75 l 447 411 b 685 808 469 453 579 642 b 817 899 721 865 763 899 l 838 899 l 838 940 z m 329 1075 b 251 1142 329 1117 299 1142 b 175 1075 211 1142 175 1117 b 251 1011 175 1035 214 1011 b 329 1075 294 1011 329 1032 z m 608 1075 b 531 1142 608 1117 578 1142 b 454 1075 490 1142 454 1117 b 531 1011 454 1035 493 1011 b 608 1075 574 1011 608 1032 z "},"ÿ":{"ha":726,"x_min":0,"x_max":0,"o":"m 304 832 b 238 889 304 868 278 889 b 172 832 203 889 172 868 b 238 778 172 797 206 778 b 304 832 274 778 304 796 z m 542 832 b 475 889 542 868 515 889 b 410 832 440 889 410 868 b 475 778 410 797 443 778 b 542 832 511 778 542 796 z m 449 656 l 449 619 b 557 571 538 619 557 601 b 393 57 557 515 451 214 b 332 122 376 61 353 72 b 176 575 304 188 204 501 b 69 664 156 629 132 664 b -4 619 31 664 -4 646 b 100 515 60 619 83 560 b 256 96 146 393 207 204 b 372 0 282 38 325 0 b 210 -235 346 -68 304 -235 b 122 -99 132 -235 122 -153 b 46 -176 122 -99 46 -108 b 200 -293 46 -228 89 -293 b 456 -7 332 -293 401 -161 b 642 529 543 239 615 446 b 736 619 664 600 699 619 l 736 656 z "},"á":{"ha":711,"x_min":0,"x_max":0,"o":"m 461 939 b 411 986 460 949 438 986 b 381 950 386 986 388 974 b 313 826 365 899 350 875 b 267 776 296 810 267 788 b 285 767 267 768 268 767 b 461 939 338 767 461 876 z m 667 36 b 596 140 614 36 596 75 l 596 453 b 346 690 596 632 499 690 b 103 544 207 690 103 629 b 171 471 103 472 171 471 b 346 631 171 538 210 631 b 503 453 500 631 503 515 l 503 388 l 414 388 b 47 178 211 388 47 349 b 271 -10 47 38 185 -10 b 436 71 422 -10 436 42 b 407 110 436 92 413 110 b 275 47 407 110 368 47 b 144 176 215 47 144 86 b 413 328 144 289 242 328 l 503 328 l 503 115 b 617 0 503 76 506 0 l 688 0 l 688 36 z "},"à":{"ha":711,"x_min":0,"x_max":0,"o":"m 267 939 b 443 767 267 876 390 767 b 461 776 460 767 461 768 b 415 826 461 788 432 810 b 347 950 378 875 363 899 b 317 986 340 974 342 986 b 267 939 290 986 268 949 z m 667 36 b 596 140 614 36 596 75 l 596 453 b 346 690 596 632 499 690 b 103 544 207 690 103 629 b 171 471 103 472 171 471 b 346 631 171 538 210 631 b 503 453 500 631 503 515 l 503 388 l 414 388 b 47 178 211 388 47 349 b 271 -10 47 38 185 -10 b 436 71 422 -10 436 42 b 407 110 436 92 413 110 b 275 47 407 110 368 47 b 144 176 215 47 144 86 b 413 328 144 289 242 328 l 503 328 l 503 115 b 617 0 503 76 506 0 l 688 0 l 688 36 z "},"â":{"ha":711,"x_min":0,"x_max":0,"o":"m 667 36 b 596 140 614 36 596 75 l 596 453 b 346 690 596 632 499 690 b 103 544 207 690 103 629 b 171 471 103 472 171 471 b 346 631 171 538 210 631 b 503 453 500 631 503 515 l 503 388 l 414 388 b 47 178 211 388 47 349 b 271 -10 47 38 185 -10 b 436 71 422 -10 436 42 b 407 110 436 92 413 110 b 275 47 407 110 368 47 b 144 176 215 47 144 86 b 413 328 144 289 242 328 l 503 328 l 503 115 b 617 0 503 76 506 0 l 688 0 l 688 36 z m 349 1004 b 153 775 306 950 211 813 b 200 749 153 767 167 749 b 353 913 256 749 317 864 b 476 750 397 861 461 810 b 531 804 483 750 531 764 b 349 1004 531 832 513 849 z "},"ä":{"ha":711,"x_min":0,"x_max":0,"o":"m 286 832 b 219 889 286 868 260 889 b 154 832 185 889 154 868 b 219 778 154 797 188 778 b 286 832 256 778 286 796 z m 524 832 b 457 889 524 868 497 889 b 392 832 422 889 392 868 b 457 778 392 797 425 778 b 524 832 493 778 524 796 z m 667 36 b 596 140 614 36 596 75 l 596 453 b 346 690 596 632 499 690 b 103 544 207 690 103 629 b 171 471 103 472 171 471 b 346 631 171 538 210 631 b 503 453 500 631 503 515 l 503 388 l 414 388 b 47 178 211 388 47 349 b 271 -10 47 38 185 -10 b 436 71 422 -10 436 42 b 407 110 436 92 413 110 b 275 47 407 110 368 47 b 144 176 215 47 144 86 b 413 328 144 289 242 328 l 503 328 l 503 115 b 617 0 503 76 506 0 l 688 0 l 688 36 z "},"ï":{"ha":378,"x_min":0,"x_max":0,"o":"m 129 832 b 63 889 129 868 103 889 b -3 832 28 889 -3 868 b 63 778 -3 797 31 778 b 129 832 99 778 129 796 z m 367 832 b 300 889 367 868 340 889 b 235 832 265 889 235 868 b 300 778 235 797 268 778 b 367 832 336 778 367 796 z m 321 35 b 246 111 289 35 246 60 l 246 546 b 146 654 246 614 225 654 l 50 654 l 50 618 l 83 618 b 154 546 132 618 154 592 l 154 111 b 79 35 154 56 111 35 l 46 35 l 46 -1 l 354 -1 l 354 35 z "},"ö":{"ha":781,"x_min":0,"x_max":0,"o":"m 335 832 b 268 889 335 868 308 889 b 203 832 233 889 203 868 b 268 778 203 797 236 778 b 335 832 304 778 335 796 z m 572 832 b 506 889 572 868 546 889 b 440 832 471 889 440 868 b 506 778 440 797 474 778 b 572 832 542 778 572 796 z m 143 328 b 390 625 143 463 200 625 b 629 328 579 625 629 471 b 390 40 629 185 564 40 b 143 328 208 40 143 185 z m 49 328 b 390 -24 49 163 144 -24 b 722 328 638 -24 722 163 b 390 689 722 496 647 689 b 49 328 124 689 49 496 z "},"ü":{"ha":822,"x_min":0,"x_max":0,"o":"m 332 832 b 265 889 332 868 306 889 b 200 832 231 889 200 868 b 265 778 200 797 233 778 b 332 832 301 778 332 796 z m 569 832 b 503 889 569 868 543 889 b 438 832 468 889 438 868 b 503 778 438 797 471 778 b 569 832 539 778 569 796 z m 768 36 b 685 115 703 36 685 76 l 685 576 b 603 656 685 599 675 656 l 508 656 l 508 619 b 593 528 593 619 593 571 l 593 326 b 371 40 593 181 497 40 b 221 244 271 40 221 103 l 221 558 b 128 656 221 625 176 656 l 19 656 l 19 619 l 42 619 b 129 526 117 619 129 569 l 129 199 b 357 -18 129 76 190 -18 b 593 125 468 -18 553 46 l 593 82 b 690 0 593 25 633 0 l 793 0 l 793 36 z "},"ë":{"ha":765,"x_min":0,"x_max":0,"o":"m 310 832 b 243 889 310 868 283 889 b 178 832 208 889 178 868 b 243 778 178 797 211 778 b 310 832 279 778 310 796 z m 547 832 b 481 889 547 868 521 889 b 415 832 446 889 415 868 b 481 778 415 797 449 778 b 547 832 517 778 547 796 z m 567 304 b 685 406 650 304 685 304 b 400 690 685 574 565 690 b 63 324 176 690 63 529 b 386 -17 63 168 157 -17 b 647 114 568 -17 647 53 b 604 167 647 131 626 158 b 386 44 575 119 522 44 b 158 324 247 44 158 185 b 396 629 158 476 233 629 b 593 404 532 629 593 521 b 550 367 593 375 579 367 l 381 367 b 258 324 322 367 258 367 b 275 276 258 315 264 288 b 567 304 319 304 350 304 z "},"ê":{"ha":765,"x_min":0,"x_max":0,"o":"m 567 304 b 685 406 650 304 685 304 b 400 690 685 574 565 690 b 63 324 176 690 63 529 b 386 -17 63 168 157 -17 b 647 114 568 -17 647 53 b 604 167 647 131 626 158 b 386 44 575 119 522 44 b 158 324 247 44 158 185 b 396 629 158 476 233 629 b 593 404 532 629 593 521 b 550 367 593 375 579 367 l 381 367 b 258 324 322 367 258 367 b 275 276 258 315 264 288 b 567 304 319 304 350 304 z m 368 1004 b 172 775 325 950 231 813 b 219 749 172 767 186 749 b 372 913 275 749 336 864 b 496 750 417 861 481 810 b 550 804 503 750 550 764 b 368 1004 550 832 532 849 z "},"è":{"ha":765,"x_min":0,"x_max":0,"o":"m 272 932 b 449 760 272 869 396 760 b 467 769 465 760 467 761 b 421 819 467 781 438 803 b 353 943 383 868 368 892 b 322 979 346 967 347 979 b 272 932 296 979 274 942 z m 567 304 b 685 406 650 304 685 304 b 400 690 685 574 565 690 b 63 324 176 690 63 529 b 386 -17 63 168 157 -17 b 647 114 568 -17 647 53 b 604 167 647 131 626 158 b 386 44 575 119 522 44 b 158 324 247 44 158 185 b 396 629 158 476 233 629 b 593 404 532 629 593 521 b 550 367 593 375 579 367 l 381 367 b 258 324 322 367 258 367 b 275 276 258 315 264 288 b 567 304 319 304 350 304 z "},"é":{"ha":765,"x_min":0,"x_max":0,"o":"m 464 939 b 414 986 463 949 440 986 b 383 950 389 986 390 974 b 315 826 368 899 353 875 b 269 776 299 810 269 788 b 288 767 269 768 271 767 b 464 939 340 767 464 876 z m 567 304 b 685 406 650 304 685 304 b 400 690 685 574 565 690 b 63 324 176 690 63 529 b 386 -17 63 168 157 -17 b 647 114 568 -17 647 53 b 604 167 647 131 626 158 b 386 44 575 119 522 44 b 158 324 247 44 158 185 b 396 629 158 476 233 629 b 593 404 532 629 593 521 b 550 367 593 375 579 367 l 381 367 b 258 324 322 367 258 367 b 275 276 258 315 264 288 b 567 304 319 304 350 304 z "},"ã":{"ha":711,"x_min":0,"x_max":0,"o":"m 263 840 b 481 788 331 840 401 788 b 567 854 521 788 567 804 b 536 899 567 875 551 899 b 474 851 536 878 514 851 b 260 901 421 851 346 901 b 135 829 197 901 135 879 b 158 785 135 803 156 785 b 263 840 158 785 182 840 z m 667 36 b 596 140 614 36 596 75 l 596 453 b 346 690 596 632 499 690 b 103 544 207 690 103 629 b 171 471 103 472 171 471 b 346 631 171 538 210 631 b 503 453 500 631 503 515 l 503 388 l 414 388 b 47 178 211 388 47 349 b 271 -10 47 38 185 -10 b 436 71 422 -10 436 42 b 407 110 436 92 413 110 b 275 47 407 110 368 47 b 144 176 215 47 144 86 b 413 328 144 289 242 328 l 503 328 l 503 115 b 617 0 503 76 506 0 l 688 0 l 688 36 z "},"å":{"ha":711,"x_min":0,"x_max":0,"o":"m 285 908 b 357 997 285 943 307 997 b 426 908 406 997 426 943 b 357 821 426 871 406 821 b 285 908 310 821 285 871 z m 224 908 b 357 781 224 849 264 781 b 486 908 451 781 486 854 b 357 1035 486 967 451 1035 b 224 908 260 1035 224 967 z m 667 36 b 596 140 614 36 596 75 l 596 453 b 346 690 596 632 499 690 b 103 544 207 690 103 629 b 171 471 103 472 171 471 b 346 631 171 538 210 631 b 503 453 500 631 503 515 l 503 388 l 414 388 b 47 178 211 388 47 349 b 271 -10 47 38 185 -10 b 436 71 422 -10 436 42 b 407 110 436 92 413 110 b 275 47 407 110 368 47 b 144 176 215 47 144 86 b 413 328 144 289 242 328 l 503 328 l 503 115 b 617 0 503 76 506 0 l 688 0 l 688 36 z "}}}
